<svg width="137" height="140" viewBox="0 0 137 140" fill="none" xmlns="http://www.w3.org/2000/svg">
<path d="M62.5214 139.768C50.354 139.768 39.5507 137.101 30.1183 131.761C20.6859 126.427 13.3063 119.075 7.98654 109.704C2.6599 100.34 0 89.5365 0 77.3009V65.5905C0 52.707 2.6599 41.3513 7.98654 31.5233C13.3132 21.6953 20.6927 13.9884 30.1183 8.38893C39.5507 2.79631 50.354 0 62.5214 0C74.6888 0 85.267 2.70083 94.5426 8.10248C103.825 13.5041 111.068 20.9587 116.299 30.4525C121.524 39.9531 124.136 50.9474 124.136 63.4421V64.8062C124.136 73.0042 122.54 80.1995 119.341 86.3787C116.149 92.5579 111.402 97.2161 105.121 100.333V104.043L120.903 99.7464L136.494 136.644L62.5214 139.761V139.768ZM62.5214 97.9936C67.5889 97.9936 71.8243 95.9748 75.2207 91.944C78.6172 87.9133 80.3155 83.03 80.3155 77.3009V65.5905C80.3155 59.8683 78.6172 54.985 75.2207 50.9474C71.8243 46.9166 67.5889 44.8978 62.5214 44.8978C57.4539 44.8978 53.3413 46.9166 49.8971 50.9474C46.446 54.985 44.7273 59.8615 44.7273 65.5905V77.3009C44.7273 83.03 46.4529 87.9064 49.8971 91.944C53.3413 95.9816 57.5494 97.9936 62.5214 97.9936Z" fill="url(#paint0_linear_140_175)"/>
<defs>
<linearGradient id="paint0_linear_140_175" x1="-1.42317" y1="70.8966" x2="665.467" y2="75.582" gradientUnits="userSpaceOnUse">
<stop stop-color="#ED4186"/>
<stop offset="1" stop-color="#540F6B"/>
</linearGradient>
</defs>
</svg>
