<svg width="25" height="30" viewBox="0 0 25 30" fill="none" xmlns="http://www.w3.org/2000/svg">
<path d="M12.85 18.1359H12.9157C14.3219 18.1734 15.4469 19.3171 15.4469 20.7234C15.4469 21.9234 14.6313 22.9265 13.525 23.2265V24.2765C13.525 24.6515 13.225 24.9515 12.85 24.9515C12.475 24.9515 12.175 24.6515 12.175 24.2765V23.2265C11.6243 23.0783 11.1376 22.7528 10.7903 22.3004C10.4429 21.848 10.2542 21.2938 10.2532 20.7234C10.2532 20.3484 10.5532 20.0484 10.9282 20.0484C11.3032 20.0484 11.6032 20.3484 11.6032 20.7234C11.6032 21.4171 12.1563 21.9703 12.8407 21.9703C13.525 21.9703 14.0875 21.4078 14.0875 20.7234C14.0875 20.039 13.525 19.4765 12.8407 19.4765H12.775C12.1006 19.4582 11.4599 19.1777 10.989 18.6945C10.5181 18.2114 10.2541 17.5637 10.2532 16.889C10.2532 15.689 11.0688 14.6859 12.175 14.3859V13.3359C12.175 12.9609 12.475 12.6609 12.85 12.6609C13.225 12.6609 13.525 12.9609 13.525 13.3359V14.3859C14.6313 14.6859 15.4469 15.689 15.4469 16.889C15.4469 17.264 15.1469 17.564 14.7719 17.564C14.3969 17.564 14.0969 17.264 14.0969 16.889C14.0969 16.2046 13.5344 15.6421 12.85 15.6421C12.1657 15.6421 11.6032 16.2046 11.6032 16.889C11.6032 17.5734 12.1657 18.1359 12.85 18.1359Z" fill="#ED4186"/>
<path d="M7.87375 4.78118L10.4856 7.83743L10.2034 8.15243C4.82781 9.35806 0.8125 14.159 0.8125 19.8984C0.8125 24.944 4.9075 29.039 9.95312 29.039H15.7375C20.7831 29.039 24.8781 24.9449 24.8781 19.8993C24.8875 14.159 20.8722 9.35806 15.4966 8.15243C15.5186 7.95432 15.4828 7.75405 15.3934 7.57587L17.6153 5.03243L17.7588 4.81118C17.9262 4.44586 17.9691 4.03564 17.8807 3.6436C17.7923 3.25155 17.5776 2.89941 17.2695 2.64131C16.9615 2.38321 16.5772 2.23346 16.1757 2.21509C15.7742 2.19672 15.3778 2.31074 15.0475 2.53962L14.2572 1.60212C14.0799 1.40372 13.8628 1.24491 13.62 1.13604C13.3773 1.02716 13.1143 0.97066 12.8482 0.970217C12.5822 0.969775 12.319 1.0254 12.0759 1.13347C11.8328 1.24154 11.6151 1.39963 11.4372 1.59743L10.6094 2.52181C10.2799 2.28816 9.8826 2.1696 9.47896 2.18444C9.07531 2.19929 8.68781 2.34672 8.37638 2.60394C8.06495 2.86115 7.84694 3.21381 7.75609 3.60738C7.66523 4.00094 7.70658 4.41348 7.87375 4.78118ZM11.4353 6.07962L9.84531 4.24212C10.2148 4.41979 10.6326 4.47015 11.0337 4.38536C11.4348 4.30056 11.7966 4.08537 12.0625 3.77337L12.8125 2.80024L13.645 3.78649C13.9046 4.08835 14.2547 4.29825 14.6433 4.38492C15.0318 4.47158 15.438 4.43037 15.8013 4.26743L14.2187 6.07962H11.4353ZM2.6875 19.8984C2.6875 14.2846 7.23625 9.73587 12.85 9.73587C18.4638 9.73587 23.0125 14.2846 23.0031 19.8965V19.8984C23.0024 21.8251 22.2367 23.6727 20.8742 25.0351C19.5118 26.3975 17.6642 27.1632 15.7375 27.164H9.95312C8.02639 27.1632 6.17878 26.3975 4.81638 25.0351C3.45397 23.6727 2.68825 21.8251 2.6875 19.8984Z" fill="#ED4186"/>
</svg>
