<svg width="30" height="30" viewBox="0 0 30 30" fill="none" xmlns="http://www.w3.org/2000/svg">
<path d="M16.1402 2.50049H16.4781C20.5188 2.50049 22.5391 2.50049 23.9421 3.49778C24.3441 3.78352 24.701 4.12239 25.0019 4.5041C26.0522 5.83633 26.0522 7.75468 26.0522 11.5914V14.7732C26.0522 18.4772 26.0522 20.3292 25.4712 21.8083C24.5371 24.1862 22.5618 26.0619 20.0575 26.9488C18.4997 27.5005 16.5493 27.5005 12.6485 27.5005C10.4195 27.5005 9.30495 27.5005 8.41481 27.1852C6.98378 26.6784 5.85501 25.6066 5.32126 24.2478C4.98926 23.4026 4.98926 22.3443 4.98926 20.2278V15.0005" stroke="#505969" stroke-width="1.91" stroke-linecap="round" stroke-linejoin="round"/>
<path d="M26.0526 14.9995C26.0526 17.3007 24.2035 19.1662 21.9226 19.1662C21.0977 19.1662 20.1252 19.0204 19.3231 19.2372C18.6105 19.4298 18.0539 19.9914 17.8629 20.7103C17.648 21.5195 17.7926 22.5006 17.7926 23.3328C17.7926 25.634 15.9435 27.4995 13.6626 27.4995" stroke="#505969" stroke-width="1.91" stroke-linecap="round" stroke-linejoin="round"/>
<path d="M13.6629 7.50049L3.75098 7.50049M8.70696 2.50049V12.5005" stroke="#505969" stroke-width="1.91" stroke-linecap="round"/>
</svg>
