<svg width="56" height="48" viewBox="0 0 56 48" fill="none" xmlns="http://www.w3.org/2000/svg">
<path fill-rule="evenodd" clip-rule="evenodd" d="M0.719839 40.0451L23.4184 2.55187C23.8963 1.77282 24.5691 1.12876 25.3718 0.681784C26.1745 0.234808 27.0801 0 28.0012 0C28.9223 0 29.8278 0.234808 30.6305 0.681784C31.4332 1.12876 32.106 1.77282 32.584 2.55187L55.2825 40.0451C55.7502 40.847 55.9975 41.7562 56 42.682C56.0024 43.6079 55.7599 44.5183 55.2965 45.3227C54.8331 46.1271 54.165 46.7975 53.3585 47.2672C52.5521 47.7369 51.6354 47.9895 50.6997 48H5.30264C4.36653 47.9905 3.44928 47.7384 2.64227 47.2689C1.83526 46.7995 1.16666 46.129 0.703072 45.3243C0.239482 44.5196 -0.00291534 43.6087 2.6461e-05 42.6825C0.00296827 41.7562 0.251146 40.8469 0.719839 40.0451ZM28.0012 14.5893C28.8541 14.5893 29.6721 14.9245 30.2752 15.5213C30.8783 16.118 31.2172 16.9273 31.2172 17.7712V27.3172C31.2172 28.1611 30.8783 28.9704 30.2752 29.5672C29.6721 30.1639 28.8541 30.4991 28.0012 30.4991C27.1482 30.4991 26.3302 30.1639 25.7271 29.5672C25.124 28.9704 24.7852 28.1611 24.7852 27.3172V17.7712C24.7852 16.9273 25.124 16.118 25.7271 15.5213C26.3302 14.9245 27.1482 14.5893 28.0012 14.5893ZM24.7852 36.8631C24.7852 36.0192 25.124 35.2098 25.7271 34.6131C26.3302 34.0164 27.1482 33.6811 28.0012 33.6811H28.0269C28.8798 33.6811 29.6978 34.0164 30.3009 34.6131C30.9041 35.2098 31.2429 36.0192 31.2429 36.8631C31.2429 37.707 30.9041 38.5164 30.3009 39.1131C29.6978 39.7098 28.8798 40.0451 28.0269 40.0451H28.0012C27.1482 40.0451 26.3302 39.7098 25.7271 39.1131C25.124 38.5164 24.7852 37.707 24.7852 36.8631Z" fill="#540F6B"/>
</svg>
