<svg width="41" height="41" viewBox="0 0 41 41" fill="none" xmlns="http://www.w3.org/2000/svg">
<path d="M12.2841 24.9638C13.8445 27.3472 16.583 28.9374 20.4995 28.9375C22.1949 28.9375 23.6696 28.6395 24.9235 28.1082M16.7495 15.8125V19.5625M24.2495 15.8125V19.5625M39.25 22.375V14.875C39.25 7.62626 33.3737 1.75 26.125 1.75H14.875C7.62626 1.75 1.75 7.62626 1.75 14.875V26.125C1.75 33.3737 7.62626 39.25 14.875 39.25H22.375M39.25 22.375C39.25 31.6948 31.6948 39.25 22.375 39.25M39.25 22.375C38.0495 23.5755 36.4212 24.25 34.7234 24.25H31.75C27.6079 24.25 24.25 27.6079 24.25 31.75V36.2162C24.25 37.501 23.5241 38.6754 22.375 39.25" stroke="white" stroke-width="3" stroke-linecap="round" stroke-linejoin="round"/>
</svg>
