<svg width="41" height="41" viewBox="0 0 41 41" fill="none" xmlns="http://www.w3.org/2000/svg">
<path d="M30.4375 3.625C30.4375 2.79657 29.7659 2.125 28.9375 2.125C28.1091 2.125 27.4375 2.79657 27.4375 3.625H28.9375H30.4375ZM28.9375 12.0625L28.9375 13.5625H28.9375V12.0625ZM27.4375 37.375C27.4375 38.2034 28.1091 38.875 28.9375 38.875C29.7659 38.875 30.4375 38.2034 30.4375 37.375H28.9375H27.4375ZM13.5625 3.625C13.5625 2.79657 12.8909 2.125 12.0625 2.125C11.2341 2.125 10.5625 2.79657 10.5625 3.625H12.0625H13.5625ZM12.0625 12.0625L12.0625 13.5625H12.0625V12.0625ZM12.0625 28.9375L12.0625 27.4375H12.0625V28.9375ZM10.5625 37.375C10.5625 38.2034 11.2341 38.875 12.0625 38.875C12.8909 38.875 13.5625 38.2034 13.5625 37.375L12.0625 37.375L10.5625 37.375ZM3.625 10.5625C2.79657 10.5625 2.125 11.2341 2.125 12.0625C2.125 12.8909 2.79657 13.5625 3.625 13.5625L3.625 12.0625L3.625 10.5625ZM37.375 13.5625C38.2034 13.5625 38.875 12.8909 38.875 12.0625C38.875 11.2341 38.2034 10.5625 37.375 10.5625V12.0625V13.5625ZM3.625 27.4375C2.79657 27.4375 2.125 28.1091 2.125 28.9375C2.125 29.7659 2.79657 30.4375 3.625 30.4375V28.9375V27.4375ZM37.375 30.4375C38.2034 30.4375 38.875 29.7659 38.875 28.9375C38.875 28.1091 38.2034 27.4375 37.375 27.4375V28.9375V30.4375ZM22 3.625C22 2.79657 21.3284 2.125 20.5 2.125C19.6716 2.125 19 2.79657 19 3.625H20.5H22ZM19 37.375C19 38.2034 19.6716 38.875 20.5 38.875C21.3284 38.875 22 38.2034 22 37.375H20.5H19ZM7.89261 38.0238L7.21162 39.3603L7.89261 38.0238ZM2.97618 33.1074L1.63967 33.7884L2.97618 33.1074ZM38.0238 33.1074L39.3603 33.7884L38.0238 33.1074ZM33.1074 38.0238L33.7884 39.3603L33.1074 38.0238ZM33.1074 2.97618L33.7884 1.63967L33.1074 2.97618ZM38.0238 7.89261L39.3603 7.21162L38.0238 7.89261ZM7.89261 2.97618L7.21162 1.63967L7.89261 2.97618ZM2.97618 7.89261L1.63967 7.21162L2.97618 7.89261ZM28.9375 3.625H27.4375V12.0625H28.9375H30.4375V3.625H28.9375ZM28.9375 28.9375H27.4375V37.375H28.9375H30.4375V28.9375H28.9375ZM12.0625 3.625H10.5625V12.0625H12.0625H13.5625V3.625H12.0625ZM12.0625 28.9375L10.5625 28.9375L10.5625 37.375L12.0625 37.375L13.5625 37.375L13.5625 28.9375L12.0625 28.9375ZM3.625 12.0625L3.625 13.5625L12.0625 13.5625L12.0625 12.0625L12.0625 10.5625L3.625 10.5625L3.625 12.0625ZM12.0625 12.0625V13.5625H20.5V12.0625V10.5625H12.0625V12.0625ZM20.5 12.0625L20.5 13.5625L28.9375 13.5625L28.9375 12.0625L28.9375 10.5625L20.5 10.5625L20.5 12.0625ZM28.9375 12.0625V13.5625H37.375V12.0625V10.5625H28.9375V12.0625ZM3.625 28.9375V30.4375H12.0625V28.9375V27.4375H3.625V28.9375ZM12.0625 28.9375L12.0625 30.4375L20.5 30.4375L20.5 28.9375L20.5 27.4375L12.0625 27.4375L12.0625 28.9375ZM20.5 28.9375V30.4375H28.9375V28.9375V27.4375H20.5V28.9375ZM28.9375 28.9375V30.4375H37.375V28.9375V27.4375H28.9375V28.9375ZM20.5 3.625H19V12.0625H20.5H22V3.625H20.5ZM20.5 12.0625L19 12.0625L19 28.9375L20.5 28.9375L22 28.9375L22 12.0625L20.5 12.0625ZM20.5 28.9375H19V37.375H20.5H22V28.9375H20.5ZM19.75 1.75V3.25H21.25V1.75V0.25H19.75V1.75ZM39.25 19.75H37.75V21.25H39.25H40.75V19.75H39.25ZM21.25 39.25V37.75H19.75V39.25V40.75H21.25V39.25ZM1.75 21.25H3.25V19.75H1.75H0.25V21.25H1.75ZM19.75 39.25V37.75C16.575 37.75 14.2839 37.7488 12.4832 37.6017C10.7 37.456 9.53014 37.1747 8.57359 36.6873L7.89261 38.0238L7.21162 39.3603C8.66158 40.0991 10.2702 40.4309 12.2389 40.5917C14.1901 40.7512 16.6245 40.75 19.75 40.75V39.25ZM1.75 21.25H0.25C0.25 24.3755 0.248833 26.8099 0.408254 28.7611C0.569105 30.7298 0.900878 32.3384 1.63967 33.7884L2.97618 33.1074L4.31269 32.4264C3.8253 31.4699 3.54398 30.3 3.39829 28.5168C3.25117 26.7161 3.25 24.425 3.25 21.25H1.75ZM7.89261 38.0238L8.57359 36.6873C6.73901 35.7525 5.24745 34.261 4.31269 32.4264L2.97618 33.1074L1.63967 33.7884C2.86205 36.1874 4.81256 38.1379 7.21162 39.3603L7.89261 38.0238ZM39.25 21.25H37.75C37.75 24.425 37.7488 26.7161 37.6017 28.5168C37.456 30.3 37.1747 31.4699 36.6873 32.4264L38.0238 33.1074L39.3603 33.7884C40.0991 32.3384 40.4309 30.7298 40.5917 28.7611C40.7512 26.8099 40.75 24.3755 40.75 21.25H39.25ZM21.25 39.25V40.75C24.3755 40.75 26.8099 40.7512 28.7611 40.5917C30.7298 40.4309 32.3384 40.0991 33.7884 39.3603L33.1074 38.0238L32.4264 36.6873C31.4699 37.1747 30.3 37.456 28.5168 37.6017C26.7161 37.7488 24.425 37.75 21.25 37.75V39.25ZM38.0238 33.1074L36.6873 32.4264C35.7525 34.261 34.261 35.7525 32.4264 36.6873L33.1074 38.0238L33.7884 39.3603C36.1874 38.1379 38.1379 36.1874 39.3603 33.7884L38.0238 33.1074ZM21.25 1.75V3.25C24.425 3.25 26.7161 3.25117 28.5168 3.39829C30.3 3.54398 31.4699 3.8253 32.4264 4.31269L33.1074 2.97618L33.7884 1.63967C32.3384 0.900878 30.7298 0.569105 28.7611 0.408254C26.8099 0.248833 24.3755 0.25 21.25 0.25V1.75ZM39.25 19.75H40.75C40.75 16.6245 40.7512 14.1901 40.5917 12.2389C40.4309 10.2702 40.0991 8.66158 39.3603 7.21162L38.0238 7.89261L36.6873 8.57359C37.1747 9.53014 37.456 10.7 37.6017 12.4832C37.7488 14.2839 37.75 16.575 37.75 19.75H39.25ZM33.1074 2.97618L32.4264 4.31269C34.261 5.24745 35.7525 6.73901 36.6873 8.57359L38.0238 7.89261L39.3603 7.21162C38.1379 4.81256 36.1874 2.86205 33.7884 1.63967L33.1074 2.97618ZM19.75 1.75V0.25C16.6245 0.25 14.1901 0.248833 12.2389 0.408254C10.2702 0.569105 8.66158 0.900878 7.21162 1.63967L7.89261 2.97618L8.57359 4.31269C9.53014 3.8253 10.7 3.54398 12.4832 3.39829C14.2839 3.25117 16.575 3.25 19.75 3.25V1.75ZM1.75 19.75H3.25C3.25 16.575 3.25117 14.2839 3.39829 12.4832C3.54398 10.7 3.8253 9.53014 4.31269 8.57359L2.97618 7.89261L1.63967 7.21162C0.900878 8.66158 0.569105 10.2702 0.408254 12.2389C0.248833 14.1901 0.25 16.6245 0.25 19.75H1.75ZM7.89261 2.97618L7.21162 1.63967C4.81255 2.86205 2.86205 4.81255 1.63967 7.21162L2.97618 7.89261L4.31269 8.57359C5.24745 6.73901 6.73901 5.24745 8.57359 4.31269L7.89261 2.97618Z" fill="white"/>
</svg>
