<svg width="41" height="41" viewBox="0 0 41 41" fill="none" xmlns="http://www.w3.org/2000/svg">
<path d="M11.125 1.75V9.25M11.125 28V35.5M29.875 5.5V13M29.875 31.75V39.25M1.75 9.25H20.5M1.75 28H20.5M20.5 13H39.25M20.5 31.75H39.25M20.5 35.5V4.75C20.5 3.6999 20.5 3.17485 20.2956 2.77377C20.1159 2.42096 19.829 2.13413 19.4762 1.95436C19.0752 1.75 18.5501 1.75 17.5 1.75H10.75C7.59971 1.75 6.02456 1.75 4.8213 2.36309C3.76289 2.90238 2.90238 3.76289 2.36309 4.8213C1.75 6.02456 1.75 7.59971 1.75 10.75V26.5C1.75 29.6503 1.75 31.2254 2.36309 32.4287C2.90238 33.4871 3.76289 34.3476 4.8213 34.8869C6.02456 35.5 7.59971 35.5 10.75 35.5H20.5ZM20.5 5.5H30.25C33.4003 5.5 34.9754 5.5 36.1787 6.11309C37.2371 6.65238 38.0976 7.51289 38.6369 8.5713C39.25 9.77456 39.25 11.3497 39.25 14.5V30.25C39.25 33.4003 39.25 34.9754 38.6369 36.1787C38.0976 37.2371 37.2371 38.0976 36.1787 38.6369C34.9754 39.25 33.4003 39.25 30.25 39.25H23.5C22.4499 39.25 21.9249 39.25 21.5238 39.0456C21.171 38.8659 20.8841 38.579 20.7044 38.2262C20.5 37.8252 20.5 37.3001 20.5 36.25V5.5Z" stroke="white" stroke-width="3" stroke-linecap="round" stroke-linejoin="round"/>
</svg>
