<?xml version="1.0" encoding="UTF-8"?>
<svg version="1.1" xmlns="http://www.w3.org/2000/svg" width="3097" height="1136">
<path d="M0 0 C6.37200815 0.01141809 12.7438498 0.00458812 19.11585236 -0.00685883 C64.17094944 -0.07606566 64.17094944 -0.07606566 84.09130859 1.08886719 C85.32854675 1.15797302 86.56578491 1.22707886 87.84051514 1.29827881 C98.19214826 2.01566471 109.18946282 3.23169847 118.45068359 8.19824219 C119.84480469 8.92333984 119.84480469 8.92333984 121.26708984 9.66308594 C131.39948311 15.83916469 136.68674931 25.05941475 139.88818359 36.26074219 C142.23554626 45.98979083 142.16438048 55.71251107 142.09399414 65.65161133 C142.0756952 68.32154913 142.07348549 70.99113862 142.07373047 73.66113281 C142.05545271 82.24778592 141.8888255 90.72170696 140.88818359 99.26074219 C141.71798737 99.25059082 142.54779114 99.24043945 143.40274048 99.22998047 C152.46161933 99.16825422 161.43408046 99.54902477 170.47412109 100.13574219 C171.91140408 100.22580279 173.34871137 100.3154762 174.78604126 100.40478516 C178.51795001 100.6376867 182.24951129 100.87574598 185.98101807 101.11499023 C189.80924719 101.35948252 193.63779085 101.5989446 197.46630859 101.83886719 C204.94057835 102.30798449 212.41448726 102.78256708 219.88818359 103.26074219 C220.95199688 108.01977819 220.62224266 110.00310755 218.29833984 114.23339844 C216.31560624 117.08392126 213.96468172 119.10370104 211.28271484 121.28808594 C208.44220644 123.62814588 205.76529632 126.12652769 203.07568359 128.63574219 C198.40091055 132.96088254 193.5655736 137.02040389 188.60302734 141.01464844 C185.78144864 143.34904808 183.08227648 145.78064817 180.38818359 148.26074219 C176.01698703 152.28002039 171.51305486 156.06107717 166.89208984 159.78808594 C163.39151851 162.66957053 159.98541365 165.64797386 156.57568359 168.63574219 C150.54901274 173.90120595 144.37999461 178.93208147 138.04052734 183.81542969 C136.11273041 185.31084589 134.20366891 186.83134527 132.32958984 188.39355469 C114.91603054 202.81934558 84.66059149 199.46453793 63.20068359 199.44824219 C62.18867889 199.44896729 61.17667419 199.44969238 60.13400269 199.45043945 C43.53589988 199.44917125 26.96468705 199.02267738 10.37735176 198.47247601 C-21.97825915 197.4009324 -54.31068065 197.03363527 -86.68428421 197.01397705 C-90.13229814 197.01078113 -93.58028419 197.00369346 -97.02828979 196.99560547 C-121.45562905 196.94484147 -145.77332095 196.94764784 -170.11181641 199.26074219 C-170.94202301 199.33871033 -171.77222961 199.41667847 -172.62759399 199.49700928 C-177.09446409 199.93157592 -181.53965267 200.46561805 -185.98681641 201.07324219 C-187.25871826 201.24355957 -188.53062012 201.41387695 -189.84106445 201.58935547 C-219.29203171 205.68627209 -253.6789066 211.64422216 -274.07275391 235.49121094 C-283.68133944 248.5419526 -293.43410941 265.98323962 -293.39028931 282.35362244 C-293.39608171 283.13956191 -293.40187411 283.92550139 -293.40784204 284.73525721 C-293.42476646 287.35308813 -293.42771199 289.97074195 -293.43066406 292.58862305 C-293.43996746 294.47140939 -293.45013674 296.35419162 -293.46110535 298.23696899 C-293.48837296 303.33762277 -293.50354519 308.43824897 -293.51653337 313.5389564 C-293.53217805 318.87346094 -293.55896403 324.20790929 -293.58456421 329.54237366 C-293.63132829 339.63921166 -293.6680839 349.73606026 -293.70123708 359.83295113 C-293.73947519 371.3299065 -293.78888095 382.82680542 -293.83922124 394.32371318 C-293.94250585 417.96934766 -294.03177757 441.61501841 -294.11181641 465.26074219 C-301.89999673 465.96717138 -309.66505669 466.470778 -317.47998047 466.74145508 C-319.07731773 466.80019554 -319.07731773 466.80019554 -320.70692444 466.86012268 C-324.18033949 466.98720171 -327.65388192 467.11033639 -331.12744141 467.23339844 C-333.55410639 467.32140515 -335.98076236 467.4096608 -338.40740967 467.49815369 C-344.75953558 467.72913397 -351.11177746 467.95675576 -357.46405029 468.18365479 C-363.95999434 468.41628854 -370.45582184 468.65213092 -376.95166016 468.88769531 C-389.67160073 469.34850042 -402.3916626 469.8058632 -415.11181641 470.26074219 C-415.10515457 469.51638412 -415.09849274 468.77202606 -415.09162903 468.00511169 C-415.00862318 458.23624242 -414.95551793 448.46740901 -414.92431641 438.69824219 C-414.92174835 437.89531487 -414.9191803 437.09238754 -414.91653442 436.26512909 C-414.84676919 411.42940285 -415.41052711 386.69099526 -416.61181641 361.88574219 C-417.67916286 339.68645019 -418.42138731 317.55178406 -418.42431641 295.32324219 C-418.42753906 294.1577887 -418.43076172 292.99233521 -418.43408203 291.79156494 C-418.51749539 243.20241539 -412.15641601 195.73690224 -377.11181641 159.26074219 C-376.21978516 158.30554688 -375.32775391 157.35035156 -374.40869141 156.36621094 C-353.18003103 134.03031326 -324.12923846 120.44262386 -295.11181641 111.26074219 C-294.27956543 110.99664551 -293.44731445 110.73254883 -292.58984375 110.46044922 C-273.35479322 104.45483487 -253.75703295 100.72774154 -233.79931641 98.07324219 C-232.65285645 97.91839355 -231.50639648 97.76354492 -230.32519531 97.60400391 C-206.88165904 94.66276024 -183.46485094 93.97434871 -159.86181641 94.13574219 C-157.24333033 94.14581454 -154.62484041 94.1549327 -152.00634766 94.16308594 C-145.70808387 94.18471075 -139.40996942 94.21783606 -133.11181641 94.26074219 C-133.17296631 92.38708984 -133.17296631 92.38708984 -133.23535156 90.47558594 C-133.38576817 85.76432481 -133.51962711 81.05270431 -133.64892578 76.34082031 C-133.70670583 74.31595056 -133.7687551 72.29119731 -133.83544922 70.26660156 C-135.13200916 30.58400947 -135.13200916 30.58400947 -123.22900391 16.33105469 C-109.05557261 2.4714263 -89.92738653 2.15163404 -71.28369141 1.15136719 C-70.51915398 1.10949532 -69.75461655 1.06762344 -68.96691132 1.02448273 C-45.99854837 -0.19021922 -22.99313969 -0.04154789 0 0 Z M-69.92431641 53.01074219 C-70.46701172 53.45933594 -71.00970703 53.90792969 -71.56884766 54.37011719 C-80.86479308 65.76059209 -76.11181641 81.88541731 -76.11181641 95.26074219 C-24.30181641 95.26074219 27.50818359 95.26074219 80.88818359 95.26074219 C82.60792352 74.19045443 82.60792352 74.19045443 76.38037109 54.95605469 C75.84669922 54.43785156 75.31302734 53.91964844 74.76318359 53.38574219 C74.24498047 52.85207031 73.72677734 52.31839844 73.19287109 51.76855469 C66.02454933 47.0787713 58.30553907 46.82560942 49.9777832 46.87255859 C48.81889084 46.86730164 47.65999847 46.86204468 46.46598816 46.85662842 C42.65736178 46.84348696 38.84915755 46.85214556 35.04052734 46.86230469 C32.38212062 46.86028242 29.72372645 46.85737382 27.06532288 46.85360718 C21.50321933 46.84816503 15.94123569 46.85530134 10.37915039 46.86962891 C3.96531573 46.8859606 -2.44823285 46.88065711 -8.86206061 46.86414969 C-14.38846078 46.85050028 -19.91477525 46.84863173 -25.44118685 46.8564657 C-28.73336422 46.8611223 -32.02537904 46.86062997 -35.31755257 46.85185623 C-38.98883398 46.84421792 -42.65956966 46.85587992 -46.33081055 46.87255859 C-47.94959106 46.86344955 -47.94959106 46.86344955 -49.60107422 46.85415649 C-57.16513076 46.91765615 -63.97780379 47.8599916 -69.92431641 53.01074219 Z " fill="#FFFFFF" transform="translate(508.11181640625,136.7392578125)"/>
<path d="M0 0 C32.27667603 23.85046415 42.02652674 80.21723139 47.58203125 116.921875 C57.98317873 189.22076026 63.93248461 289.47028479 18.015625 351.1796875 C14.69466774 355.26447596 11.09436712 359.05796567 7.38378906 362.78808594 C6.17573811 364.01683155 5.01004559 365.28691393 3.8515625 366.5625 C-29.49927715 402.48869406 -86.07056335 414.96956811 -132.17578125 423.4765625 C-132.98153658 423.62558958 -133.78729191 423.77461666 -134.61746407 423.92815971 C-156.23805903 427.9053416 -177.98667015 431.00681993 -199.74084473 434.14941406 C-228.58753159 438.29143324 -228.58753159 438.29143324 -257.28125 443.36328125 C-259.07096474 443.71127525 -259.07096474 443.71127525 -260.89683533 444.06629944 C-293.84792759 450.66527363 -334.84132957 459.10866228 -355.8671875 487.921875 C-366.70983177 504.60594386 -364.984375 520.98695846 -364.984375 541.1796875 C-403.594375 541.1796875 -442.204375 541.1796875 -481.984375 541.1796875 C-481.984375 439.0575501 -481.984375 439.0575501 -453.984375 405.1796875 C-453.30890625 404.34179688 -452.6334375 403.50390625 -451.9375 402.640625 C-423.77229565 369.43857753 -374.38293298 357.74745107 -333.984375 348.1796875 C-333.31438477 348.02046814 -332.64439453 347.86124878 -331.95410156 347.69720459 C-297.44753606 339.53174238 -262.40462052 333.96734424 -227.45851135 328.06057739 C-151.27767101 320.51918756 -151.27767101 320.51918756 -88.796875 284.1171875 C-73.38843605 261.58540277 -69.91043513 230.22394306 -69.78125 203.5546875 C-69.77423569 202.57757812 -69.76722137 201.60046875 -69.75999451 200.59375 C-69.74258741 197.45568171 -69.73614169 194.31780231 -69.734375 191.1796875 C-69.73370026 190.1062207 -69.73302551 189.03275391 -69.73233032 187.92675781 C-69.77332233 146.87038698 -73.84362694 97.77686496 -102.50390625 65.640625 C-103.93958383 64.07294909 -103.93958383 64.07294909 -105.984375 63.1796875 C-106.38601744 60.09041898 -106.52821147 57.25792031 -105.984375 54.1796875 C-103.63463718 51.99997412 -102.09555962 50.97784723 -99.296875 49.6171875 C-98.55356934 49.21846436 -97.81026367 48.81974121 -97.04443359 48.40893555 C-95.33926912 47.49529709 -93.62638823 46.59597342 -91.90771484 45.70800781 C-88.09610698 43.71530151 -84.34175058 41.62496899 -80.58332825 39.53410339 C-79.69407906 39.03950371 -79.69407906 39.03950371 -78.78686523 38.53491211 C-78.18429901 38.19974579 -77.58173279 37.86457947 -76.96090698 37.51925659 C-73.82579357 35.78016803 -70.68220712 34.05654861 -67.5390625 32.33203125 C-60.4259652 28.42690271 -53.32781623 24.49543084 -46.234375 20.5546875 C-45.13923584 19.94850586 -44.04409668 19.34232422 -42.91577148 18.71777344 C-37.82582585 15.89567007 -32.74858052 13.05566577 -27.70889282 10.14483643 C-25.97504345 9.14381588 -24.23803087 8.14828074 -22.50097656 7.15283203 C-20.33657769 5.91063597 -18.17799417 4.65823237 -16.02636719 3.39404297 C-15.05731445 2.83990723 -14.08826172 2.28577148 -13.08984375 1.71484375 C-12.24574951 1.2237915 -11.40165527 0.73273926 -10.53198242 0.22680664 C-6.93777535 -1.25048652 -3.6265951 -1.49918302 0 0 Z " fill="#FFFFFF" transform="translate(879.984375,310.8203125)"/>
<path d="M0 0 C0 39.93 0 79.86 0 121 C-20.295 122.485 -20.295 122.485 -41 124 C-64.39712996 126.84559689 -87.10746839 130.61884442 -110 136 C-111.25490234 136.29213379 -112.50980469 136.58426758 -113.80273438 136.88525391 C-147.36188476 144.81113045 -180.11270068 155.92721153 -212 169 C-213.14194824 169.46696289 -214.28389648 169.93392578 -215.46044922 170.41503906 C-242.50646425 181.55869422 -269.38514047 193.84890983 -295 208 C-295.90556641 208.49467773 -296.81113281 208.98935547 -297.74414062 209.49902344 C-320.38013506 221.87784944 -342.41427348 235.1258359 -363.875 249.4375 C-364.48540131 249.84429993 -365.09580261 250.25109985 -365.72470093 250.67022705 C-401.0231448 274.24876712 -434.78620669 300.31255647 -465.93603516 329.17138672 C-467.8558878 330.94821227 -469.78554809 332.71142782 -471.72460938 334.4675293 C-478.88546807 340.95877046 -485.80821924 347.65198491 -492.62915039 354.4987793 C-494.32519726 356.20023778 -496.02659821 357.89621263 -497.72851562 359.59179688 C-503.36799738 365.22784267 -508.82508573 370.92944465 -514 377 C-515.61967817 378.77570221 -517.24411718 380.54708307 -518.875 382.3125 C-522.91402153 386.74631311 -526.77506878 391.28054584 -530.5390625 395.94921875 C-532.33280236 398.17288674 -534.13872383 400.38198478 -535.9609375 402.58203125 C-554.16403162 424.62781421 -570.84601655 448.13996417 -585 473 C-585.60618164 474.06226807 -585.60618164 474.06226807 -586.22460938 475.14599609 C-591.79507687 484.94909188 -597.07506394 494.85658864 -602 505 C-605.52327843 503.82557386 -605.90841474 503.05284072 -607.87573242 500.02197266 C-608.4302861 499.17663971 -608.98483978 498.33130676 -609.55619812 497.46035767 C-610.14995743 496.53758026 -610.74371674 495.61480286 -611.35546875 494.6640625 C-611.97593582 493.71493988 -612.59640289 492.76581726 -613.235672 491.78793335 C-615.22736293 488.73859145 -617.20792729 485.68221989 -619.1875 482.625 C-621.78115281 478.63540335 -624.37941598 474.64883814 -626.98046875 470.6640625 C-627.60208389 469.71067993 -628.22369904 468.75729736 -628.864151 467.77502441 C-632.58476247 462.09099373 -636.37975536 456.5085824 -640.45947266 451.07470703 C-642.11339403 448.84728645 -643.6536732 446.56137613 -645.1875 444.25 C-653.27769549 432.63992447 -663.41019161 422.3692413 -673 412 C-673.95021812 410.95794167 -674.89942273 409.91495832 -675.84765625 408.87109375 C-682.79101893 401.23232495 -689.7911007 393.74725483 -697.640625 387.0234375 C-699.43661475 385.48316814 -701.21471882 383.92201654 -702.984375 382.3515625 C-724.70949592 363.18611182 -747.52911871 349.04465118 -775.20703125 340.30664062 C-776.32722656 339.93603516 -777.44742187 339.56542969 -778.6015625 339.18359375 C-779.61557129 338.85931396 -780.62958008 338.53503418 -781.67431641 338.20092773 C-784 337 -784 337 -784.88696289 334.97265625 C-785.03536955 332.38275171 -784.45318813 331.55246628 -782.8125 329.5625 C-777.46113532 323.70747747 -768.42136971 320.45543009 -760.58203125 319.796875 C-716.27390565 319.04694904 -666.49725346 345.38833618 -634.74609375 374.52734375 C-630.30263956 378.52834873 -625.68760498 382.29005849 -621 386 C-619.98421875 386.81082031 -618.9684375 387.62164062 -617.921875 388.45703125 C-612.44849488 392.71334066 -607.6880679 396.07074964 -601 398 C-600.72776611 397.41766602 -600.45553223 396.83533203 -600.17504883 396.23535156 C-599.01361796 394.0259061 -597.73425188 392.1988564 -596.19921875 390.234375 C-595.36136841 389.15845093 -595.36136841 389.15845093 -594.5065918 388.06079102 C-593.9062915 387.29822998 -593.30599121 386.53566895 -592.6875 385.75 C-592.06593018 384.95585693 -591.44436035 384.16171387 -590.80395508 383.34350586 C-585.0967563 376.07461062 -579.28648727 368.89156025 -573.42822266 361.74414062 C-572.13995352 360.17091076 -570.85677275 358.59351752 -569.57421875 357.015625 C-565.14099879 351.56662285 -560.63561192 346.18460067 -556.08325195 340.83520508 C-553.19081537 337.43017203 -550.36171074 333.98256237 -547.5625 330.5 C-543.18665755 325.11857796 -538.50691185 320.06001431 -533.77734375 314.9921875 C-531.61922281 312.67759738 -529.5082619 310.33104254 -527.4375 307.9375 C-523.76169602 303.69618772 -519.97532024 299.55868009 -516.16821289 295.43530273 C-514.17221337 293.27319774 -512.18234931 291.10573921 -510.19702148 288.93383789 C-499.87726634 277.70701279 -489.09502564 266.9411142 -478.30273438 256.17236328 C-475.63694412 253.51232114 -472.97574218 250.84774054 -470.31579781 248.18185425 C-468.23451283 246.09693484 -466.15082659 244.01442831 -464.06643295 241.93261719 C-463.08425775 240.95110061 -462.10280116 239.96886431 -461.12213516 238.98583984 C-456.12758317 233.98188975 -451.10372413 229.07790658 -445.72628784 224.48474121 C-442.73559399 221.91251293 -439.87712223 219.19770892 -437 216.5 C-432.07477245 211.90792668 -427.11526183 207.38057432 -422 203 C-420.93082507 202.07701345 -419.86183204 201.15381618 -418.79296875 200.23046875 C-411.61648258 194.04220706 -404.36202134 187.96711203 -397 182 C-395.73922178 180.96919206 -394.47883109 179.93791001 -393.21875 178.90625 C-384.92105288 172.12195674 -376.54686907 165.46902805 -368 159 C-367.39220703 158.53770996 -366.78441406 158.07541992 -366.15820312 157.59912109 C-355.93537943 149.82821831 -345.53873293 142.33580894 -335 135 C-334.34563965 134.54270508 -333.6912793 134.08541016 -333.01708984 133.61425781 C-307.86520746 116.05408459 -281.87703208 99.78383679 -255 85 C-253.90768066 84.39897461 -252.81536133 83.79794922 -251.68994141 83.17871094 C-203.41844501 56.73103026 -152.85296717 35.41207631 -100 20 C-98.17952148 19.46898682 -98.17952148 19.46898682 -96.32226562 18.92724609 C-30.48991084 0 -30.48991084 0 0 0 Z " fill="#FFFFFF" transform="translate(1127,97)"/>
<path d="M0 0 C10.05397689 8.98619454 18.7929548 18.60196717 26 30 C26.41443359 30.64517578 26.82886719 31.29035156 27.25585938 31.95507812 C47.06725076 63.09582797 55.6764375 99.73611955 60 136 C60.11859375 136.98323242 60.2371875 137.96646484 60.359375 138.97949219 C65.40468981 183.38126564 65.25541184 234.05438672 52 277 C51.79568359 277.66241699 51.59136719 278.32483398 51.38085938 279.00732422 C45.43796474 297.61424434 35.4118595 315.22563218 24 331 C23.28585937 331.99515625 22.57171875 332.9903125 21.8359375 334.015625 C12.88771618 346.18520599 3.28882093 357.94018215 -7 369 C4.01326723 387.06175826 26.05663129 399.32723236 46.125 404.4375 C54.33467558 406.26094721 62.6345247 407.21314836 71 408 C73.12352569 416.44793917 70.66757891 425.26157467 66.52734375 432.75 C60.94473664 440.97399411 52.21468019 445.32374777 42.66723633 447.54199219 C21.08069703 451.2487517 -1.72297877 447.19822428 -19.9375 435.0390625 C-31.16645804 426.93900683 -40.83414776 417.34695233 -50.25 407.25 C-52.25590476 405.11874089 -54.26283439 402.98845165 -56.27001953 400.85839844 C-57.72465156 399.2957878 -59.14575526 397.70206046 -60.55859375 396.1015625 C-63.63852951 392.88034528 -65.5168929 391.13517407 -70.04296875 390.72265625 C-73.42792871 390.94091275 -76.65395922 391.44474594 -80 392 C-124.45024877 397.51841887 -170.32893206 390.59221978 -206.984375 363.8203125 C-248.57951629 331.00102472 -266.52463338 279.50037139 -272.86889648 228.38989258 C-274.84672277 210.97397635 -275.48591817 193.76804194 -275.375 176.25 C-275.37067963 174.94703979 -275.36635925 173.64407959 -275.36190796 172.30163574 C-275.16714454 122.07495451 -269.90292702 71.62746255 -239 30 C-238.319375 29.07832031 -237.63875 28.15664062 -236.9375 27.20703125 C-226.26142975 13.51820633 -213.53112625 1.48049466 -199 -8 C-198.34451172 -8.43006348 -197.68902344 -8.86012695 -197.01367188 -9.30322266 C-180.4076823 -20.02359562 -162.27811088 -26.84915284 -143 -31 C-142.26507324 -31.16371094 -141.53014648 -31.32742187 -140.77294922 -31.49609375 C-93.56735899 -41.57217122 -37.13257102 -31.72646637 0 0 Z M-144 22 C-144.60134766 22.29471191 -145.20269531 22.58942383 -145.82226562 22.89306641 C-174.80523806 37.36270616 -195.65450605 64.17753119 -205.875 94.625 C-214.7935717 122.42408565 -215.22209181 152.14314928 -215.1875 181.125 C-215.18689575 182.06743561 -215.1862915 183.00987122 -215.18566895 183.98086548 C-215.10397736 231.0486681 -209.65231115 283.72925638 -175.3125 319.1875 C-156.1269562 338.22233979 -129.73210218 345.25929056 -103.30419922 345.18139648 C-77.62948415 344.777141 -57.25353876 337.03460576 -39 319 C-38.35675781 318.42894531 -37.71351563 317.85789062 -37.05078125 317.26953125 C-30.77185234 311.57605026 -26.41278062 304.15962061 -22 297 C-21.64260742 296.42282227 -21.28521484 295.84564453 -20.91699219 295.25097656 C11.17089217 242.30442913 11.14758612 166.7323452 -3.08154297 108.53320312 C-12.06035511 73.99270093 -26.74338721 44.14103859 -58.00585938 25.15039062 C-84.63926642 9.78596677 -116.31894107 8.33511177 -144 22 Z " fill="#FFFFFF" transform="translate(1490,172)"/>
<path d="M0 0 C6.6997552 5.96550188 10.16290193 14.9296514 13.69018555 22.97070312 C14.14329102 23.96650391 14.59639648 24.96230469 15.06323242 25.98828125 C24.18304282 46.57229476 31.19609608 68.08084818 38.18237305 89.45898438 C38.49423616 90.41323492 38.80609928 91.36748547 39.1274128 92.35065269 C42.03332798 101.25059203 44.92635914 110.15469969 47.80883789 119.06225586 C54.14937258 138.64215017 60.49220295 158.18439111 68.07299805 177.32617188 C68.33285366 177.98308832 68.59270927 178.64000477 68.8604393 179.31682777 C72.29267934 187.94501939 76.03488991 196.38965429 80.00268555 204.78320312 C86.43401627 189.08665557 92.3581714 173.21156161 98.23226929 157.30084229 C101.08968533 149.5617309 103.95806082 141.82667798 106.8269043 134.09179688 C107.1217679 133.29662659 107.41663151 132.5014563 107.72043037 131.68218994 C115.39232092 110.99793398 123.17479329 90.35550422 130.97338867 69.71875 C132.03141833 66.91865264 133.0893358 64.11851291 134.1472168 61.31835938 C134.40237186 60.64312855 134.65752693 59.96789772 134.92041397 59.27220535 C138.25252383 50.4522495 141.55644558 41.62233383 144.8269043 32.77929688 C145.53233615 30.87677065 146.23781883 28.97426326 146.94335938 27.07177734 C148.18470256 23.72356308 149.41646049 20.37205937 150.64208984 17.01806641 C151.17597465 15.57635801 151.71020937 14.13477911 152.24487305 12.69335938 C152.907854 10.88557007 152.907854 10.88557007 153.58422852 9.04125977 C156.82300509 1.60210771 160.24605145 -1.46875689 167.4362793 -4.83007812 C179.35597337 -9.4647894 191.75439114 -11.39467074 204.50268555 -11.46679688 C205.41405273 -11.48742187 206.32541992 -11.50804687 207.2644043 -11.52929688 C212.91859799 -11.56193291 217.09495449 -11.14560412 222.00268555 -8.21679688 C222.82519531 -6.38574219 222.82519531 -6.38574219 223.00268555 -4.21679688 C222.14501953 -2.09570312 222.14501953 -2.09570312 220.7487793 0.22070312 C220.23130127 1.10024658 219.71382324 1.97979004 219.18066406 2.88598633 C218.60630615 3.84206787 218.03194824 4.79814941 217.44018555 5.78320312 C191.57911591 50.32308717 174.70567427 99.00583847 157.02914429 147.19592285 C139.59154319 194.72794202 121.94785544 242.31611583 100.26049805 288.10742188 C99.13079753 290.51066676 98.0282749 292.92340896 96.94018555 295.34570312 C86.12375797 319.28105136 72.70797248 342.17912843 54.00268555 360.78320312 C53.10936523 361.67652344 52.21604492 362.56984375 51.2956543 363.49023438 C30.40019899 383.40669324 5.37398705 391.33209682 -23.0871582 391.07617188 C-32.99134547 390.80958834 -42.96022199 389.01829812 -51.99731445 384.78320312 C-56.04916889 376.67949424 -55.05341667 362.71343468 -52.80981445 354.22070312 C-51.11891137 349.36334473 -48.57358982 346.30336664 -44.10806274 343.66842651 C-41.76187493 342.68446252 -40.19533308 342.56333911 -37.6628418 342.61962891 C-36.39034073 342.63922165 -36.39034073 342.63922165 -35.09213257 342.65921021 C-34.18170197 342.68208099 -33.27127136 342.70495178 -32.33325195 342.72851562 C-30.38664471 342.75382634 -28.44002972 342.7785469 -26.4934082 342.80273438 C-23.43896063 342.85216543 -20.38492134 342.90792585 -17.33081055 342.97509766 C-14.37326681 343.03604331 -11.41622897 343.07122542 -8.45825195 343.10351562 C-7.55996674 343.13043488 -6.66168152 343.15735413 -5.73617554 343.18508911 C5.62992225 343.27365268 14.08687251 338.33855444 22.18237305 330.73632812 C29.05685126 323.64776582 33.5552482 315.5068694 38.00268555 306.78320312 C38.3575 306.08743164 38.71231445 305.39166016 39.07788086 304.67480469 C41.19845011 300.45912085 43.14743476 296.19559819 45.02563477 291.8671875 C45.98772469 289.81511365 47.08661862 287.92568857 48.2565918 285.98632812 C51.17180812 280.67835753 52.68541415 275.94731553 51.38012695 269.89794922 C49.14220769 262.98162579 46.10525015 256.39622266 43.09983826 249.78796387 C39.07438801 240.8721693 35.63258443 231.73196825 32.13861084 222.59814453 C30.51179094 218.35275356 28.86847118 214.11382318 27.22549438 209.87466431 C24.00340241 201.56032934 20.79290831 193.24153338 17.5881958 184.92048645 C-12.66434659 103.18208145 -12.66434659 103.18208145 -49.58129883 24.42773438 C-51.65488483 20.55513377 -53.65131317 16.64630411 -55.62231445 12.72070312 C-56.21270508 11.55410156 -56.8030957 10.3875 -57.41137695 9.18554688 C-62.44725675 -1.61802777 -62.44725675 -1.61802777 -62.18481445 -7.21679688 C-62.15774414 -7.97992188 -62.13067383 -8.74304688 -62.1027832 -9.52929688 C-62.06797852 -10.08617187 -62.03317383 -10.64304687 -61.99731445 -11.21679688 C-43.11115654 -14.81416029 -15.73624599 -11.92976226 0 0 Z " fill="#FFFFFF" transform="translate(2720.997314453125,288.216796875)"/>
<path d="M0 0 C15.29686923 -1.16671036 29.19445311 3.3715588 41.234375 12.73828125 C57.71518595 27.65405395 61.73580134 51.9683313 63 73 C63.16354646 78.47987771 63.19281034 83.95582967 63.1875 89.4375 C63.1882251 90.21588226 63.1889502 90.99426453 63.18969727 91.79623413 C63.18851396 103.50339645 62.73820267 115.13104937 62 126.8125 C61.15209151 140.42554483 60.75438476 154.01087437 60.70043945 167.65097046 C60.69195405 169.68324564 60.67845718 171.71550742 60.65942383 173.74771118 C60.49758331 192.96086417 60.89258936 215.03886169 74.828125 229.95703125 C86.9811788 241.73849888 102.36693556 243.41318513 118.53540039 243.36572266 C142.8390562 242.96284858 170.55952275 234.85728722 189.08203125 218.56640625 C191 217 191 217 194 216 C195.61978214 209.14344646 196.27524864 202.32909179 196.625 195.3125 C196.66488037 194.53680664 196.70476074 193.76111328 196.74584961 192.96191406 C197.24430985 181.59287639 197.07224706 170.21863349 196.71365356 158.84895325 C196.00990002 136.45797881 195.83173151 114.06178574 195.76782227 91.66119385 C195.75752521 88.15733839 195.74017183 84.65363174 195.71655273 81.14984131 C195.68880215 76.94504054 195.67682929 72.74045776 195.67592621 68.53556824 C195.67328003 66.97633646 195.66565107 65.41710298 195.6523819 63.85792542 C195.51490282 46.66496774 197.15092641 29.50397214 209 16 C222.43118744 4.66596288 237.87179836 2.06888411 255 3 C255.66 3.33 256.32 3.66 257 4 C257 95.08 257 186.16 257 280 C223.72614108 280 223.72614108 280 210.98046875 268.1171875 C204.08209369 260.71051112 201.35485319 252.70484952 199 243 C198.58492187 243.52207031 198.16984375 244.04414062 197.7421875 244.58203125 C175.94698081 270.61772794 140.25382322 284.76018182 107.06640625 287.71875 C82.86382175 289.51708445 57.05156659 286.1561656 37.28125 270.90234375 C34.75043133 268.68787741 32.36570276 266.3894389 30 264 C29.22914062 263.26265625 28.45828125 262.5253125 27.6640625 261.765625 C4.25024084 237.95225007 2.81644682 197.02527218 2.8671875 165.828125 C2.86586823 164.51885544 2.86454895 163.20958588 2.8631897 161.86064148 C2.8605283 158.37403026 2.86489327 154.88746468 2.87142944 151.40085983 C2.8750273 149.23355731 2.87662409 147.06626145 2.87768555 144.8989563 C2.88742772 128.90690006 2.93529712 112.92141265 3.5 96.9375 C4.26431018 74.9518556 4.90453532 53.41891108 1.39355469 31.61914062 C0.69499627 26.97017371 0.21321543 22.30240624 -0.25 17.625 C-0.38801025 16.34955322 -0.38801025 16.34955322 -0.52880859 15.04833984 C-1.0341004 9.82768576 -0.83379481 5.18143919 0 0 Z " fill="#FFFFFF" transform="translate(1620,277)"/>
<path d="M0 0 C0.8046474 -0.0095088 1.60929481 -0.01901761 2.43832546 -0.02881455 C5.12677752 -0.05199975 7.81236308 -0.02529256 10.50074768 0.00140381 C12.43114875 -0.00480917 14.36154213 -0.01403021 16.29191589 -0.02603149 C21.52982589 -0.04939407 26.76672487 -0.02880256 32.00456882 0.00101185 C37.48792451 0.02618856 42.9712257 0.01560811 48.45462036 0.01013184 C57.6640104 0.00654697 66.87300054 0.03109775 76.08229065 0.07269287 C86.72520713 0.12045632 97.36749092 0.12573119 108.01048511 0.10774255 C118.2525168 0.09125943 128.49432237 0.10311549 138.73633003 0.12847137 C143.09306256 0.13886662 147.44964082 0.13967495 151.80637932 0.13282013 C156.93906151 0.12615634 162.0710728 0.14442828 167.2036171 0.18183517 C169.08573624 0.19162947 170.96792144 0.19297523 172.85004997 0.18519211 C175.42290595 0.17598839 177.99374244 0.19765757 180.56640625 0.22705078 C181.30844046 0.21726141 182.05047466 0.20747204 182.81499475 0.19738603 C188.47613062 0.31339525 191.77036697 2.20251428 195.84669495 5.87542725 C201.0663917 11.86802027 204.21621288 18.41453122 203.75294495 26.46136475 C203.06633099 32.6510457 200.31055903 36.96016364 196.90919495 42.06292725 C196.32017395 42.97783936 195.73115295 43.89275146 195.12428284 44.83538818 C193.38364688 47.52810034 191.61809468 50.20288836 189.84669495 52.87542725 C188.95764506 54.24064308 188.06951675 55.60645985 187.18263245 56.9730835 C184.78565848 60.64082955 182.3309187 64.26630765 179.84669495 67.87542725 C179.38972229 68.5396167 178.93274963 69.20380615 178.46192932 69.88812256 C170.91769273 80.80633776 162.99733175 91.40403467 154.84669495 101.87542725 C154.35250061 102.51141846 153.85830627 103.14740967 153.34913635 103.80267334 C147.29279476 111.58648808 141.11928982 119.26437632 134.84669495 126.87542725 C133.45030188 128.58330308 132.05448326 130.29164874 130.65919495 132.00042725 C129.05570291 133.95931805 127.45165255 135.91773807 125.84669495 137.87542725 C125.32414124 138.51286865 124.80158752 139.15031006 124.26319885 139.80706787 C118.27881092 147.10251709 112.2867669 154.38707187 106.15919495 161.56292725 C101.95863188 166.48629956 97.94318481 171.53312729 93.97315979 176.64349365 C90.83872636 180.66105454 87.60024151 184.56940072 84.28419495 188.43792725 C78.90036922 194.73889241 73.83019521 201.25521312 68.84669495 207.87542725 C68.24711975 208.67029541 67.64754456 209.46516357 67.02980042 210.28411865 C63.76888681 214.60962226 60.51285184 218.93879609 57.2646637 223.27386475 C56.72607727 223.99235596 56.18749084 224.71084717 55.63258362 225.45111084 C54.14909948 227.46491775 52.68745116 229.49073733 51.2350769 231.52694702 C50.78712926 232.15475885 50.33918161 232.78257069 49.8776598 233.42940712 C49.5374414 233.90659376 49.197223 234.3837804 48.84669495 234.87542725 C49.49899834 234.87689381 50.15130173 234.87836037 50.82337189 234.87987137 C66.71558682 234.91696756 82.60754697 234.9760193 98.49958038 235.05932999 C106.18495013 235.09909276 113.87021789 235.13149921 121.55567932 235.14642334 C128.25649286 235.15945426 134.95708173 235.1864554 141.65776873 235.23004031 C145.20383743 235.2526231 148.74962938 235.26833987 152.29577637 235.2673111 C156.2602455 235.26642327 160.22415144 235.29673332 164.18849182 235.32952881 C165.35662415 235.32449844 166.52475647 235.31946808 167.72828674 235.31428528 C178.43331113 235.45117475 184.61032354 239.02379408 192.38575745 246.32073975 C200.31419944 254.55121763 207.15355684 263.89573558 206.94044495 275.68792725 C206.92690979 276.66374756 206.91337463 277.63956787 206.89942932 278.6449585 C206.88202698 279.38101318 206.86462463 280.11706787 206.84669495 280.87542725 C178.63981414 280.99215399 150.43296945 281.08036328 122.22589588 281.13448811 C109.12928005 281.16028556 96.03281416 281.1954658 82.93629456 281.25262451 C71.5232916 281.30241197 60.11039722 281.33470703 48.69728869 281.34586972 C42.6523426 281.3523963 36.60770716 281.3677681 30.56286049 281.40407753 C24.87557323 281.4379631 19.1887252 281.4484951 13.50134659 281.44096565 C11.4119357 281.44234352 9.32251044 281.45231996 7.23318672 281.47145462 C4.383624 281.49627614 1.53572673 281.49037212 -1.31387329 281.47669983 C-2.14364486 281.49126404 -2.97341644 281.50582824 -3.8283326 281.52083379 C-8.08470823 281.46550555 -9.67384075 281.25590295 -13.12495899 278.51729107 C-18.49765771 271.51950177 -17.68457296 263.29270319 -17.15330505 254.87542725 C-16.03429963 246.85006022 -14.10644971 240.29743549 -9.15330505 233.87542725 C-8.35537537 232.839021 -7.55744568 231.80261475 -6.7353363 230.73480225 C-4.85117564 228.3120185 -2.94896723 225.90451724 -1.03611755 223.5043335 C1.56553493 220.23888845 4.11999913 216.93979011 6.65919495 213.62542725 C10.69793936 208.35682423 14.76768884 203.11291264 18.84669495 197.87542725 C22.86138941 192.71988373 26.86770541 187.55858467 30.84669495 182.37542725 C35.42964212 176.40553554 40.05079982 170.46588232 44.67481995 164.527771 C48.07911924 160.15398647 51.47167088 155.77184017 54.84669495 151.37542725 C58.82568493 146.19226924 62.83207412 141.03102863 66.84669495 135.87542725 C72.54046028 128.56262155 78.20498142 121.22846054 83.84669495 113.87542725 C90.09188186 105.73586697 96.37059264 97.62366606 102.67384338 89.5289917 C106.07849399 85.15482014 109.47135355 80.77225354 112.84669495 76.37542725 C116.95309073 71.02756297 121.08305121 65.69837296 125.22169495 60.37542725 C126.11501526 59.22590576 126.11501526 59.22590576 127.02638245 58.05316162 C127.59356995 57.32419678 128.16075745 56.59523193 128.74513245 55.84417725 C129.49802551 54.87641357 129.49802551 54.87641357 130.26612854 53.88909912 C132.11093638 51.5387786 133.97906376 49.2076354 135.84669495 46.87542725 C135.21500648 46.87396069 134.58331802 46.87249413 133.93248749 46.87098312 C118.54097994 46.83388343 103.1497354 46.7748271 87.75841522 46.69152451 C80.31518201 46.65176537 72.87205405 46.61935709 65.4287262 46.60443115 C58.93885975 46.59139832 52.44922518 46.56439239 45.95948935 46.52081418 C42.52520124 46.49823561 39.09119874 46.48251437 35.65682983 46.4835434 C31.8167703 46.48117645 27.97761428 46.45411548 24.13771057 46.42132568 C23.0069812 46.42635605 21.87625183 46.43138641 20.71125793 46.43656921 C11.48714853 46.31485157 5.44084643 44.04319167 -1.21580505 37.37542725 C-7.61336809 30.73104465 -14.04185642 22.14053689 -14.59080505 12.62542725 C-14.65139099 11.898396 -14.71197693 11.17136475 -14.7743988 10.42230225 C-12.92202213 2.82639286 -7.45741225 -0.17012971 0 0 Z " fill="#FFFFFF" transform="translate(2421.153305053711,276.12457275390625)"/>
<path d="M0 0 C1.89922 -0.00457547 3.79843476 -0.01217454 5.69763184 -0.02256775 C10.85092817 -0.041659 16.00317389 -0.01695282 21.15636206 0.01667047 C26.55248727 0.04557633 31.94857238 0.03792231 37.34475708 0.03520203 C46.40872579 0.03619201 55.47228547 0.06462745 64.53613281 0.11035156 C75.00742799 0.16293827 85.47821294 0.17702861 95.94962585 0.1693185 C106.02932474 0.16239583 116.10885136 0.17828333 126.18851089 0.20607567 C130.47461208 0.21776491 134.76063275 0.22232331 139.04674911 0.22127724 C144.09810753 0.22140336 149.14899878 0.24179782 154.20022583 0.27766991 C156.05128685 0.28772855 157.90239869 0.29107588 159.75348282 0.28712463 C162.28633979 0.28289945 164.81786093 0.30340355 167.35055542 0.33003235 C168.07800394 0.32315582 168.80545246 0.31627929 169.55494487 0.30919439 C176.09074837 0.42586002 181.21754457 2.71118396 186.09814453 7.04174805 C186.72978516 7.78553711 187.36142578 8.52932617 188.01220703 9.2956543 C188.65931641 10.03686523 189.30642578 10.77807617 189.97314453 11.54174805 C193.70205752 16.73246495 194.60005936 21.63242582 193.63720703 27.8581543 C190.06813547 36.54571125 184.95253727 44.58795911 180.01220703 52.5456543 C179.66305237 53.11019318 179.31389771 53.67473206 178.9541626 54.25637817 C173.33596915 63.32908548 167.48002659 72.17788947 161.16308594 80.77905273 C159.51169412 83.02917316 157.87709472 85.29099232 156.24267578 87.5534668 C149.661397 96.61970951 142.85049998 105.43908867 135.72705078 114.0847168 C132.75881164 117.6902625 129.87849612 121.35888804 127.01220703 125.0456543 C122.56730859 130.74729725 117.94798208 136.27847146 113.25439453 141.77612305 C110.84224179 144.60498442 108.48300705 147.47390552 106.13720703 150.3581543 C102.83096288 154.4214633 99.46890838 158.43102998 96.07470703 162.4206543 C92.27200058 166.89473244 88.55544425 171.42177401 84.91064453 176.02612305 C83.12183775 178.25444764 81.31479415 180.46134242 79.48876953 182.65893555 C72.44881491 191.13161741 65.60635231 199.71207285 58.95751953 208.49487305 C56.60340898 211.60175975 54.22012754 214.68363484 51.81689453 217.75268555 C51.18203125 218.56358643 50.54716797 219.3744873 49.89306641 220.20996094 C48.66998545 221.76945266 47.44483514 223.3273244 46.21728516 224.88330078 C45.66234375 225.59172119 45.10740234 226.3001416 44.53564453 227.0300293 C43.8035376 227.95960449 43.8035376 227.95960449 43.05664062 228.90795898 C41.42980661 231.14310693 40.04746776 233.48176814 38.63720703 235.8581543 C39.31196894 235.85538892 39.98673084 235.85262354 40.68194008 235.84977436 C57.10738084 235.78349469 73.53277919 235.73386409 89.95832253 235.70271778 C97.90162588 235.68725495 105.84483991 235.66617665 113.78808594 235.63183594 C120.71216657 235.60191563 127.6361825 235.58257504 134.56032598 235.57588881 C138.22595375 235.57198099 141.89139647 235.5628094 145.55696487 235.54096413 C149.6510155 235.51676363 153.74474525 235.51618599 157.83886719 235.51757812 C159.05159302 235.5067923 160.26431885 235.49600647 161.51379395 235.4848938 C170.58579004 235.51833048 175.92330701 237.62396001 182.62158203 243.72143555 C191.57179538 253.20935551 197.98316123 266.68718389 197.63720703 279.8581543 C195.83248289 281.66287844 193.35995657 280.98876117 190.95656276 281.0012219 C190.13411421 281.00035541 189.31166566 280.99948893 188.46429443 280.99859619 C187.16360956 281.00305287 187.16360956 281.00305287 185.83664823 281.00759959 C182.90785358 281.0163264 179.97909962 281.01779819 177.05029297 281.01928711 C174.95976167 281.02391252 172.86923123 281.0289368 170.77870178 281.03433228 C165.08232628 281.04748618 159.38596257 281.05390721 153.68957424 281.05834293 C150.13379951 281.06126924 146.57802804 281.06537322 143.02225494 281.06984711 C131.90623512 281.08353078 120.79022271 281.0931928 109.67419505 281.097049 C96.82575346 281.10153009 83.97741824 281.11907679 71.12900901 281.14804959 C61.20966998 281.16964372 51.29036092 281.17975209 41.37099862 281.18109012 C35.44129878 281.1821399 29.5116988 281.18808436 23.58202362 281.20590973 C18.00394899 281.22235087 12.4260497 281.22456515 6.84795952 281.21577072 C4.79888122 281.21499818 2.74979364 281.21937144 0.70073891 281.22922897 C-2.09369992 281.2418853 -4.88751183 281.23610603 -7.6819458 281.22564697 C-8.49547146 281.23370338 -9.30899712 281.24175978 -10.14717507 281.25006032 C-14.74203484 281.20975773 -17.71275039 280.71170378 -21.36279297 277.8581543 C-26.83951482 271.44256585 -27.66883438 264.03742791 -27.23779297 255.8581543 C-26.10734797 246.02328281 -22.56530161 239.64977909 -16.16748047 232.21362305 C-12.63157177 228.06428972 -9.42377177 223.67085961 -6.17529297 219.2956543 C-0.69786515 211.94362817 4.86043103 204.66457774 10.50488281 197.44018555 C16.06029106 190.32775771 21.5425842 183.16089084 27.01513672 175.98461914 C29.78225871 172.3570405 32.55340515 168.73254015 35.32470703 165.1081543 C35.86877197 164.39651123 36.41283691 163.68486816 36.97338867 162.95166016 C40.99049221 157.699086 45.02118956 152.45714952 49.05517578 147.2175293 C53.70561023 141.17178307 58.33253947 135.10799214 62.96386719 129.04760742 C65.68753967 125.48386438 68.41242366 121.92104799 71.13720703 118.3581543 C72.22054641 116.94149225 73.30387974 115.52482558 74.38720703 114.1081543 C93.88720703 88.6081543 93.88720703 88.6081543 95.51318359 86.48193359 C96.59333426 85.06939141 97.67341273 83.65679401 98.75341797 82.24414062 C101.50984792 78.63890658 104.26763848 75.03472669 107.02783203 71.43237305 C107.8718457 70.33022461 107.8718457 70.33022461 108.73291016 69.20581055 C109.78320838 67.83434675 110.83393889 66.46321381 111.88525391 65.0925293 C115.06186556 60.94331512 118.2078835 56.77174177 121.34130859 52.58984375 C121.75583282 52.03686867 122.17035706 51.48389359 122.59744263 50.91416168 C123.61083236 49.56226035 124.62403852 48.21022142 125.63720703 46.8581543 C125.00367498 46.85576594 124.37014294 46.85337759 123.71741295 46.85091686 C108.29325783 46.79174858 92.86928296 46.71618694 77.44530296 46.62243938 C69.98633615 46.57749771 62.52741691 46.53807934 55.06835938 46.51171875 C48.56609095 46.48872541 42.06397327 46.45531259 35.56182444 46.40945274 C32.1198209 46.38553833 28.67796649 46.36679797 25.23588181 46.36054039 C21.39081219 46.35335479 17.54611593 46.3229042 13.70117188 46.29052734 C12.56325195 46.29196243 11.42533203 46.29339752 10.25292969 46.2948761 C0.41346705 46.17756128 -4.74106868 43.0740635 -11.89404297 36.4597168 C-15.79822295 32.34550182 -18.64618751 27.81595926 -21.36279297 22.8581543 C-21.72373047 22.20717773 -22.08466797 21.55620117 -22.45654297 20.88549805 C-24.59189121 16.54560047 -25.28079163 12.56242976 -24.36279297 7.8581543 C-20.52674499 -2.19452331 -8.84598042 -0.09707589 0 0 Z " fill="#FFFFFF" transform="translate(2159.36279296875,276.141845703125)"/>
<path d="M0 0 C663.96 0 1327.92 0 2012 0 C2012 2.97 2012 5.94 2012 9 C1348.04 9 684.08 9 0 9 C0 6.03 0 3.06 0 0 Z " fill="#FFFFFF" transform="translate(932,737)"/>
<path d="M0 0 C11.58341082 9.43763144 13.86434755 22.69479325 15.35595703 36.94311523 C16.52427879 49.5378367 16.66203941 62.20399571 16.66796875 74.84375 C16.66839802 75.54062361 16.66882729 76.23749722 16.66926956 76.9554882 C16.66691877 89.29143866 16.40706215 101.61466182 16.0625 113.9453125 C16.0380802 114.83403423 16.01366039 115.72275597 15.9885006 116.63840866 C15.76208754 124.8715169 15.53104584 133.10445766 15.27392578 141.33666992 C14.25941826 174.11149564 15.74491433 205.78845715 19.7578125 238.37890625 C20.32350427 242.98457211 20.87787776 247.59140714 21.42578125 252.19921875 C21.5559111 253.2271756 21.68604095 254.25513245 21.82011414 255.3142395 C22.57607446 261.67696969 23.18263862 267.52323929 19.5078125 273.12890625 C19.14558594 273.72445313 18.78335938 274.32 18.41015625 274.93359375 C15.38719605 277.10293674 12.112788 276.59578376 8.5703125 276.25390625 C5.91655745 275.79728848 3.41392734 275.29952439 0.8203125 274.62890625 C0.13001953 274.45141846 -0.56027344 274.27393066 -1.27148438 274.09106445 C-15.31100986 270.26461191 -25.17014102 263.49418104 -32.88671875 251.1953125 C-36.10973202 245.05118846 -37.79955642 239.62521203 -38.0859375 232.62426758 C-38.11844604 231.86566594 -38.15095459 231.1070643 -38.18444824 230.32547474 C-38.64724806 218.37377797 -38.74895413 206.40712542 -38.90200806 194.44837928 C-38.94929789 190.82596244 -39.0012508 187.20361228 -39.05273438 183.58125305 C-39.14995671 176.69751035 -39.243727 169.8137259 -39.33592987 162.9299143 C-39.44870404 154.51119389 -39.56374471 146.09250544 -39.6796875 137.67382812 C-39.68993769 136.92753088 -39.70018787 136.18123364 -39.71074867 135.41232133 C-39.82274692 127.26787824 -39.93790529 119.12349687 -40.0612793 110.97921753 C-40.07209502 110.26460275 -40.08291075 109.54998797 -40.09405422 108.8137182 C-40.13702752 105.97986147 -40.18008879 103.14600631 -40.2237606 100.31216025 C-40.35167174 92.00487047 -40.46059126 83.69772184 -40.53970337 75.3898077 C-40.58328658 71.11745019 -40.64187432 66.84539743 -40.70458984 62.57328224 C-40.72934921 60.64717025 -40.74726574 58.72095622 -40.7578125 56.79471397 C-40.77257487 54.20865546 -40.81095113 51.6240207 -40.85546875 49.03833008 C-40.85352005 48.29618319 -40.85157135 47.55403629 -40.8495636 46.7894001 C-40.93344522 43.3460091 -41.1815659 41.56605422 -43.35450745 38.83239746 C-51.32665416 32.76836292 -61.49252311 33.89967188 -70.9921875 34.06640625 C-72.49282509 34.08148233 -73.99347735 34.09516556 -75.49414062 34.10742188 C-79.13963202 34.14019143 -82.78456385 34.19181146 -86.4296875 34.25390625 C-86.46871101 31.86442321 -86.49711741 29.47558709 -86.51953125 27.0859375 C-86.53157593 26.41502075 -86.54362061 25.744104 -86.55603027 25.05285645 C-86.62727166 14.90870237 -82.68239277 8.61982685 -75.77734375 1.4453125 C-56.50036339 -16.54867416 -20.62353767 -14.8210954 0 0 Z " fill="#FFFFFF" transform="translate(2038.4296875,287.74609375)"/>
<path d="M0 0 C27.46116479 -0.24065286 27.46116479 -0.24065286 39.1640625 -0.29296875 C47.1506523 -0.32884059 55.1367743 -0.3712825 63.12304688 -0.45263672 C69.56158851 -0.51781435 75.99968772 -0.55370361 82.43853378 -0.56926346 C84.89538412 -0.5803524 87.35221016 -0.60200663 89.80887222 -0.63438034 C93.24957914 -0.6779197 96.68845659 -0.68393476 100.12939453 -0.68115234 C101.14575485 -0.702724 102.16211517 -0.72429565 103.20927429 -0.746521 C107.74501165 -0.70681611 111.09201312 -0.54623292 114.63684082 2.47216797 C117.86077907 6.38461485 117.80683654 10.23442574 117.68115234 15.12646484 C117.68187555 16.03910913 117.68259876 16.95175343 117.68334389 17.8920536 C117.67888199 20.83258903 117.63327795 23.77081301 117.5859375 26.7109375 C117.57711044 28.53164573 117.57099266 30.35236918 117.56762695 32.1730957 C117.53623142 38.90729673 117.45246337 45.64117133 117.375 52.375 C117.25125 67.43125 117.1275 82.4875 117 98 C78.39 98 39.78 98 0 98 C0 65.66 0 33.32 0 0 Z " fill="#FFFFFF" transform="translate(398,897)"/>
<path d="M0 0 C0.78503906 0.4125 1.57007813 0.825 2.37890625 1.25 C13.6222298 7.94653112 19.31934094 18.54912349 22.49609375 30.93408203 C27.48087341 52.1039469 27.0688883 76.96415563 16.25 96.25 C10.11940449 105.76614826 2.1349924 112.28538416 -8.86987305 115.55566406 C-19.66073539 117.80659466 -34.40168511 117.67927974 -44 112 C-49.3372449 108.49171752 -52.97517287 105.03103391 -57 100 C-57 121.45 -57 142.9 -57 165 C-64.26 165 -71.52 165 -79 165 C-79 109.89 -79 54.78 -79 -2 C-73.06 -2 -67.12 -2 -61 -2 C-59.0709714 -0.0709714 -59.33583217 3.35316649 -59 5.9375 C-58.51887678 10.62307486 -58.51887678 10.62307486 -57 15 C-56.64808594 14.49210938 -56.29617188 13.98421875 -55.93359375 13.4609375 C-49.79407277 4.90087431 -43.14994866 -0.83246046 -32.796875 -3.5859375 C-21.82576037 -5.2101528 -9.94164488 -5.29338829 0 0 Z M-49 23 C-58.52876111 37.47498826 -58.30768345 56.16445213 -55.6875 72.66796875 C-54.05591125 80.57561198 -51.23397147 87.63621677 -45 93 C-37.25270052 97.99236587 -28.60144717 99.34356377 -19.5625 97.50390625 C-11.95247921 95.22861287 -7.0968673 90.98611029 -3.09765625 84.18359375 C1.50082366 75.03572801 2.20259745 66.0164673 2.25 55.9375 C2.270625 54.86822266 2.29125 53.79894531 2.3125 52.69726562 C2.36894136 41.02095998 0.48681944 30.11928433 -7.5625 21.28515625 C-12.92846167 16.20488235 -19.08554082 13.93619404 -26.4375 13.625 C-34.97511858 13.9819736 -43.05719238 16.68659413 -49 23 Z " fill="#FFFFFF" transform="translate(1604,882)"/>
<path d="M0 0 C7.59 0 15.18 0 23 0 C23.0093457 3.17326904 23.01869141 6.34653809 23.02832031 9.6159668 C23.06218979 20.13730931 23.11779412 30.65845775 23.18390274 41.17964458 C23.22329797 47.55442474 23.25552555 53.9290684 23.27099609 60.30395508 C23.28621489 66.46385817 23.32075345 72.6233858 23.36830902 78.78312111 C23.38306897 81.12522925 23.3910379 83.46739102 23.39188385 85.80954552 C23.00699399 107.40713386 23.00699399 107.40713386 32.3125 126.35546875 C40.9543051 134.77722788 51.62048173 136.49102195 63.23901367 136.42382812 C72.45727681 136.1385583 82.3914988 133.8796192 89 127 C99.75260012 113.39362923 98.46653949 96.36558294 98.51171875 79.98046875 C98.52858926 77.66733359 98.54674265 75.35420747 98.56611633 73.04109192 C98.61336471 66.99306055 98.64333635 60.94506583 98.66955566 54.89691162 C98.69948884 48.70919562 98.745975 42.52160559 98.79101562 36.33398438 C98.87676225 24.22270811 98.94270181 12.11144429 99 0 C106.26 0 113.52 0 121 0 C121.11336574 14.32663961 121.20492628 28.65297692 121.25906086 42.97996521 C121.28505457 49.63397321 121.32026461 56.28756911 121.37719727 62.94140625 C121.43188252 69.37349606 121.46149733 75.80527484 121.47438622 82.23757935 C121.48356082 84.68056121 121.50147509 87.12352779 121.52865028 89.56637573 C121.72022558 107.51609754 121.28070495 123.70345579 109 138 C108.18208984 138.96486328 108.18208984 138.96486328 107.34765625 139.94921875 C98.0820059 149.99972418 84.50166732 155.38315573 70.98657227 156.17700195 C50.45831541 156.57381308 31.05665455 156.72139871 15.1875 141.75 C2.90895325 128.5944142 -0.17876178 112.82439607 -0.11352539 95.36132812 C-0.11367142 94.32628143 -0.11381744 93.29123474 -0.1139679 92.224823 C-0.11327504 88.8269435 -0.1055121 85.42911984 -0.09765625 82.03125 C-0.09578984 79.666138 -0.09436699 77.30102561 -0.09336853 74.93591309 C-0.08956089 68.72830121 -0.07974563 62.52071294 -0.06866455 56.31311035 C-0.05841267 49.97176432 -0.05386283 43.63041444 -0.04882812 37.2890625 C-0.03812174 24.85936299 -0.02053919 12.42968716 0 0 Z " fill="#FFFFFF" transform="translate(1364,842)"/>
<path d="M0 0 C11.31875311 8.89204079 17.70436878 21.65003085 20.0625 35.7109375 C22.47386519 56.18535115 20.85130335 76.76334957 8.390625 93.84765625 C0.67019033 102.98919748 -9.53689837 109.25136495 -21.50390625 110.9609375 C-38.54803327 112.38791615 -53.55000925 111.67658836 -67.50390625 100.9609375 C-68.37015625 100.3834375 -69.23640625 99.8059375 -70.12890625 99.2109375 C-82.83242399 87.17602596 -87.34035959 70.185961 -87.8581543 53.23413086 C-88.02206874 35.27874952 -84.36657465 17.99703522 -71.87890625 4.3984375 C-52.73274681 -13.12266211 -21.14488011 -14.54669546 0 0 Z M-54.50390625 16.9609375 C-65.12796032 29.3285453 -65.57872638 45.43315456 -64.50390625 60.9609375 C-63.36112566 69.9508115 -61.12728481 78.43690962 -54.50390625 84.9609375 C-54.02953125 85.44820312 -53.55515625 85.93546875 -53.06640625 86.4375 C-46.23271082 92.78837999 -38.92324494 93.51760268 -29.984375 93.31640625 C-23.06412691 92.60962446 -16.3480636 90.0742147 -11.50390625 84.9609375 C-0.76521451 70.47747121 -0.7951814 52.31283397 -3.0078125 35.0234375 C-5.23610598 25.0406827 -10.19866422 17.90504711 -18.50390625 11.9609375 C-30.15779949 6.38733639 -44.99935767 8.29012125 -54.50390625 16.9609375 Z " fill="#FFFFFF" transform="translate(1924.50390625,887.0390625)"/>
<path d="M0 0 C0.92941406 -0.01611328 1.85882812 -0.03222656 2.81640625 -0.04882812 C15.44241517 -0.05763287 25.93608124 4.37552975 35.3125 12.8125 C49.02781339 27.47178233 49.125 46.12578313 49.125 65.3125 C23.055 65.3125 -3.015 65.3125 -29.875 65.3125 C-27.2553681 82.8765092 -27.2553681 82.8765092 -16.875 96.3125 C-4.85588134 104.40553381 9.74694671 103.30807661 23.34448242 100.66796875 C28.41900397 99.59296897 33.19289034 98.04278067 37.98828125 96.08203125 C40.125 95.3125 40.125 95.3125 43.125 95.3125 C43.125 101.2525 43.125 107.1925 43.125 113.3125 C30.17444122 118.60412617 19.18268255 120.66295271 5.125 120.625 C3.93132813 120.64111328 2.73765625 120.65722656 1.5078125 120.67382812 C-12.4573422 120.68146771 -26.84818586 116.88564981 -37.29296875 107.05078125 C-50.73018916 92.28642796 -53.83884388 73.89640839 -53.02734375 54.59082031 C-51.88028398 37.43639439 -46.15289369 22.96453002 -33.5625 11.0625 C-23.56669937 2.52867021 -12.85784211 -0.04421541 0 0 Z M-21.875 26.3125 C-26.73344726 34.07203447 -28.1795028 39.9872654 -29.875 49.3125 C-11.065 49.3125 7.745 49.3125 27.125 49.3125 C26.12788927 38.34428196 24.79670435 28.65908998 16.125 21.3125 C4.87010398 13.49208771 -13.08846372 15.55446944 -21.875 26.3125 Z " fill="#FFFFFF" transform="translate(2886.875,877.6875)"/>
<path d="M0 0 C0.92941406 -0.01611328 1.85882812 -0.03222656 2.81640625 -0.04882812 C15.44241517 -0.05763287 25.93608124 4.37552975 35.3125 12.8125 C49.02781339 27.47178233 49.125 46.12578313 49.125 65.3125 C23.055 65.3125 -3.015 65.3125 -29.875 65.3125 C-27.2553681 82.8765092 -27.2553681 82.8765092 -16.875 96.3125 C-4.85588134 104.40553381 9.74694671 103.30807661 23.34448242 100.66796875 C28.41900397 99.59296897 33.19289034 98.04278067 37.98828125 96.08203125 C40.125 95.3125 40.125 95.3125 43.125 95.3125 C43.125 101.2525 43.125 107.1925 43.125 113.3125 C30.17444122 118.60412617 19.18268255 120.66295271 5.125 120.625 C3.93132812 120.64111328 2.73765625 120.65722656 1.5078125 120.67382812 C-12.4573422 120.68146771 -26.84818586 116.88564981 -37.29296875 107.05078125 C-50.73018916 92.28642796 -53.83884388 73.89640839 -53.02734375 54.59082031 C-51.88028398 37.43639439 -46.15289369 22.96453002 -33.5625 11.0625 C-23.56669937 2.52867021 -12.85784211 -0.04421541 0 0 Z M-21.875 26.3125 C-26.73344726 34.07203447 -28.1795028 39.9872654 -29.875 49.3125 C-11.065 49.3125 7.745 49.3125 27.125 49.3125 C26.12788927 38.34428196 24.79670435 28.65908998 16.125 21.3125 C4.87010398 13.49208771 -13.08846372 15.55446944 -21.875 26.3125 Z " fill="#FFFFFF" transform="translate(1165.875,877.6875)"/>
<path d="M0 0 C0.92941406 -0.01611328 1.85882812 -0.03222656 2.81640625 -0.04882812 C15.44241517 -0.05763287 25.93608124 4.37552975 35.3125 12.8125 C49.02781339 27.47178233 49.125 46.12578313 49.125 65.3125 C23.055 65.3125 -3.015 65.3125 -29.875 65.3125 C-27.2553681 82.8765092 -27.2553681 82.8765092 -16.875 96.3125 C-4.85588134 104.40553381 9.74694671 103.30807661 23.34448242 100.66796875 C28.41900397 99.59296897 33.19289034 98.04278067 37.98828125 96.08203125 C40.125 95.3125 40.125 95.3125 43.125 95.3125 C43.125 101.2525 43.125 107.1925 43.125 113.3125 C30.17444122 118.60412617 19.18268255 120.66295271 5.125 120.625 C3.93132813 120.64111328 2.73765625 120.65722656 1.5078125 120.67382812 C-12.4573422 120.68146771 -26.84818586 116.88564981 -37.29296875 107.05078125 C-50.73018916 92.28642796 -53.83884388 73.89640839 -53.02734375 54.59082031 C-51.88028398 37.43639439 -46.15289369 22.96453002 -33.5625 11.0625 C-23.56669937 2.52867021 -12.85784211 -0.04421541 0 0 Z M-21.875 26.3125 C-26.73344726 34.07203447 -28.1795028 39.9872654 -29.875 49.3125 C-11.065 49.3125 7.745 49.3125 27.125 49.3125 C26.12788927 38.34428196 24.79670435 28.65908998 16.125 21.3125 C4.87010398 13.49208771 -13.08846372 15.55446944 -21.875 26.3125 Z " fill="#FFFFFF" transform="translate(923.875,877.6875)"/>
<path d="M0 0 C7.26 0 14.52 0 22 0 C22.0093457 2.29477295 22.01869141 4.5895459 22.02832031 6.95385742 C22.06226285 14.58148237 22.11790633 22.20884168 22.18390274 29.83625317 C22.22321788 34.45554603 22.25548393 39.07465281 22.27099609 43.6940918 C22.28626877 48.16177488 22.32089911 52.62894583 22.36830902 57.09639931 C22.38301438 58.79096305 22.3910347 60.48559995 22.39188385 62.18022728 C22.15703625 78.58135354 22.15703625 78.58135354 28.72027588 93.11393738 C34.92498565 99.01431633 42.23462307 99.46064466 50.45703125 99.3046875 C57.58856198 98.69139158 62.89373643 96.57741903 67.875 91.375 C74.08653199 83.53733581 76.08509352 74.6302287 76.20532227 64.82299805 C76.21522186 64.12001083 76.22512146 63.41702362 76.23532104 62.69273376 C76.2667633 60.38242901 76.29162468 58.07210374 76.31640625 55.76171875 C76.33699072 54.15460188 76.35798758 52.54749024 76.37937927 50.94038391 C76.43444579 46.72036998 76.48392276 42.50030844 76.53222656 38.2802124 C76.58255451 33.96996854 76.6381815 29.6597934 76.69335938 25.34960938 C76.80075223 16.89979624 76.90174874 8.44992438 77 0 C84.59 0 92.18 0 100 0 C100 38.28 100 76.56 100 116 C94.06 116 88.12 116 82 116 C79.71428571 105.42857143 79.71428571 105.42857143 80 100 C79.0409375 100.99 79.0409375 100.99 78.0625 102 C77.0449089 103.00329909 76.02353769 104.00276819 75 105 C74.34515625 105.65097656 73.6903125 106.30195312 73.015625 106.97265625 C61.6076047 117.79409394 49.70767746 118.46863269 34.6796875 118.27734375 C28.5021364 118.0753119 23.38313135 117.14179121 18 114 C16.90558594 113.36384766 16.90558594 113.36384766 15.7890625 112.71484375 C7.3764081 107.10119518 2.90144314 98.39453519 0.43287659 88.79450989 C-0.14883827 85.03914875 -0.13085442 81.3272191 -0.11352539 77.5378418 C-0.11367142 76.6983046 -0.11381744 75.8587674 -0.1139679 74.99378967 C-0.11327326 72.22890608 -0.10550188 69.46409052 -0.09765625 66.69921875 C-0.09579048 64.77822405 -0.09436732 62.85722887 -0.09336853 60.93623352 C-0.08955591 55.88759033 -0.07973633 50.83897604 -0.06866455 45.79034424 C-0.05842345 40.63562409 -0.05386513 35.48089927 -0.04882812 30.32617188 C-0.03811293 20.21743319 -0.02052629 10.10872353 0 0 Z " fill="#FFFFFF" transform="translate(2606,880)"/>
<path d="M0 0 C7.26 0 14.52 0 22 0 C22.0093457 2.29477295 22.01869141 4.5895459 22.02832031 6.95385742 C22.06226285 14.58148237 22.11790633 22.20884168 22.18390274 29.83625317 C22.22321788 34.45554603 22.25548393 39.07465281 22.27099609 43.6940918 C22.28626877 48.16177488 22.32089911 52.62894583 22.36830902 57.09639931 C22.38301438 58.79096305 22.3910347 60.48559995 22.39188385 62.18022728 C22.15703625 78.58135354 22.15703625 78.58135354 28.72027588 93.11393738 C34.92498565 99.01431633 42.23462307 99.46064466 50.45703125 99.3046875 C57.58856198 98.69139158 62.89373643 96.57741903 67.875 91.375 C74.08653199 83.53733581 76.08509352 74.6302287 76.20532227 64.82299805 C76.21522186 64.12001083 76.22512146 63.41702362 76.23532104 62.69273376 C76.2667633 60.38242901 76.29162468 58.07210374 76.31640625 55.76171875 C76.33699072 54.15460188 76.35798758 52.54749024 76.37937927 50.94038391 C76.43444579 46.72036998 76.48392276 42.50030844 76.53222656 38.2802124 C76.58255451 33.96996854 76.6381815 29.6597934 76.69335938 25.34960938 C76.80075223 16.89979624 76.90174874 8.44992438 77 0 C84.59 0 92.18 0 100 0 C100 38.28 100 76.56 100 116 C94.06 116 88.12 116 82 116 C79.71428571 105.42857143 79.71428571 105.42857143 80 100 C79.0409375 100.99 79.0409375 100.99 78.0625 102 C77.0449089 103.00329909 76.02353769 104.00276819 75 105 C74.34515625 105.65097656 73.6903125 106.30195312 73.015625 106.97265625 C61.6076047 117.79409394 49.70767746 118.46863269 34.6796875 118.27734375 C28.5021364 118.0753119 23.38313135 117.14179121 18 114 C16.90558594 113.36384766 16.90558594 113.36384766 15.7890625 112.71484375 C7.3764081 107.10119518 2.90144314 98.39453519 0.43287659 88.79450989 C-0.14883827 85.03914875 -0.13085442 81.3272191 -0.11352539 77.5378418 C-0.11367142 76.6983046 -0.11381744 75.8587674 -0.1139679 74.99378967 C-0.11327326 72.22890608 -0.10550188 69.46409052 -0.09765625 66.69921875 C-0.09579048 64.77822405 -0.09436732 62.85722887 -0.09336853 60.93623352 C-0.08955591 55.88759033 -0.07973633 50.83897604 -0.06866455 45.79034424 C-0.05842345 40.63562409 -0.05386513 35.48089927 -0.04882812 30.32617188 C-0.03811293 20.21743319 -0.02052629 10.10872353 0 0 Z " fill="#FFFFFF" transform="translate(2381,880)"/>
<path d="M0 0 C7.26 0 14.52 0 22 0 C22.0093457 2.29477295 22.01869141 4.5895459 22.02832031 6.95385742 C22.06226285 14.58148237 22.11790633 22.20884168 22.18390274 29.83625317 C22.22321788 34.45554603 22.25548393 39.07465281 22.27099609 43.6940918 C22.28626877 48.16177488 22.32089911 52.62894583 22.36830902 57.09639931 C22.38301438 58.79096305 22.3910347 60.48559995 22.39188385 62.18022728 C22.15703625 78.58135354 22.15703625 78.58135354 28.72027588 93.11393738 C34.92498565 99.01431633 42.23462307 99.46064466 50.45703125 99.3046875 C57.58856198 98.69139158 62.89373643 96.57741903 67.875 91.375 C74.08653199 83.53733581 76.08509352 74.6302287 76.20532227 64.82299805 C76.21522186 64.12001083 76.22512146 63.41702362 76.23532104 62.69273376 C76.2667633 60.38242901 76.29162468 58.07210374 76.31640625 55.76171875 C76.33699072 54.15460188 76.35798758 52.54749024 76.37937927 50.94038391 C76.43444579 46.72036998 76.48392276 42.50030844 76.53222656 38.2802124 C76.58255451 33.96996854 76.6381815 29.6597934 76.69335938 25.34960938 C76.80075223 16.89979624 76.90174874 8.44992438 77 0 C84.59 0 92.18 0 100 0 C100 38.28 100 76.56 100 116 C94.06 116 88.12 116 82 116 C79.71428571 105.42857143 79.71428571 105.42857143 80 100 C79.0409375 100.99 79.0409375 100.99 78.0625 102 C77.0449089 103.00329909 76.02353769 104.00276819 75 105 C74.34515625 105.65097656 73.6903125 106.30195312 73.015625 106.97265625 C61.6076047 117.79409394 49.70767746 118.46863269 34.6796875 118.27734375 C28.5021364 118.0753119 23.38313135 117.14179121 18 114 C16.90558594 113.36384766 16.90558594 113.36384766 15.7890625 112.71484375 C7.3764081 107.10119518 2.90144314 98.39453519 0.43287659 88.79450989 C-0.14883827 85.03914875 -0.13085442 81.3272191 -0.11352539 77.5378418 C-0.11367142 76.6983046 -0.11381744 75.8587674 -0.1139679 74.99378967 C-0.11327326 72.22890608 -0.10550188 69.46409052 -0.09765625 66.69921875 C-0.09579048 64.77822405 -0.09436732 62.85722887 -0.09336853 60.93623352 C-0.08955591 55.88759033 -0.07973633 50.83897604 -0.06866455 45.79034424 C-0.05842345 40.63562409 -0.05386513 35.48089927 -0.04882812 30.32617188 C-0.03811293 20.21743319 -0.02052629 10.10872353 0 0 Z " fill="#FFFFFF" transform="translate(1976,880)"/>
<path d="M0 0 C28.38 0 56.76 0 86 0 C86 6.6 86 13.2 86 20 C64.88 20 43.76 20 22 20 C22 36.83 22 53.66 22 71 C41.8 71 61.6 71 82 71 C82 77.27 82 83.54 82 90 C62.2 90 42.4 90 22 90 C22 111.12 22 132.24 22 154 C14.74 154 7.48 154 0 154 C0 103.18 0 52.36 0 0 Z " fill="#FFFFFF" transform="translate(2268,842)"/>
<path d="M0 0 C8.25 0 16.5 0 25 0 C26.44375 2.908125 27.8875 5.81625 29.375 8.8125 C33.14255299 16.36735077 36.99688693 23.86914034 40.95092773 31.32788086 C43.5381442 36.21216338 46.09886012 41.10942575 48.63671875 46.01953125 C48.95079681 46.62694656 49.26487488 47.23436188 49.58847046 47.86018372 C51.14998554 50.88103696 52.70943121 53.90292838 54.26660156 56.92602539 C55.1227002 58.58299438 55.1227002 58.58299438 55.99609375 60.2734375 C56.50325928 61.25747559 57.0104248 62.24151367 57.53295898 63.25537109 C58.94224337 65.89194542 60.43855742 68.45114471 62 71 C65.49426109 65.59648172 68.60923522 60.096218 71.51171875 54.35546875 C71.92484818 53.54620438 72.3379776 52.73694 72.7636261 51.90315247 C74.07500396 49.3329938 75.38152361 46.76040687 76.6875 44.1875 C78.39796188 40.82591548 80.11044575 37.46536636 81.82421875 34.10546875 C82.24710175 33.27634979 82.66998474 32.44723083 83.10568237 31.59298706 C86.18832391 25.56072713 89.30765326 19.54846357 92.45703125 13.55078125 C93.07489754 12.37143257 93.07489754 12.37143257 93.70524597 11.16825867 C94.46308749 9.72999583 95.22863439 8.29575342 96.00361633 6.86665344 C96.85730739 5.26732438 97.64733415 3.63429367 98.42382812 1.99609375 C100 0 100 0 102.63549805 -0.56762695 C103.66715088 -0.54144287 104.69880371 -0.51525879 105.76171875 -0.48828125 C106.87998047 -0.47216797 107.99824219 -0.45605469 109.15039062 -0.43945312 C110.90125977 -0.37661133 110.90125977 -0.37661133 112.6875 -0.3125 C114.45577148 -0.27866211 114.45577148 -0.27866211 116.25976562 -0.24414062 C119.17444548 -0.18513901 122.08659161 -0.10286341 125 0 C123.4013272 5.8394635 120.45962812 10.68592629 117.4375 15.875 C111.91944739 25.48142795 106.66230838 35.19949757 101.5 45 C95.90028825 55.62450572 90.19327114 66.16215199 84.19726562 76.5703125 C83.71451172 77.41078125 83.23175781 78.25125 82.734375 79.1171875 C82.32413086 79.82472168 81.91388672 80.53225586 81.49121094 81.26123047 C80.75306152 82.61692139 80.75306152 82.61692139 80 84 C79.58478592 84.67141022 79.16957184 85.34282043 78.74177551 86.03457642 C74.55295629 93.34788066 74.2670536 99.79312024 74.29296875 108.1015625 C74.27028679 110.07798233 74.27028679 110.07798233 74.24714661 112.09432983 C74.20760997 115.56311757 74.19712678 119.03137982 74.19311523 122.50036621 C74.18372383 126.05378853 74.14627359 129.60690962 74.11132812 133.16015625 C74.04707268 140.1067699 74.01617031 147.05310946 74 154 C66.41 154 58.82 154 51 154 C51.03778564 152.30810547 51.07557129 150.61621094 51.11450195 148.87304688 C51.22577409 143.17342072 51.27383966 137.47497009 51.28240681 131.77440643 C51.28975214 128.3297602 51.31956545 124.88890789 51.40795898 121.4453125 C51.8794987 102.2197448 49.31487663 88.79350976 38.68112183 72.62890625 C35.86581751 68.22638705 33.45497595 63.60969019 31 59 C30.01224975 57.18650038 29.0228788 55.37388173 28.03125 53.5625 C24.29913965 46.72029769 20.58901213 39.86620314 16.8840332 33.00927734 C14.11240766 27.88346752 11.32567847 22.76677235 8.51171875 17.6640625 C7.95355469 16.64957031 7.39539062 15.63507812 6.8203125 14.58984375 C5.75221462 12.65040286 4.68073353 10.71282036 3.60546875 8.77734375 C3.13109375 7.91496094 2.65671875 7.05257812 2.16796875 6.1640625 C1.74797607 5.40561035 1.3279834 4.6471582 0.89526367 3.86572266 C0 2 0 2 0 0 Z " fill="#FFFFFF" transform="translate(1698,842)"/>
<path d="M0 0 C7.9789125 6.64909375 13.50019809 15.31918476 15.0625 25.71875 C15.97922728 37.62117636 14.68978682 49.51772506 6.75390625 58.9453125 C-0.72030901 66.78201857 -8.99421906 72.64222474 -20.16796875 72.95703125 C-37.16694762 73.33764379 -37.16694762 73.33764379 -43.9375 68.71875 C-44.97390625 68.06519531 -44.97390625 68.06519531 -46.03125 67.3984375 C-55.50007244 60.93278635 -60.78607136 51.28361466 -63.5546875 40.26171875 C-65.37408425 28.17572604 -63.99122656 15.9298989 -56.8125 5.78125 C-43.17801342 -9.96196014 -16.62402804 -12.11179186 0 0 Z " fill="#FFFFFF" transform="translate(2032.9375,159.28125)"/>
<path d="M0 0 C7.59 0 15.18 0 23 0 C27.50093845 10.12711151 27.50093845 10.12711151 29.1472168 14.73388672 C29.51828049 15.76722137 29.88934418 16.80055603 30.27165222 17.86520386 C30.66024918 18.95898346 31.04884613 20.05276306 31.44921875 21.1796875 C31.8661348 22.3458963 32.28305084 23.5121051 32.71260071 24.71365356 C33.59419041 27.18235961 34.47405469 29.65168243 35.35229492 32.12158203 C36.661816 35.80279927 37.97790426 39.48161541 39.29492188 43.16015625 C45.0829188 59.37079062 50.62699186 75.64771087 56 92 C56.3105835 90.83283447 56.62116699 89.66566895 56.94116211 88.46313477 C61.15439915 73.00988185 66.4364972 57.96887988 71.85534668 42.90734863 C72.80386821 40.26514393 73.74500754 37.62033608 74.68603611 34.97545528 C75.83003676 31.76228586 76.97954492 28.55109974 78.12890625 25.33984375 C78.54362686 24.17710434 78.95834747 23.01436493 79.38563538 21.81639099 C82.04110241 14.44338623 84.93478263 7.21261701 88 0 C95.59 0 103.18 0 111 0 C108.75016508 10.12425715 108.75016508 10.12425715 107.34619141 13.69458008 C106.87156967 14.91614304 106.87156967 14.91614304 106.38735962 16.16238403 C106.04554657 17.02274261 105.70373352 17.8831012 105.3515625 18.76953125 C104.98662689 19.70417206 104.62169128 20.63881287 104.24569702 21.60177612 C103.04469965 24.67436526 101.83483668 27.7433819 100.625 30.8125 C99.34789627 34.07257841 98.07310916 37.33355634 96.79852295 40.59461975 C95.90996396 42.86780094 95.02066994 45.14069495 94.13067627 47.41331482 C90.85248221 55.79123561 87.61519093 64.18424976 84.3984375 72.5859375 C83.94409332 73.77195053 83.48974915 74.95796356 83.02163696 76.17991638 C81.24265763 80.82520205 79.46437054 85.47074356 77.69073486 90.11807251 C76.46314988 93.3336464 75.23189532 96.5477942 74 99.76171875 C73.63828705 100.71271454 73.2765741 101.66371033 72.90390015 102.64352417 C72.5643631 103.52775055 72.22482605 104.41197693 71.875 105.32299805 C71.58367187 106.08565475 71.29234375 106.84831146 70.9921875 107.63407898 C69.79722096 110.48353683 68.3818361 113.2363278 67 116 C59.41 116 51.82 116 44 116 C40.71475262 108.19604843 37.55467951 100.36521911 34.55078125 92.44921875 C34.14000336 91.37152222 33.72922546 90.29382568 33.30599976 89.18347168 C31.97307603 85.68548072 30.64270964 82.18652387 29.3125 78.6875 C27.44081659 73.77056192 25.56809377 68.85402001 23.6953125 63.9375 C23.45927748 63.31756857 23.22324245 62.69763714 22.98005486 62.05891991 C19.54324174 53.03252918 16.08771695 44.01348262 12.6171875 35 C11.77691187 32.81552068 10.93666063 30.63103197 10.09643555 28.4465332 C8.89758002 25.32995448 7.69766333 22.21380705 6.49429321 19.09896851 C5.39302828 16.248078 4.29571944 13.39569433 3.19921875 10.54296875 C2.87214935 9.69980103 2.54507996 8.8566333 2.20809937 7.98791504 C0 2.22749764 0 2.22749764 0 0 Z " fill="#FFFFFF" transform="translate(987,880)"/>
<path d="M0 0 C7.26 0 14.52 0 22 0 C22 44.55 22 89.1 22 135 C44.44 135 66.88 135 90 135 C90 141.27 90 147.54 90 154 C60.3 154 30.6 154 0 154 C0 103.18 0 52.36 0 0 Z " fill="#FFFFFF" transform="translate(761,842)"/>
<path d="M0 0 C4.95 0 9.9 0 15 0 C15 8.58 15 17.16 15 26 C26.22 26 37.44 26 49 26 C49 31.61 49 37.22 49 43 C37.78 43 26.56 43 15 43 C15.09098808 54.86639016 15.09098808 54.86639016 15.20898438 66.73242188 C15.26314863 71.57768785 15.31426422 76.42284211 15.34643555 81.26831055 C15.37259614 85.17832144 15.41308666 89.08795352 15.46318626 92.99772835 C15.47976931 94.48347292 15.49133659 95.96928288 15.49761391 97.45510674 C15.39752953 109.08960883 15.39752953 109.08960883 19 120 C24.55826037 125.42269304 28.77654876 125.20669305 36.2890625 125.16796875 C41.05645707 124.95218142 45.36818502 124.12286424 50 123 C50 128.94 50 134.88 50 141 C42.23671114 143.40141014 35.48138718 144.47253674 27.375 144.375 C26.40304688 144.38660156 25.43109375 144.39820313 24.4296875 144.41015625 C14.98077069 144.37205578 7.66981822 142.53728288 0.72265625 135.94921875 C-8.12765843 125.9349171 -7.27920879 112.45670529 -7.1953125 99.93359375 C-7.1915763 98.28736036 -7.1887322 96.64112473 -7.18673706 94.99488831 C-7.17914833 90.68933838 -7.15954146 86.38392618 -7.1373291 82.07843018 C-7.11676739 77.67405052 -7.10771339 73.26964833 -7.09765625 68.86523438 C-7.07629046 60.24341974 -7.04114786 51.62174294 -7 43 C-12.28 43 -17.56 43 -23 43 C-23 39.37 -23 35.74 -23 32 C-20.73192796 30.9932996 -18.46092246 29.99448234 -16.1875 29 C-15.54490234 28.71382812 -14.90230469 28.42765625 -14.24023438 28.1328125 C-11.32243531 26.86288959 -9.21734286 26 -6 26 C-5.73445313 24.7934375 -5.46890625 23.586875 -5.1953125 22.34375 C-4.83859941 20.72915391 -4.48182532 19.11457129 -4.125 17.5 C-3.86396484 16.31277344 -3.86396484 16.31277344 -3.59765625 15.1015625 C-2.47864527 10.04529067 -1.27766555 5.01857819 0 0 Z " fill="#FFFFFF" transform="translate(2529,854)"/>
<path d="M0 0 C7.26 0 14.52 0 22 0 C22 53.79 22 107.58 22 163 C14.74 163 7.48 163 0 163 C0 109.21 0 55.42 0 0 Z " fill="#FFFFFF" transform="translate(1247,833)"/>
<path d="M0 0 C0.0278024 1.62489571 0.0467446 3.24994283 0.0625 4.875 C0.07410156 5.77992188 0.08570312 6.68484375 0.09765625 7.6171875 C-0.03191419 12.10550743 -0.51011055 16.53852648 -1 21 C-1.58378418 20.97905273 -2.16756836 20.95810547 -2.76904297 20.93652344 C-18.00360046 19.98245037 -18.00360046 19.98245037 -32 25 C-32.64839844 25.4125 -33.29679687 25.825 -33.96484375 26.25 C-41.10977302 31.56715667 -43.9209902 39.46626766 -45.56468201 47.92480469 C-46.43219705 54.05314822 -46.36366587 60.2360184 -46.4140625 66.4140625 C-46.43281113 67.87951706 -46.45238718 69.34496124 -46.4727478 70.81039429 C-46.52368536 74.63411287 -46.56351417 78.45786631 -46.60089111 82.28173828 C-46.64117394 86.19702502 -46.69215443 90.11217162 -46.7421875 94.02734375 C-46.8384913 101.68480614 -46.922048 109.34232477 -47 117 C-54.26 117 -61.52 117 -69 117 C-69 78.72 -69 40.44 -69 1 C-63.06 1 -57.12 1 -51 1 C-49.515 10.405 -49.515 10.405 -48 20 C-46.2675 17.463125 -46.2675 17.463125 -44.5 14.875 C-34.34389672 1.01930043 -16.87692832 -5.4200057 0 0 Z " fill="#FFFFFF" transform="translate(2815,879)"/>
<path d="M0 0 C0.0278024 1.62489571 0.0467446 3.24994283 0.0625 4.875 C0.07410156 5.77992188 0.08570312 6.68484375 0.09765625 7.6171875 C-0.03191419 12.10550743 -0.51011055 16.53852648 -1 21 C-1.58378418 20.97905273 -2.16756836 20.95810547 -2.76904297 20.93652344 C-18.00360046 19.98245037 -18.00360046 19.98245037 -32 25 C-32.64839844 25.4125 -33.29679687 25.825 -33.96484375 26.25 C-41.10977302 31.56715667 -43.9209902 39.46626766 -45.56468201 47.92480469 C-46.43219705 54.05314822 -46.36366587 60.2360184 -46.4140625 66.4140625 C-46.43281113 67.87951706 -46.45238718 69.34496124 -46.4727478 70.81039429 C-46.52368536 74.63411287 -46.56351417 78.45786631 -46.60089111 82.28173828 C-46.64117394 86.19702502 -46.69215443 90.11217162 -46.7421875 94.02734375 C-46.8384913 101.68480614 -46.922048 109.34232477 -47 117 C-54.26 117 -61.52 117 -69 117 C-69 78.72 -69 40.44 -69 1 C-63.06 1 -57.12 1 -51 1 C-49.515 10.405 -49.515 10.405 -48 20 C-46.2675 17.463125 -46.2675 17.463125 -44.5 14.875 C-34.34389672 1.01930043 -16.87692832 -5.4200057 0 0 Z " fill="#FFFFFF" transform="translate(2185,879)"/>
</svg>
