<?xml version="1.0" encoding="UTF-8"?>
<svg version="1.1" xmlns="http://www.w3.org/2000/svg" width="3288" height="1187">
<path d="M0 0 C2.34807859 -0.00323041 4.69615701 -0.00659566 7.04423523 -0.01008606 C11.93257105 -0.01601678 16.82088936 -0.01793237 21.70922852 -0.01733398 C26.64123214 -0.01725295 31.57314244 -0.02417027 36.50512695 -0.0378418 C83.74835482 -0.16645471 83.74835482 -0.16645471 104.9296875 0.9921875 C105.61326136 1.02686441 106.29683521 1.06154133 107.00112343 1.09726906 C122.84045344 1.93623847 139.56304089 4.3338825 151.82421875 15.35546875 C163.55394762 28.62546504 165.03177271 46.97760589 164.94921875 63.85546875 C164.94728516 64.83136963 164.94535156 65.80727051 164.94335938 66.81274414 C164.8813007 77.61009129 164.38524738 88.38672417 163.82421875 99.16796875 C164.50683777 99.15781738 165.18945679 99.14766602 165.89276123 99.13720703 C174.50564353 99.06716762 183.06087838 99.50694482 191.65234375 100.04296875 C193.1373304 100.13296452 194.62233652 100.22263966 196.10736084 100.31201172 C199.97405573 100.54556565 203.84047463 100.78340931 207.70684814 101.0222168 C211.66898813 101.26615395 215.63137939 101.50593724 219.59375 101.74609375 C227.33748815 102.21603884 235.08093885 102.6905263 242.82421875 103.16796875 C242.95410156 110.90869141 242.95410156 110.90869141 241.78515625 113.2421875 C241.26179687 113.77457031 240.7384375 114.30695313 240.19921875 114.85546875 C239.56242188 115.5103125 238.925625 116.16515625 238.26953125 116.83984375 C237.46257813 117.608125 236.655625 118.37640625 235.82421875 119.16796875 C235.31987305 119.65458984 234.81552734 120.14121094 234.29589844 120.64257812 C227.60348319 127.08015624 220.71884532 133.1857422 213.46875 138.9921875 C210.66582627 141.29828575 207.994186 143.70948406 205.32421875 146.16796875 C200.95652383 150.18402722 196.45572639 153.96182329 191.83984375 157.6875 C188.27750377 160.61766306 184.79978968 163.63590197 181.32421875 166.66796875 C175.25117137 171.95543266 169.11463352 177.13921611 162.82421875 182.16796875 C162.04715576 182.80460449 162.04715576 182.80460449 161.25439453 183.45410156 C139.23664014 201.47872805 112.32158383 199.37332237 85.13671875 199.35546875 C83.97987579 199.35619385 82.82303284 199.35691895 81.63113403 199.35766602 C63.4012495 199.3564376 45.20191751 198.92267247 26.98425293 198.30935669 C-3.60058324 197.28293548 -34.16403844 196.94056042 -64.76615524 196.92120361 C-68.06792192 196.91801259 -71.36965929 196.91092985 -74.67141724 196.90283203 C-104.23591472 196.83857889 -133.76326346 196.94045341 -163.11328125 200.98046875 C-164.38067139 201.15078613 -165.64806152 201.32110352 -166.95385742 201.49658203 C-194.72087778 205.37283505 -233.11339739 211.18335429 -251.36328125 235.29296875 C-260.27231936 248.47396366 -270.49721943 263.92798413 -270.45425415 280.21652222 C-270.46004655 281.00977437 -270.46583895 281.80302653 -270.47180688 282.62031662 C-270.4887639 285.26889203 -270.49167967 287.91729273 -270.49462891 290.56591797 C-270.50393005 292.46826096 -270.514099 294.37059987 -270.52507019 296.27293396 C-270.55236324 301.43149641 -270.56751759 306.59003156 -270.58049822 311.74864721 C-270.59613175 317.14188104 -270.62292128 322.53505914 -270.64852905 327.92825317 C-270.69531285 338.13845577 -270.73205893 348.34866885 -270.76520193 358.55892384 C-270.80342609 370.18402741 -270.85283551 381.809075 -270.90318608 393.43413138 C-271.00650003 417.34536902 -271.09576222 441.25664261 -271.17578125 465.16796875 C-278.43880939 465.89128439 -285.67457808 466.38435897 -292.96801758 466.64868164 C-293.98411102 466.68784195 -295.00020447 466.72700226 -296.04708862 466.76734924 C-299.3672299 466.89458428 -302.68750961 467.01768593 -306.0078125 467.140625 C-308.33185144 467.22865566 -310.65588188 467.31691105 -312.97990417 467.40538025 C-317.83215942 467.58949712 -322.68448107 467.77170598 -327.53686523 467.95239258 C-333.75202653 468.18386459 -339.967047 468.41888692 -346.18202686 468.65517521 C-350.97322485 468.83715377 -355.76446911 469.01788704 -360.55573082 469.19817924 C-362.84784531 469.28446068 -365.13995077 469.3709824 -367.43204689 469.45775032 C-370.63149462 469.57855448 -373.83099549 469.69783385 -377.03051758 469.81665039 C-377.97349197 469.8524823 -378.91646637 469.88831421 -379.88801575 469.92523193 C-384.32035167 470.08824392 -388.73942161 470.20914126 -393.17578125 470.16796875 C-393.14548828 469.5531665 -393.11519531 468.93836426 -393.08398438 468.30493164 C-391.74248425 440.15148758 -391.95450494 412.14181705 -393.3509655 384.00422764 C-394.74138193 355.91931824 -395.50956947 327.85968475 -395.54592896 299.73999405 C-395.55070332 297.33226895 -395.56130853 294.92463523 -395.57348633 292.51693726 C-395.80416292 241.1920126 -388.61175151 193.65558039 -351.6015625 155.56640625 C-310.66040073 114.45592619 -249.59317592 102.25401882 -194.17578125 96.16796875 C-193.11987793 96.0479248 -192.06397461 95.92788086 -190.97607422 95.80419922 C-164.21350727 92.90358826 -137.04982183 93.98130232 -110.17578125 94.16796875 C-110.20476501 93.5445459 -110.23374878 92.92112305 -110.26361084 92.27880859 C-113.10676292 30.59050737 -113.10676292 30.59050737 -100.171875 15.890625 C-89.47340822 5.61320701 -76.36571569 3.20475108 -62.11328125 2.10546875 C-61.21029297 2.02748047 -60.30730469 1.94949219 -59.37695312 1.86914062 C-39.6229476 0.27245748 -19.80775923 0.00657887 0 0 Z M-48.05078125 53.29296875 C-48.58445312 53.81117188 -49.118125 54.329375 -49.66796875 54.86328125 C-57.75775329 67.22849597 -54.17578125 82.06811426 -54.17578125 96.16796875 C-2.36578125 96.16796875 49.44421875 96.16796875 102.82421875 96.16796875 C105.49976096 71.40014429 105.49976096 71.40014429 96.13671875 52.35546875 C88.48611212 47.30318135 81.01243831 46.72857788 72.02148438 46.77978516 C70.30018562 46.77189972 70.30018562 46.77189972 68.54411316 46.76385498 C64.77275752 46.75071376 61.00182825 46.75937261 57.23046875 46.76953125 C54.59688232 46.76750884 51.96329643 46.764596 49.32971191 46.76083374 C43.81888256 46.75539144 38.30817422 46.76252749 32.79736328 46.77685547 C26.44603161 46.79317915 20.09498895 46.78788955 13.74366426 46.77137625 C7.60817956 46.75606883 1.47282195 46.75775646 -4.66267395 46.76652145 C-7.26211081 46.76851764 -9.86155508 46.76608469 -12.46098328 46.75908279 C-16.09853439 46.75143404 -19.73553647 46.76312137 -23.37304688 46.77978516 C-24.43928787 46.77371246 -25.50552887 46.76763977 -26.6040802 46.76138306 C-34.21314151 46.8257099 -42.4570185 47.53222801 -48.05078125 53.29296875 Z " fill="#1A54A5" transform="translate(579.17578125,120.83203125)"/>
<path d="M0 0 C23.32407521 13.46108152 33.2930474 52.2452537 39.92480469 76.36328125 C44.55251434 93.97946483 47.5564533 111.96493402 50 130 C50.24991699 131.81951172 50.24991699 131.81951172 50.50488281 133.67578125 C55.75062098 174.12118275 55.84707687 218.65704165 50 259 C49.7831958 260.58772217 49.7831958 260.58772217 49.56201172 262.20751953 C43.30817348 307.18944575 28.89881776 348.78827179 -8.1796875 377.5 C-60.32230343 416.64135682 -129.9299099 423.89972221 -192.54176044 432.97550297 C-281.70948951 441.28206596 -281.70948951 441.28206596 -354.18359375 486.25390625 C-365.55548561 503.44625029 -365.66436046 521.02767452 -364 541 C-402.61 541 -441.22 541 -481 541 C-481 487.92663043 -481 487.92663043 -479 474 C-478.87109375 473.09813965 -478.7421875 472.1962793 -478.609375 471.26708984 C-473.93770244 440.06312881 -463.72428661 409.76892605 -437.97265625 389.6328125 C-434.7155341 387.30572152 -431.39835536 385.11236311 -428 383 C-427.42217773 382.63696777 -426.84435547 382.27393555 -426.24902344 381.89990234 C-368.98463862 346.44977663 -293.58896199 339.19985975 -228.59280205 328.2433815 C-222.92585221 327.28799411 -217.25975145 326.32765613 -211.59402657 325.3650322 C-206.92612503 324.57277541 -202.25610958 323.79392829 -197.58544922 323.01806641 C-137.06735525 315.35650681 -137.06735525 315.35650681 -88 284 C-59.98239033 239.05288185 -64.73312282 169.19595916 -76.16015625 119.828125 C-80.86348369 100.61648785 -87.86409684 75.87368653 -104.76171875 63.734375 C-106.87969199 60.7678762 -106.17481296 57.55453016 -106 54 C-48.47998047 22.04443359 -48.47998047 22.04443359 -46.70681763 21.05941772 C-45.52743217 20.40415396 -44.34813081 19.74873882 -43.16891479 19.09317017 C-40.29327728 17.49473854 -37.41598755 15.8994179 -34.53613281 14.30859375 C-29.5068454 11.52725666 -24.4988669 8.72452502 -19.55078125 5.80078125 C-18.73037354 5.32294189 -17.90996582 4.84510254 -17.06469727 4.3527832 C-15.58066264 3.48546585 -14.1049372 2.60367568 -12.64038086 1.70385742 C-8.02863279 -0.97007563 -5.13482033 -1.46357753 0 0 Z " fill="#1A54A5" transform="translate(973,295)"/>
<path d="M0 0 C0 39.93 0 79.86 0 121 C-16.17 122.32 -32.34 123.64 -49 125 C-59.75199487 126.44429782 -70.36715875 127.94245732 -81 130 C-81.70779602 130.13621765 -82.41559204 130.2724353 -83.14483643 130.41278076 C-141.27497806 141.67041796 -197.5856747 161.04448518 -250.98339844 186.56152344 C-254.0365639 188.01743562 -257.09927613 189.45154662 -260.1640625 190.8828125 C-285.61007657 202.83679156 -309.97525003 216.43919813 -334 231 C-335.36898437 231.82250244 -335.36898437 231.82250244 -336.765625 232.66162109 C-363.56260674 248.77290521 -389.3772816 266.73670414 -414 286 C-415.15083467 286.89219415 -416.30188232 287.78411363 -417.453125 288.67578125 C-423.86087895 293.65556188 -430.15068008 298.74551306 -436.31860352 304.01977539 C-439.646228 306.86500327 -443.02019984 309.63716303 -446.4375 312.375 C-451.45175024 316.45091102 -456.18042287 320.78852794 -460.87866211 325.22021484 C-463.7599179 327.93621158 -466.67125171 330.59131756 -469.67675781 333.16967773 C-474.17816052 337.10015935 -478.4103263 341.26606814 -482.62890625 345.49609375 C-483.42223862 346.28846939 -484.21557098 347.08084503 -485.03294373 347.89723206 C-486.69889081 349.56250283 -488.36359256 351.22902029 -490.02709961 352.89672852 C-492.55536134 355.43034622 -495.08891661 357.95858167 -497.62304688 360.48632812 C-499.2503207 362.11426283 -500.87728425 363.74250775 -502.50390625 365.37109375 C-503.62606285 366.490214 -503.62606285 366.490214 -504.77088928 367.63194275 C-509.38054991 372.26194217 -513.75442613 377.03501901 -518 382 C-518.94986436 383.09432016 -519.90027349 384.18816806 -520.8515625 385.28125 C-552.66426524 422.11999672 -579.46193943 461.84624285 -602 505 C-605.72569735 501.48901079 -608.64172736 497.84625243 -611.4140625 493.53515625 C-612.29298234 492.19396871 -613.17223412 490.85299865 -614.05175781 489.51220703 C-614.52391724 488.78833801 -614.99607666 488.06446899 -615.48254395 487.31866455 C-620.09778128 480.26660715 -624.79719071 473.26955371 -629.48535156 466.26586914 C-630.74484107 464.38070299 -632.00103127 462.49332837 -633.25390625 460.60375977 C-640.88374569 449.10225468 -648.70158099 438.20970102 -658 428 C-659.29719971 426.55065063 -659.29719971 426.55065063 -660.62060547 425.07202148 C-661.99756395 423.53479105 -663.37978013 422.00223739 -664.76953125 420.4765625 C-665.99592726 419.11485485 -667.2158473 417.7468277 -668.40478516 416.35229492 C-673.39913658 410.51853776 -678.75049318 405.06335924 -684.17773438 399.63696289 C-685.73860327 398.07391266 -687.29127888 396.50302635 -688.84375 394.93164062 C-695.23598146 388.50352548 -701.8675238 382.61357583 -709 377 C-710.20419674 376.02345552 -711.40748202 375.04578472 -712.609375 374.06640625 C-720.19910277 367.98166021 -728.00048253 362.34799297 -736.21777344 357.13916016 C-737.84145048 356.10134138 -739.44171413 355.02712093 -741.0390625 353.94921875 C-750.40517932 348.03315256 -760.67916767 344.75704424 -771.13525391 341.32421875 C-772.3629248 340.92074219 -773.5905957 340.51726562 -774.85546875 340.1015625 C-776.52065552 339.56523193 -776.52065552 339.56523193 -778.21948242 339.01806641 C-781 338 -781 338 -784 336 C-784.0625 333.375 -784.0625 333.375 -783 330 C-775.168744 323.00720824 -765.55080533 319.63569711 -755.16796875 319.7890625 C-710.86641443 322.73885773 -665.36180582 345.99329322 -633.0625 375.5 C-618.99693639 389.44116025 -618.99693639 389.44116025 -602.04296875 397.02734375 C-598.82836727 395.41082331 -597.03410647 392.64099766 -594.9375 389.8125 C-593.95986829 388.5310723 -592.98199691 387.24982742 -592.00390625 385.96875 C-591.50648926 385.31003906 -591.00907227 384.65132813 -590.49658203 383.97265625 C-588.15863907 380.8909957 -585.76805026 377.85144149 -583.375 374.8125 C-582.91665771 374.22903809 -582.45831543 373.64557617 -581.98608398 373.04443359 C-575.52503325 364.83301081 -568.85840989 356.80128215 -562.09033203 348.84228516 C-559.14019403 345.3675864 -556.24331771 341.85542205 -553.375 338.3125 C-549.80474131 333.92273353 -546.07117495 329.72172307 -542.2578125 325.54296875 C-539.87767687 322.86222776 -537.62268159 320.10495866 -535.375 317.3125 C-532.31103547 313.5250994 -529.14900283 310.03018528 -525.65234375 306.64453125 C-523.99154399 304.99158397 -522.46377609 303.27748362 -520.9375 301.5 C-513.28334212 292.63364517 -505.20626189 284.0805691 -496.84619141 275.87866211 C-495.12993055 274.13221576 -493.54348177 272.33598213 -491.9609375 270.46875 C-487.69278686 265.56108295 -483.11874074 260.96810637 -478.51196289 256.3815918 C-477.06475615 254.93974779 -475.62297974 253.49262884 -474.18164062 252.04492188 C-469.50417757 247.3644528 -464.76121946 242.82462394 -459.73608398 238.51782227 C-457.1935027 236.29489611 -454.85973553 233.91659663 -452.5 231.5 C-448.86440864 227.81511037 -445.15387033 224.29264096 -441.21484375 220.93359375 C-438.8865496 218.900956 -436.62823267 216.80584597 -434.36987305 214.69628906 C-428.94187947 209.62669587 -423.40728756 204.79818321 -417.61328125 200.14453125 C-415.00152377 198.00125044 -412.49634698 195.7761967 -410 193.5 C-404.82469797 188.79591856 -399.45060253 184.38007341 -394 180 C-393.42588379 179.5369043 -392.85176758 179.07380859 -392.26025391 178.59667969 C-357.26183337 150.37064449 -320.57446347 124.1332613 -282 101 C-280.62376465 100.17387207 -280.62376465 100.17387207 -279.21972656 99.33105469 C-205.53253538 55.29938273 -124.94205283 21.78925157 0 0 Z " fill="#1A54A5" transform="translate(1220,81)"/>
<path d="M0 0 C0.7153894 0.00182281 1.43077881 0.00364563 2.16784668 0.00552368 C14.60846813 0.0585426 26.7157944 0.89850886 38.9375 3.3125 C39.83388184 3.48942383 40.73026367 3.66634766 41.65380859 3.84863281 C79.40531317 11.57098616 111.18855867 31.97744388 132.55322266 64.28637695 C137.31453236 71.68054572 141.28130076 79.32420103 144.9375 87.3125 C145.45699219 88.41335937 145.97648437 89.51421875 146.51171875 90.6484375 C175.43409938 154.56613957 180.35514176 252.18977286 156.125 318.5 C152.97503978 326.72415967 149.12538441 334.57215997 144.9375 342.3125 C144.38884277 343.32715332 144.38884277 343.32715332 143.82910156 344.36230469 C134.96381204 360.52752253 123.8755896 375.29382964 111.9375 389.3125 C111.42848145 389.91030273 110.91946289 390.50810547 110.39501953 391.12402344 C106.92219533 395.19812786 103.43457825 399.25920287 99.9375 403.3125 C106.85102155 419.8817779 129.41465961 430.13281318 145.03515625 436.59375 C155.57515496 440.25983651 166.9026376 441.08499 177.9375 442.3125 C178.46898832 452.664654 177.49820549 461.3545249 170.75 469.625 C160.74749626 479.98852829 149.16261596 482.83198174 135.11328125 483.30859375 C111.65820492 483.60922978 89.73524557 474.71074586 72.90957642 458.33932495 C70.74031256 456.12805109 68.59940999 453.89301398 66.46875 451.64453125 C65.36620125 450.48903526 65.36620125 450.48903526 64.24137878 449.31019592 C61.19179799 446.1066687 58.14869665 442.89979155 55.15771484 439.64135742 C47.04650376 430.08081321 47.04650376 430.08081321 36.3359375 424.45458984 C32.9963471 424.70180243 30.1400432 425.35545784 26.9375 426.3125 C25.20072502 426.54066708 23.45740158 426.72405774 21.7109375 426.859375 C20.37434082 426.9821582 20.37434082 426.9821582 19.01074219 427.10742188 C12.20438889 427.56161132 5.38149013 427.55729608 -1.4375 427.5625 C-2.23485565 427.56317474 -3.0322113 427.56384949 -3.85372925 427.56454468 C-16.46341087 427.54763548 -28.70018461 427.00868943 -41.0625 424.3125 C-41.87412598 424.13557617 -42.68575195 423.95865234 -43.52197266 423.77636719 C-66.08862846 418.66743514 -87.40450628 409.42673171 -105.0625 394.3125 C-105.60358398 393.85504395 -106.14466797 393.39758789 -106.70214844 392.92626953 C-147.71338134 357.89233362 -163.81192468 300.27610176 -167.89941406 248.42041016 C-167.95323242 247.7247998 -168.00705078 247.02918945 -168.0625 246.3125 C-168.17335938 245.02730469 -168.28421875 243.74210938 -168.3984375 242.41796875 C-173.41764356 176.85408611 -167.91723147 105.47402945 -123.6875 53.625 C-92.33410962 17.84669915 -47.26437554 -0.25246586 0 0 Z M-25.0625 51.3125 C-25.69849121 51.51617187 -26.33448242 51.71984375 -26.98974609 51.9296875 C-43.43100695 57.41433977 -56.99535506 67.04653525 -69.0625 79.3125 C-70.40441406 80.65634766 -70.40441406 80.65634766 -71.7734375 82.02734375 C-105.32138565 117.17527097 -108.46101617 165.62296178 -108.37817383 211.64648438 C-108.37500087 215.31149773 -108.39866237 218.97570946 -108.42382812 222.640625 C-108.54487133 268.32995528 -101.78032003 319.75181295 -68.5 353.9453125 C-47.21578467 374.17769161 -20.00502737 380.08465157 8.56445312 379.40576172 C30.23953184 378.55392221 48.97594177 370.8535312 64.9375 356.3125 C65.97777344 355.39404297 65.97777344 355.39404297 67.0390625 354.45703125 C91.6688233 331.44635832 102.11283158 295.32390686 107.9375 263.3125 C108.20433594 261.90218506 108.20433594 261.90218506 108.4765625 260.46337891 C113.98419745 229.9692215 113.54192236 194.75161337 107.9375 164.3125 C107.73882324 163.22888184 107.54014648 162.14526367 107.33544922 161.02880859 C103.35258423 140.11205473 97.71181529 119.91932502 87.9375 100.9375 C87.4636084 100.01678711 86.9897168 99.09607422 86.50146484 98.14746094 C74.3196448 75.53648176 53.26323811 58.85694132 28.95703125 50.96484375 C10.99190068 45.68320895 -7.2021367 45.57593722 -25.0625 51.3125 Z " fill="#1A54A5" transform="translate(1477.0625,121.6875)"/>
<path d="M0 0 C3.96724465 3.5120879 6.43483979 7.13664576 8.6875 11.875 C9.02434814 12.57149658 9.36119629 13.26799316 9.70825195 13.9855957 C10.82223454 16.31621457 11.91288555 18.65673806 13 21 C13.37253906 21.79100098 13.74507812 22.58200195 14.12890625 23.39697266 C19.83444413 35.60827428 24.58289985 48.10273969 29.01953125 60.81640625 C29.29742996 61.60942894 29.57532867 62.40245163 29.86164856 63.21950531 C34.22293355 75.67641255 38.41368008 88.18480882 42.5 100.734375 C42.76742823 101.55521387 43.03485645 102.37605274 43.31038857 103.22176552 C45.75880535 110.74138441 48.19928347 118.26355375 50.625 125.79052734 C56.31323034 143.42696878 62.14556875 160.95612959 68.9375 178.203125 C69.20095215 178.87521751 69.4644043 179.54731003 69.73583984 180.23976898 C73.07358262 188.71399777 76.78168427 196.92379426 81 205 C81.27830154 204.25786255 81.55660309 203.5157251 81.84333801 202.75109863 C95.830513 165.45196533 95.830513 165.45196533 109.81768799 128.15283203 C110.25856813 126.97714897 110.25856813 126.97714897 110.70835495 125.77771473 C111.29463612 124.21430187 111.880922 122.65089079 112.46721268 121.0874815 C113.90708596 117.24788192 115.3468786 113.40825214 116.78649902 109.56855774 C119.32348813 102.80224403 121.86101852 96.03613643 124.4017067 89.27121067 C125.7877314 85.58069521 127.17328853 81.89000434 128.55859375 78.19921875 C128.8287178 77.47957632 129.09884186 76.75993389 129.37715149 76.01848412 C133.09774236 66.10357665 136.79220081 56.17928885 140.46714783 46.2473793 C141.92993302 42.29693901 143.39741395 38.34824034 144.86504745 34.39959908 C146.00533858 31.3300642 147.14090299 28.25890106 148.27020264 25.18530273 C149.49348995 21.85608471 150.7279076 18.5311974 151.96484375 15.20703125 C152.49417259 13.75161674 152.49417259 13.75161674 153.03419495 12.26679993 C156.31874185 3.50380047 159.95427023 -0.54134276 168.43359375 -4.578125 C180.32428431 -9.31877272 192.81531142 -11.17823539 205.5625 -11.25 C206.48224609 -11.270625 207.40199219 -11.29125 208.34960938 -11.3125 C213.56275184 -11.34248213 217.65609021 -11.23857132 222 -8 C223.01577529 -5.05923706 223.19738501 -3.53390939 222.1105957 -0.59423828 C221.63710693 0.23865723 221.16361816 1.07155273 220.67578125 1.9296875 C220.14791016 2.877229 219.62003906 3.82477051 219.07617188 4.80102539 C218.49416016 5.81543701 217.91214844 6.82984863 217.3125 7.875 C216.0990797 10.05793785 214.88686709 12.24154739 213.67578125 14.42578125 C213.05783691 15.53002441 212.43989258 16.63426758 211.80322266 17.77197266 C189.09366584 58.42533851 173.94619381 102.87956742 158 146.5 C97.61769753 311.6662077 97.61769753 311.6662077 63 352 C61.78763672 353.43085937 61.78763672 353.43085937 60.55078125 354.890625 C43.01244942 375.10208547 18.94687826 389.23150675 -7.94140625 391.81640625 C-21.36342908 392.57972852 -34.11871053 390.73064668 -47 387 C-48.44439453 386.62681641 -48.44439453 386.62681641 -49.91796875 386.24609375 C-52 385 -52 385 -52.796875 382.5546875 C-53.07199262 377.74012917 -53.22417753 372.94734642 -53.25 368.125 C-53.270625 367.16980469 -53.29125 366.21460938 -53.3125 365.23046875 C-53.34740764 358.86855099 -53.10537053 352.41408845 -48.58300781 347.44213867 C-44.77887967 344.12672717 -41.74319271 342.85474187 -36.77905273 342.94995117 C-35.93064316 342.96293747 -35.08223358 342.97592377 -34.20811462 342.98930359 C-33.29252274 343.00701309 -32.37693085 343.0247226 -31.43359375 343.04296875 C-29.48373434 343.06537569 -27.53386379 343.08682903 -25.58398438 343.10742188 C-22.51849027 343.14435554 -19.45356927 343.18718734 -16.38842773 343.24682617 C-13.42423538 343.30178529 -10.46067197 343.33054635 -7.49609375 343.35546875 C-6.59467148 343.37925095 -5.69324921 343.40303314 -4.76451111 343.42753601 C5.87965029 343.47069858 14.33988146 339.21429154 22 332 C35.79068878 317.65768367 42.76108533 299.17928656 50 281 C50.56110474 279.69639526 50.56110474 279.69639526 51.13354492 278.36645508 C53.74836923 271.22486814 48.82138943 263.12774458 46.125 256.625 C45.01939697 253.91752527 43.9214897 251.20695443 42.82421875 248.49609375 C42.52506058 247.75843277 42.2259024 247.02077179 41.91767883 246.26075745 C37.81418639 236.1128748 33.88523736 225.89669992 29.9375 215.6875 C29.11784583 213.57060369 28.29810208 211.45374205 27.47827148 209.33691406 C23.80672301 199.8539385 20.14144174 190.36856005 16.48283386 180.88058472 C-14.34499832 97.10079807 -14.34499832 97.10079807 -53.24707031 16.96875 C-57.32037584 9.74083817 -61.31776872 2.30350995 -61.75 -6.125 C-61.80671875 -7.05570312 -61.8634375 -7.98640625 -61.921875 -8.9453125 C-61.94765625 -9.62335938 -61.9734375 -10.30140625 -62 -11 C-42.5283615 -14.05437467 -16.45622501 -11.86005279 0 0 Z " fill="#1A54A5" transform="translate(2814,272)"/>
<path d="M0 0 C14.64205149 -1.26710061 29.27112411 3.77975262 40.75 12.75 C57.70847826 28.36965103 61.65863952 53.53252345 62.81054688 75.39819336 C63.63069569 97.3267131 62.13172901 119.42177223 60.9375 141.3125 C56.78478826 188.17200503 56.78478826 188.17200503 73.8125 230.05859375 C87.208155 242.61702032 104.18200311 243.7407857 121.62890625 243.34765625 C145.27831494 242.357681 175.15229156 233.53316125 192 216 C197.29286302 208.37155615 196.1480675 197.27596364 196.1328125 188.4296875 C196.13413177 187.21241974 196.13545105 185.99515198 196.1368103 184.74099731 C196.13839626 181.46402819 196.13506224 178.18711801 196.12857056 174.91015625 C196.12498087 172.86409362 196.12337733 170.81803805 196.12231445 168.77197266 C196.11203346 152.84234762 196.00597602 136.9226744 195.5 121 C195.09930704 108.25135353 194.86295175 95.51078166 194.82275391 82.75537109 C194.81608131 80.88100596 194.80600708 79.00664883 194.79199219 77.13232422 C194.72451868 67.43211966 194.9458283 57.83663274 195.875 48.17578125 C195.95116043 47.36676361 196.02732086 46.55774597 196.10578918 45.72421265 C197.418266 33.46378782 201.5970848 22.61505475 210.9453125 14.26171875 C212.90374328 12.71417443 214.89279187 11.33647831 217 10 C217.58007812 9.62101562 218.16015625 9.24203125 218.7578125 8.8515625 C229.05914201 2.92049399 242.40086669 2.16691308 254 3 C254.99 3.33 255.98 3.66 257 4 C257 95.08 257 186.16 257 280 C223.53445184 280 223.53445184 280 209.625 267.3125 C203.17052814 260.38187857 200.85213031 252.05250501 199 243 C198.14019531 243.90621094 197.28039063 244.81242188 196.39453125 245.74609375 C172.72339513 270.31660456 138.50283584 286.7929037 104 288 C102.05480469 288.07734375 102.05480469 288.07734375 100.0703125 288.15625 C74.893771 288.82788455 50.08189312 283.31906021 31 266 C3.75580638 239.51631753 2.65236315 196.62655508 2 161 C1.90041935 151.10083313 2.04298118 141.22454759 2.35668945 131.33056641 C2.92752938 113.24436177 3.18942364 95.14931945 3.28710938 77.05484009 C3.30376184 74.47745129 3.32744397 71.90009626 3.35888672 69.32284546 C3.54064956 53.72047132 2.65104433 38.90738993 -0.10546875 23.53637695 C-1.43714878 15.93896487 -2.47280623 7.41841868 0 0 Z " fill="#1A54A5" transform="translate(1714,261)"/>
<path d="M0 0 C1.20674782 -0.01192322 1.20674782 -0.01192322 2.43787438 -0.02408731 C5.13150948 -0.04332489 7.82304099 -0.01970888 10.51661682 0.0038147 C12.44848922 -0.00104169 14.38035659 -0.00848087 16.31221008 -0.01831055 C21.55828548 -0.03713039 26.80361469 -0.01827654 32.04963183 0.00835371 C37.53879587 0.03098054 43.0279231 0.02276779 48.51712036 0.01885986 C57.73664036 0.01709368 66.95586633 0.03925936 76.17530823 0.07608032 C86.83349707 0.11840377 97.49125495 0.12543828 108.1495108 0.1129564 C118.40166312 0.10156484 128.6536637 0.11286619 138.90579414 0.1353035 C143.26891448 0.14459116 147.63194196 0.14634505 151.9950695 0.14213181 C157.13421133 0.13836303 162.27291489 0.15459609 167.41195679 0.18625259 C169.29772694 0.19473426 171.18354158 0.19644204 173.06932259 0.19087219 C175.6445142 0.18442034 178.21839971 0.20260838 180.79345703 0.22705078 C181.5390862 0.21949213 182.28471537 0.21193349 183.05293936 0.20414579 C189.03107709 0.30446537 192.47412362 2.42483687 196.75318909 6.42422485 C202.03300793 12.62098703 205.03301013 18.77560426 204.81568909 27.06484985 C202.77870126 35.8359892 196.88253209 43.34379564 191.96022034 50.7484436 C190.92011894 52.34672634 189.88102241 53.94566355 188.84303284 55.5453186 C180.05806346 68.98031943 170.67285115 81.97131032 160.96022034 94.7484436 C159.80779846 96.27018188 159.80779846 96.27018188 158.63209534 97.82266235 C152.89570038 105.34474155 146.97668718 112.70448963 140.99147034 120.0296936 C138.58172235 122.97955752 136.20051452 125.95024438 133.83522034 128.9359436 C130.32186546 133.34616755 126.68104303 137.64009227 123.02613831 141.93276978 C119.61486121 145.94843489 116.3135186 150.03959447 113.04225159 154.1703186 C110.62937773 157.15811738 108.14218708 160.07894203 105.64772034 162.9984436 C101.31995221 168.06948493 97.17171693 173.25591288 93.08375549 178.52139282 C89.99616945 182.4802013 86.79900632 186.32006723 83.52272034 190.1234436 C77.91560289 196.664749 72.78392465 203.5217919 67.66676331 210.4491272 C65.7567122 213.02264097 63.83055575 215.58358209 61.90162659 218.14297485 C60.87343811 219.50797119 60.87343811 219.50797119 59.82447815 220.90054321 C58.47434734 222.6923101 57.12345636 224.48350448 55.77174377 226.27407837 C55.15976135 227.08804077 54.54777893 227.90200317 53.91725159 228.7406311 C53.37044739 229.46621216 52.82364319 230.19179321 52.26026917 230.93936157 C50.90878453 232.71898749 50.90878453 232.71898749 49.96022034 234.7484436 C50.92817945 234.74926075 50.92817945 234.74926075 51.91569328 234.75009441 C67.65007913 234.76509106 83.38411603 234.80765386 99.11833 234.88053417 C106.72744293 234.91512126 114.33637589 234.94053141 121.9455719 234.94400024 C128.58124628 234.94704893 135.21659961 234.96766012 141.85215008 235.00896817 C145.36257616 235.0302186 148.87254674 235.04294032 152.38303757 235.0345974 C156.31125616 235.02559193 160.23866432 235.05581366 164.16676331 235.08901978 C165.89414986 235.07608131 165.89414986 235.07608131 167.65643311 235.06288147 C177.78016951 235.20587329 185.54194486 238.63453545 192.94850159 245.5453186 C200.74428287 254.08283442 208.09146398 264.49625848 207.99513245 276.42520142 C207.98757179 277.63989105 207.98757179 277.63989105 207.9798584 278.87911987 C207.97337784 279.4959967 207.96689728 280.11287354 207.96022034 280.7484436 C179.75332073 280.84182506 151.54644424 280.91239251 123.33942127 280.95569229 C110.24283498 280.97633021 97.14634465 281.00447443 84.04981995 281.05020142 C72.63681735 281.09003138 61.22388425 281.11586746 49.81081408 281.12479758 C43.7659172 281.1300188 37.72121913 281.14231635 31.67638588 281.17136383 C25.98914036 281.19847209 20.30217596 281.20689781 14.61487198 281.20087433 C12.52546983 281.20197661 10.43605848 281.20995761 8.34671211 281.2252655 C5.49734472 281.24512135 2.64904336 281.2403987 -0.2003479 281.22946167 C-1.03011947 281.24111304 -1.85989105 281.2527644 -2.71480721 281.26476884 C-6.6790942 281.22354371 -8.58464091 281.03850324 -12.0114336 278.85461044 C-16.61436254 274.07508269 -16.39427159 268.91482296 -16.35227966 262.6234436 C-16.34599548 261.35355591 -16.34599548 261.35355591 -16.33958435 260.05801392 C-16.08839054 246.09270712 -10.91444885 236.8216203 -2.41477966 226.1234436 C-1.15146992 224.51689991 0.11154963 222.91012799 1.37428284 221.3031311 C1.98948792 220.52292603 2.60469299 219.74272095 3.23854065 218.93887329 C5.50199822 216.05915955 7.73305947 213.15633138 9.96022034 210.2484436 C14.54316751 204.27855189 19.16432521 198.33889868 23.78834534 192.40078735 C27.19264463 188.02700283 30.58519627 183.64485653 33.96022034 179.2484436 C37.93921032 174.06528559 41.94559951 168.90404499 45.96022034 163.7484436 C51.65398568 156.43563791 57.31850681 149.1014769 62.96022034 141.7484436 C69.20540725 133.60888333 75.48411803 125.49668242 81.78736877 117.40200806 C85.19201938 113.02783649 88.58487894 108.6452699 91.96022034 104.2484436 C96.54316751 98.27855189 101.16432521 92.33889868 105.78834534 86.40078735 C109.97987795 81.01557915 114.14699355 75.61260074 118.30006409 70.19766235 C120.40461774 67.46116511 122.52636518 64.73841747 124.65162659 62.01797485 C125.29164612 61.1981311 125.93166565 60.37828735 126.59107971 59.53359985 C127.86042346 57.90873717 129.13121405 56.28500354 130.40357971 54.6625061 C130.98043518 53.92387329 131.55729065 53.18524048 132.15162659 52.42422485 C132.66926575 51.76333862 133.18690491 51.10245239 133.7202301 50.42153931 C135.02690409 48.75947347 135.02690409 48.75947347 135.96022034 46.7484436 C135.32668829 46.74605525 134.69315624 46.7436669 134.04042625 46.74120617 C118.61627113 46.68203789 103.19229626 46.60647624 87.76831627 46.51272869 C80.30934946 46.46778702 72.85043021 46.42836865 65.39137268 46.40200806 C58.88910426 46.37901472 52.38698658 46.3456019 45.88483775 46.29974204 C42.44283421 46.27582764 39.0009798 46.25708727 35.55889511 46.2508297 C31.71382549 46.2436441 27.86912923 46.21319351 24.02418518 46.18081665 C22.88626526 46.18225174 21.74834534 46.18368683 20.57594299 46.18516541 C11.18613902 46.07321181 6.0529565 43.35772674 -0.79759216 37.04922485 C-7.13631937 30.54485146 -13.41844241 21.87480154 -14.23118591 12.5531311 C-13.96010893 8.23232834 -12.43427599 5.22324472 -9.60851848 2.0022614 C-6.74762572 -0.28431315 -3.48462003 -0.06872031 0 0 Z " fill="#1A54A5" transform="translate(2514.039779663086,260.2515563964844)"/>
<path d="M0 0 C0.79028005 -0.00935994 1.5805601 -0.01871989 2.39478803 -0.02836347 C5.03449099 -0.05223525 7.67211146 -0.03336553 10.31182861 -0.01446533 C12.20780649 -0.02259849 14.10377488 -0.03328324 15.99972534 -0.04632568 C21.14474202 -0.07367268 26.28903656 -0.06307431 31.43406582 -0.04405117 C36.82394275 -0.028849 42.2137583 -0.04295249 47.6036377 -0.05236816 C56.65914999 -0.0632845 65.71436872 -0.04890113 74.76983643 -0.02032471 C85.22529591 0.01228962 95.68005266 0.00178076 106.13549495 -0.03128314 C115.12089684 -0.05855687 124.10608775 -0.06232968 133.09151769 -0.04665112 C138.45408078 -0.03731699 143.81631424 -0.0359937 149.1788559 -0.05587006 C154.22542877 -0.07326808 159.27110124 -0.06106127 164.31757736 -0.02650452 C166.16458266 -0.01860402 168.01166437 -0.02079286 169.85863876 -0.03408051 C188.30479298 -0.15449846 188.30479298 -0.15449846 195.98077393 6.76190186 C200.39543684 11.60639542 203.71803113 16.29115427 204.22296143 22.96112061 C203.9497884 27.24817474 202.70916512 30.29024638 200.73077393 34.01190186 C200.19939819 35.03900269 200.19939819 35.03900269 199.6572876 36.08685303 C182.06396203 69.32616561 157.88799173 99.88342893 133.98077393 128.76190186 C132.52192402 130.55314794 131.06360368 132.34482542 129.60577393 134.13690186 C125.81232868 138.77627217 121.95082925 143.35363851 118.07159424 147.92108154 C113.64015527 153.14639621 109.30352061 158.44640864 104.98077393 163.76190186 C103.58567359 165.47083384 102.18982185 167.17915264 100.79327393 168.88690186 C100.05335205 169.79182373 99.31343018 170.69674561 98.55108643 171.62908936 C96.61420071 173.99329758 94.66969808 176.35111194 92.72296143 178.70721436 C80.39334115 193.63154998 68.3974939 208.71588201 56.84844971 224.25579834 C55.19102133 226.47978557 53.52851288 228.6998143 51.86404419 230.91853333 C51.32402205 231.63841966 50.7839999 232.35830599 50.22761345 233.10000706 C49.81615641 233.64843234 49.40469936 234.19685762 48.98077393 234.76190186 C49.64853851 234.76336842 50.3163031 234.76483498 51.00430298 234.76634598 C67.27204507 234.80343968 83.53954548 234.86248818 99.80711365 234.9458046 C107.6740858 234.98556995 115.54095828 235.0179751 123.40802002 235.03289795 C130.26704402 235.04592752 137.12584849 235.07292525 143.98474884 235.11651492 C147.61465308 235.1391007 151.24428684 235.15481429 154.87426758 235.15378571 C158.93221431 235.15289809 162.98936582 235.1832027 167.04718018 235.21600342 C168.84145699 235.20845787 168.84145699 235.20845787 170.67198181 235.20075989 C179.81476712 235.31502144 186.0127976 237.19515435 192.60577393 243.88690186 C200.88182043 252.61877192 207.1284593 263.69294733 207.02227783 275.96502686 C207.01628571 276.86382568 207.01029358 277.76262451 207.00411987 278.68865967 C206.99256363 279.71491455 206.99256363 279.71491455 206.98077393 280.76190186 C179.18229698 280.85530513 151.38384352 280.92586149 123.58524132 280.96915054 C110.67813245 280.98978382 97.77112103 281.01791921 84.86407471 281.06365967 C73.61550158 281.1035038 62.36699903 281.12932909 51.1183573 281.13825583 C45.1611766 281.14347464 39.2041978 281.15575697 33.24708176 281.18482208 C27.64108886 281.21195269 22.03538123 281.22035151 16.42932892 281.21433258 C14.37098516 281.21543386 12.31263196 281.22340159 10.25434494 281.23872375 C7.44473504 281.25861459 4.63620326 281.25384417 1.8265686 281.24291992 C1.01138272 281.25457129 0.19619683 281.26622265 -0.64369166 281.27822709 C-5.88079801 281.22315749 -8.87569166 280.24696656 -13.01922607 276.76190186 C-18.04023093 268.62441123 -18.00728936 259.00874827 -16.54656982 249.77362061 C-14.13727506 240.82654106 -8.49256206 234.63230443 -2.63934326 227.71942139 C-0.01893073 224.55328702 2.41483211 221.25461425 4.85577393 217.94940186 C9.09495021 212.24434219 13.41294428 206.6092614 17.79327393 201.01190186 C22.76708034 194.65189628 27.65233764 188.23291833 32.48077393 181.76190186 C37.85749613 174.55796949 43.31557372 167.42583689 48.84967041 160.34222412 C54.4093869 153.2247506 59.89536951 146.05236985 65.37188721 138.87078857 C68.0716324 135.33203305 70.77647081 131.79717463 73.48077393 128.26190186 C74.56413142 126.84525367 75.64746476 125.428587 76.73077393 124.01190186 C92.98077393 102.76190186 92.98077393 102.76190186 109.23077393 81.51190186 C109.76774902 80.80968506 110.30472412 80.10746826 110.85797119 79.38397217 C111.93390771 77.97701561 113.00991603 76.57011395 114.08599854 75.16326904 C116.90811499 71.47350052 119.72872539 67.78259333 122.54718018 64.09002686 C123.13241455 63.3236792 123.71764893 62.55733154 124.32061768 61.76776123 C125.43696672 60.30587557 126.5528797 58.84365678 127.66827393 57.38104248 C128.17487549 56.71781982 128.68147705 56.05459717 129.20343018 55.37127686 C129.64437012 54.79345459 130.08531006 54.21563232 130.53961182 53.62030029 C132.32822333 51.31386106 134.1558429 49.03966492 135.98077393 46.76190186 C135.34393173 46.76135709 134.70708954 46.76081232 134.0509491 46.76025105 C118.53423736 46.74526469 103.01787997 46.70274334 87.50134277 46.62981129 C79.99754608 46.595201 72.49393232 46.56981099 64.99005127 46.56634521 C58.44741725 46.56329977 51.90510939 46.54273185 45.36260128 46.50137728 C41.90030337 46.48009759 38.43846853 46.46742033 34.97610474 46.47574806 C31.10494915 46.48472997 27.23462051 46.45458032 23.36358643 46.42132568 C21.65346626 46.43426414 21.65346626 46.43426414 19.90879822 46.44746399 C10.45751928 46.31151109 4.97969184 43.18591543 -1.64422607 36.57440186 C-8.04890103 29.9484946 -14.1590049 21.32523543 -14.51922607 11.82440186 C-14.57078857 11.01100342 -14.62235107 10.19760498 -14.67547607 9.35955811 C-12.83703444 2.08239331 -6.96622264 -0.12762818 0 0 Z " fill="#1A54A5" transform="translate(2243.0192260742188,260.23809814453125)"/>
<path d="M0 0 C663.96 0 1327.92 0 2012 0 C2012 2.97 2012 5.94 2012 9 C1348.04 9 684.08 9 0 9 C0 6.03 0 3.06 0 0 Z " fill="#1A54A5" transform="translate(1025,721)"/>
<path d="M0 0 C11.49759949 8.98813769 14.18012231 20.06001638 16 34 C17.02646382 43.32352725 17.14763509 52.61293897 17.1328125 61.98046875 C17.13348965 63.5209403 17.13446304 65.06141174 17.13571167 66.60188293 C17.13717865 69.82843037 17.13507268 73.05494997 17.13037109 76.28149414 C17.12477421 80.30805128 17.12798627 84.33454082 17.13381958 88.36109543 C17.15833596 108.44687879 16.7862909 128.4870208 16.10906982 148.56057739 C15.87321995 155.99789933 15.75718776 163.43407862 15.75 170.875 C15.74899292 171.64685638 15.74798584 172.41871277 15.74694824 173.21395874 C15.76821476 197.98976054 18.45495988 222.5472717 21.72949219 247.08129883 C24.57255596 268.96540814 24.57255596 268.96540814 19.6484375 275.58984375 C18 277 18 277 14.1875 277.75 C-1.72357865 276.23339217 -16.04189285 270.89579752 -27 259 C-33.3729172 250.57864513 -37.43831766 242.31373571 -37.4611969 231.71334839 C-37.4745997 230.91853723 -37.4880025 230.12372607 -37.50181144 229.30482972 C-37.54293924 226.66268594 -37.56357255 224.02079488 -37.58422852 221.37841797 C-37.60971598 219.47564993 -37.63650366 217.57289894 -37.66448975 215.67016602 C-37.72189335 211.58334623 -37.77028252 207.49655538 -37.81164742 203.40954208 C-37.87725856 196.94647735 -37.96388493 190.4837975 -38.05345154 184.02102661 C-38.22446197 171.47215478 -38.37378854 158.92306935 -38.52114868 146.37390137 C-38.71001749 130.39295204 -38.90978164 114.41215472 -39.12673515 98.43156159 C-39.21326204 92.00725909 -39.2897709 85.58293802 -39.35839665 79.15842032 C-39.40285788 75.16358908 -39.45514257 71.16888727 -39.50946045 67.17417908 C-39.53298005 65.32229163 -39.55318882 63.47035872 -39.56983757 61.61839676 C-39.59299755 59.08962372 -39.62796188 56.56127437 -39.66578674 54.03268433 C-39.67148795 52.93481938 -39.67148795 52.93481938 -39.67730433 51.81477535 C-39.76885953 46.8463937 -40.14445307 42.07821256 -43.5625 38.25 C-52.04173083 33.9016765 -61.81229373 34.76308106 -71.0625 34.875 C-72.51496778 34.88505168 -73.9674423 34.89417365 -75.41992188 34.90234375 C-78.94675682 34.92417983 -82.4733342 34.95858851 -86 35 C-86.29166071 23.46060596 -84.91034964 13.05096395 -77.1015625 3.99609375 C-56.80715486 -15.27982131 -22.62082512 -14.21722992 0 0 Z " fill="#1A54A5" transform="translate(2131,271)"/>
<path d="M0 0 C27.17149006 -0.28076167 27.17149006 -0.28076167 38.75976562 -0.34179688 C46.66512973 -0.38363163 54.56992594 -0.4331041 62.47485352 -0.52807617 C68.84857845 -0.60417212 75.22169439 -0.64599882 81.59583855 -0.6641407 C84.02676925 -0.67706802 86.45766688 -0.70231264 88.88833809 -0.7401104 C92.29551146 -0.79098265 95.70017355 -0.79792109 99.10766602 -0.79467773 C100.11108032 -0.81984467 101.11449463 -0.8450116 102.14831543 -0.87094116 C107.11004224 -0.81988684 110.32166653 -0.35117617 114.13110352 2.97790527 C117.69691646 7.17121281 117.95742662 10.80222051 117.79467773 16.14819336 C117.79552148 17.051046 117.79636522 17.95389864 117.79723454 18.88411045 C117.79203725 21.78727912 117.73887833 24.68724329 117.68359375 27.58984375 C117.67329277 29.38967374 117.66615705 31.1895247 117.66223145 32.98937988 C117.62563488 39.6390745 117.52790518 46.28831924 117.4375 52.9375 C117.293125 67.808125 117.14875 82.67875 117 98 C78.39 98 39.78 98 0 98 C0 65.66 0 33.32 0 0 Z " fill="#1A54A5" transform="translate(492,881)"/>
<path d="M0 0 C0.78503906 0.4125 1.57007813 0.825 2.37890625 1.25 C13.6222298 7.94653112 19.31934094 18.54912349 22.49609375 30.93408203 C27.48087341 52.1039469 27.0688883 76.96415563 16.25 96.25 C10.11940449 105.76614826 2.1349924 112.28538416 -8.86987305 115.55566406 C-19.66073539 117.80659466 -34.40168511 117.67927974 -44 112 C-49.3372449 108.49171752 -52.97517287 105.03103391 -57 100 C-57 121.45 -57 142.9 -57 165 C-64.26 165 -71.52 165 -79 165 C-79 109.89 -79 54.78 -79 -2 C-73.06 -2 -67.12 -2 -61 -2 C-59.0709714 -0.0709714 -59.33583217 3.35316649 -59 5.9375 C-58.51887678 10.62307486 -58.51887678 10.62307486 -57 15 C-56.64808594 14.49210938 -56.29617188 13.98421875 -55.93359375 13.4609375 C-49.79407277 4.90087431 -43.14994866 -0.83246046 -32.796875 -3.5859375 C-21.82576037 -5.2101528 -9.94164488 -5.29338829 0 0 Z M-49 23 C-58.52876111 37.47498826 -58.30768345 56.16445213 -55.6875 72.66796875 C-54.05591125 80.57561198 -51.23397147 87.63621677 -45 93 C-37.25270052 97.99236587 -28.60144717 99.34356377 -19.5625 97.50390625 C-11.95247921 95.22861287 -7.0968673 90.98611029 -3.09765625 84.18359375 C1.50082366 75.03572801 2.20259745 66.0164673 2.25 55.9375 C2.270625 54.86822266 2.29125 53.79894531 2.3125 52.69726562 C2.36894136 41.02095998 0.48681944 30.11928433 -7.5625 21.28515625 C-12.92846167 16.20488235 -19.08554082 13.93619404 -26.4375 13.625 C-34.97511858 13.9819736 -43.05719238 16.68659413 -49 23 Z " fill="#1A54A5" transform="translate(1698,866)"/>
<path d="M0 0 C7.59 0 15.18 0 23 0 C23.0093457 3.17326904 23.01869141 6.34653809 23.02832031 9.6159668 C23.06218979 20.13730931 23.11779412 30.65845775 23.18390274 41.17964458 C23.22329797 47.55442474 23.25552555 53.9290684 23.27099609 60.30395508 C23.28621489 66.46385817 23.32075345 72.6233858 23.36830902 78.78312111 C23.38306897 81.12522925 23.3910379 83.46739102 23.39188385 85.80954552 C23.00699399 107.40713386 23.00699399 107.40713386 32.3125 126.35546875 C40.9543051 134.77722788 51.62048173 136.49102195 63.23901367 136.42382812 C72.45727681 136.1385583 82.3914988 133.8796192 89 127 C99.75260012 113.39362923 98.46653949 96.36558294 98.51171875 79.98046875 C98.52858926 77.66733359 98.54674265 75.35420747 98.56611633 73.04109192 C98.61336471 66.99306055 98.64333635 60.94506583 98.66955566 54.89691162 C98.69948884 48.70919562 98.745975 42.52160559 98.79101562 36.33398438 C98.87676225 24.22270811 98.94270181 12.11144429 99 0 C106.26 0 113.52 0 121 0 C121.11336574 14.32663961 121.20492628 28.65297692 121.25906086 42.97996521 C121.28505457 49.63397321 121.32026461 56.28756911 121.37719727 62.94140625 C121.43188252 69.37349606 121.46149733 75.80527484 121.47438622 82.23757935 C121.48356082 84.68056121 121.50147509 87.12352779 121.52865028 89.56637573 C121.72022558 107.51609754 121.28070495 123.70345579 109 138 C108.18208984 138.96486328 108.18208984 138.96486328 107.34765625 139.94921875 C98.0820059 149.99972418 84.50166732 155.38315573 70.98657227 156.17700195 C50.45831541 156.57381308 31.05665455 156.72139871 15.1875 141.75 C2.90895325 128.5944142 -0.17876178 112.82439607 -0.11352539 95.36132812 C-0.11367142 94.32628143 -0.11381744 93.29123474 -0.1139679 92.224823 C-0.11327504 88.8269435 -0.1055121 85.42911984 -0.09765625 82.03125 C-0.09578984 79.666138 -0.09436699 77.30102561 -0.09336853 74.93591309 C-0.08956089 68.72830121 -0.07974563 62.52071294 -0.06866455 56.31311035 C-0.05841267 49.97176432 -0.05386283 43.63041444 -0.04882812 37.2890625 C-0.03812174 24.85936299 -0.02053919 12.42968716 0 0 Z " fill="#1A54A5" transform="translate(1457,826)"/>
<path d="M0 0 C11.31875311 8.89204079 17.70436878 21.65003085 20.0625 35.7109375 C22.47386519 56.18535115 20.85130335 76.76334957 8.390625 93.84765625 C0.67019033 102.98919748 -9.53689837 109.25136495 -21.50390625 110.9609375 C-38.54803327 112.38791615 -53.55000925 111.67658836 -67.50390625 100.9609375 C-68.37015625 100.3834375 -69.23640625 99.8059375 -70.12890625 99.2109375 C-82.83242399 87.17602596 -87.34035959 70.185961 -87.8581543 53.23413086 C-88.02206874 35.27874952 -84.36657465 17.99703522 -71.87890625 4.3984375 C-52.73274681 -13.12266211 -21.14488011 -14.54669546 0 0 Z M-54.50390625 16.9609375 C-65.12796032 29.3285453 -65.57872638 45.43315456 -64.50390625 60.9609375 C-63.36112566 69.9508115 -61.12728481 78.43690962 -54.50390625 84.9609375 C-54.02953125 85.44820312 -53.55515625 85.93546875 -53.06640625 86.4375 C-46.23271082 92.78837999 -38.92324494 93.51760268 -29.984375 93.31640625 C-23.06412691 92.60962446 -16.3480636 90.0742147 -11.50390625 84.9609375 C-0.76521451 70.47747121 -0.7951814 52.31283397 -3.0078125 35.0234375 C-5.23610598 25.0406827 -10.19866422 17.90504711 -18.50390625 11.9609375 C-30.15779949 6.38733639 -44.99935767 8.29012125 -54.50390625 16.9609375 Z " fill="#1A54A5" transform="translate(2017.50390625,871.0390625)"/>
<path d="M0 0 C0.92941406 -0.01611328 1.85882812 -0.03222656 2.81640625 -0.04882812 C15.44241517 -0.05763287 25.93608124 4.37552975 35.3125 12.8125 C49.02781339 27.47178233 49.125 46.12578313 49.125 65.3125 C23.055 65.3125 -3.015 65.3125 -29.875 65.3125 C-27.2553681 82.8765092 -27.2553681 82.8765092 -16.875 96.3125 C-4.85588134 104.40553381 9.74694671 103.30807661 23.34448242 100.66796875 C28.41900397 99.59296897 33.19289034 98.04278067 37.98828125 96.08203125 C40.125 95.3125 40.125 95.3125 43.125 95.3125 C43.125 101.2525 43.125 107.1925 43.125 113.3125 C30.17444122 118.60412617 19.18268255 120.66295271 5.125 120.625 C3.93132813 120.64111328 2.73765625 120.65722656 1.5078125 120.67382812 C-12.4573422 120.68146771 -26.84818586 116.88564981 -37.29296875 107.05078125 C-50.73018916 92.28642796 -53.83884388 73.89640839 -53.02734375 54.59082031 C-51.88028398 37.43639439 -46.15289369 22.96453002 -33.5625 11.0625 C-23.56669937 2.52867021 -12.85784211 -0.04421541 0 0 Z M-21.875 26.3125 C-26.73344726 34.07203447 -28.1795028 39.9872654 -29.875 49.3125 C-11.065 49.3125 7.745 49.3125 27.125 49.3125 C26.12788927 38.34428196 24.79670435 28.65908998 16.125 21.3125 C4.87010398 13.49208771 -13.08846372 15.55446944 -21.875 26.3125 Z " fill="#1A54A5" transform="translate(2979.875,861.6875)"/>
<path d="M0 0 C0.92941406 -0.01611328 1.85882812 -0.03222656 2.81640625 -0.04882812 C15.44241517 -0.05763287 25.93608124 4.37552975 35.3125 12.8125 C49.02781339 27.47178233 49.125 46.12578313 49.125 65.3125 C23.055 65.3125 -3.015 65.3125 -29.875 65.3125 C-27.2553681 82.8765092 -27.2553681 82.8765092 -16.875 96.3125 C-4.85588134 104.40553381 9.74694671 103.30807661 23.34448242 100.66796875 C28.41900397 99.59296897 33.19289034 98.04278067 37.98828125 96.08203125 C40.125 95.3125 40.125 95.3125 43.125 95.3125 C43.125 101.2525 43.125 107.1925 43.125 113.3125 C30.17444122 118.60412617 19.18268255 120.66295271 5.125 120.625 C3.93132812 120.64111328 2.73765625 120.65722656 1.5078125 120.67382812 C-12.4573422 120.68146771 -26.84818586 116.88564981 -37.29296875 107.05078125 C-50.73018916 92.28642796 -53.83884388 73.89640839 -53.02734375 54.59082031 C-51.88028398 37.43639439 -46.15289369 22.96453002 -33.5625 11.0625 C-23.56669937 2.52867021 -12.85784211 -0.04421541 0 0 Z M-21.875 26.3125 C-26.73344726 34.07203447 -28.1795028 39.9872654 -29.875 49.3125 C-11.065 49.3125 7.745 49.3125 27.125 49.3125 C26.12788927 38.34428196 24.79670435 28.65908998 16.125 21.3125 C4.87010398 13.49208771 -13.08846372 15.55446944 -21.875 26.3125 Z " fill="#1A54A5" transform="translate(1259.875,861.6875)"/>
<path d="M0 0 C0.92941406 -0.01611328 1.85882812 -0.03222656 2.81640625 -0.04882812 C15.44241517 -0.05763287 25.93608124 4.37552975 35.3125 12.8125 C49.02781339 27.47178233 49.125 46.12578313 49.125 65.3125 C23.055 65.3125 -3.015 65.3125 -29.875 65.3125 C-27.2553681 82.8765092 -27.2553681 82.8765092 -16.875 96.3125 C-4.85588134 104.40553381 9.74694671 103.30807661 23.34448242 100.66796875 C28.41900397 99.59296897 33.19289034 98.04278067 37.98828125 96.08203125 C40.125 95.3125 40.125 95.3125 43.125 95.3125 C43.125 101.2525 43.125 107.1925 43.125 113.3125 C30.17444122 118.60412617 19.18268255 120.66295271 5.125 120.625 C3.93132813 120.64111328 2.73765625 120.65722656 1.5078125 120.67382812 C-12.4573422 120.68146771 -26.84818586 116.88564981 -37.29296875 107.05078125 C-50.73018916 92.28642796 -53.83884388 73.89640839 -53.02734375 54.59082031 C-51.88028398 37.43639439 -46.15289369 22.96453002 -33.5625 11.0625 C-23.56669937 2.52867021 -12.85784211 -0.04421541 0 0 Z M-21.875 26.3125 C-26.73344726 34.07203447 -28.1795028 39.9872654 -29.875 49.3125 C-11.065 49.3125 7.745 49.3125 27.125 49.3125 C26.12788927 38.34428196 24.79670435 28.65908998 16.125 21.3125 C4.87010398 13.49208771 -13.08846372 15.55446944 -21.875 26.3125 Z " fill="#1A54A5" transform="translate(1017.875,861.6875)"/>
<path d="M0 0 C7.26 0 14.52 0 22 0 C22.0093457 2.29477295 22.01869141 4.5895459 22.02832031 6.95385742 C22.06226285 14.58148237 22.11790633 22.20884168 22.18390274 29.83625317 C22.22321788 34.45554603 22.25548393 39.07465281 22.27099609 43.6940918 C22.28626877 48.16177488 22.32089911 52.62894583 22.36830902 57.09639931 C22.38301438 58.79096305 22.3910347 60.48559995 22.39188385 62.18022728 C22.15703625 78.58135354 22.15703625 78.58135354 28.72027588 93.11393738 C34.92498565 99.01431633 42.23462307 99.46064466 50.45703125 99.3046875 C57.58856198 98.69139158 62.89373643 96.57741903 67.875 91.375 C74.08653199 83.53733581 76.08509352 74.6302287 76.20532227 64.82299805 C76.21522186 64.12001083 76.22512146 63.41702362 76.23532104 62.69273376 C76.2667633 60.38242901 76.29162468 58.07210374 76.31640625 55.76171875 C76.33699072 54.15460188 76.35798758 52.54749024 76.37937927 50.94038391 C76.43444579 46.72036998 76.48392276 42.50030844 76.53222656 38.2802124 C76.58255451 33.96996854 76.6381815 29.6597934 76.69335938 25.34960938 C76.80075223 16.89979624 76.90174874 8.44992438 77 0 C84.59 0 92.18 0 100 0 C100 38.28 100 76.56 100 116 C94.06 116 88.12 116 82 116 C79.71428571 105.42857143 79.71428571 105.42857143 80 100 C79.0409375 100.99 79.0409375 100.99 78.0625 102 C77.0449089 103.00329909 76.02353769 104.00276819 75 105 C74.34515625 105.65097656 73.6903125 106.30195312 73.015625 106.97265625 C61.6076047 117.79409394 49.70767746 118.46863269 34.6796875 118.27734375 C28.5021364 118.0753119 23.38313135 117.14179121 18 114 C16.90558594 113.36384766 16.90558594 113.36384766 15.7890625 112.71484375 C7.3764081 107.10119518 2.90144314 98.39453519 0.43287659 88.79450989 C-0.14883827 85.03914875 -0.13085442 81.3272191 -0.11352539 77.5378418 C-0.11367142 76.6983046 -0.11381744 75.8587674 -0.1139679 74.99378967 C-0.11327326 72.22890608 -0.10550188 69.46409052 -0.09765625 66.69921875 C-0.09579048 64.77822405 -0.09436732 62.85722887 -0.09336853 60.93623352 C-0.08955591 55.88759033 -0.07973633 50.83897604 -0.06866455 45.79034424 C-0.05842345 40.63562409 -0.05386513 35.48089927 -0.04882812 30.32617188 C-0.03811293 20.21743319 -0.02052629 10.10872353 0 0 Z " fill="#1A54A5" transform="translate(2700,864)"/>
<path d="M0 0 C7.26 0 14.52 0 22 0 C22.0093457 2.29477295 22.01869141 4.5895459 22.02832031 6.95385742 C22.06226285 14.58148237 22.11790633 22.20884168 22.18390274 29.83625317 C22.22321788 34.45554603 22.25548393 39.07465281 22.27099609 43.6940918 C22.28626877 48.16177488 22.32089911 52.62894583 22.36830902 57.09639931 C22.38301438 58.79096305 22.3910347 60.48559995 22.39188385 62.18022728 C22.15703625 78.58135354 22.15703625 78.58135354 28.72027588 93.11393738 C34.92498565 99.01431633 42.23462307 99.46064466 50.45703125 99.3046875 C57.58856198 98.69139158 62.89373643 96.57741903 67.875 91.375 C74.08653199 83.53733581 76.08509352 74.6302287 76.20532227 64.82299805 C76.21522186 64.12001083 76.22512146 63.41702362 76.23532104 62.69273376 C76.2667633 60.38242901 76.29162468 58.07210374 76.31640625 55.76171875 C76.33699072 54.15460188 76.35798758 52.54749024 76.37937927 50.94038391 C76.43444579 46.72036998 76.48392276 42.50030844 76.53222656 38.2802124 C76.58255451 33.96996854 76.6381815 29.6597934 76.69335938 25.34960938 C76.80075223 16.89979624 76.90174874 8.44992438 77 0 C84.59 0 92.18 0 100 0 C100 38.28 100 76.56 100 116 C94.06 116 88.12 116 82 116 C79.71428571 105.42857143 79.71428571 105.42857143 80 100 C79.0409375 100.99 79.0409375 100.99 78.0625 102 C77.0449089 103.00329909 76.02353769 104.00276819 75 105 C74.34515625 105.65097656 73.6903125 106.30195312 73.015625 106.97265625 C61.6076047 117.79409394 49.70767746 118.46863269 34.6796875 118.27734375 C28.5021364 118.0753119 23.38313135 117.14179121 18 114 C16.90558594 113.36384766 16.90558594 113.36384766 15.7890625 112.71484375 C7.3764081 107.10119518 2.90144314 98.39453519 0.43287659 88.79450989 C-0.14883827 85.03914875 -0.13085442 81.3272191 -0.11352539 77.5378418 C-0.11367142 76.6983046 -0.11381744 75.8587674 -0.1139679 74.99378967 C-0.11327326 72.22890608 -0.10550188 69.46409052 -0.09765625 66.69921875 C-0.09579048 64.77822405 -0.09436732 62.85722887 -0.09336853 60.93623352 C-0.08955591 55.88759033 -0.07973633 50.83897604 -0.06866455 45.79034424 C-0.05842345 40.63562409 -0.05386513 35.48089927 -0.04882812 30.32617188 C-0.03811293 20.21743319 -0.02052629 10.10872353 0 0 Z " fill="#1A54A5" transform="translate(2475,864)"/>
<path d="M0 0 C7.26 0 14.52 0 22 0 C22.0093457 2.29477295 22.01869141 4.5895459 22.02832031 6.95385742 C22.06226285 14.58148237 22.11790633 22.20884168 22.18390274 29.83625317 C22.22321788 34.45554603 22.25548393 39.07465281 22.27099609 43.6940918 C22.28626877 48.16177488 22.32089911 52.62894583 22.36830902 57.09639931 C22.38301438 58.79096305 22.3910347 60.48559995 22.39188385 62.18022728 C22.15703625 78.58135354 22.15703625 78.58135354 28.72027588 93.11393738 C34.92498565 99.01431633 42.23462307 99.46064466 50.45703125 99.3046875 C57.58856198 98.69139158 62.89373643 96.57741903 67.875 91.375 C74.08653199 83.53733581 76.08509352 74.6302287 76.20532227 64.82299805 C76.21522186 64.12001083 76.22512146 63.41702362 76.23532104 62.69273376 C76.2667633 60.38242901 76.29162468 58.07210374 76.31640625 55.76171875 C76.33699072 54.15460188 76.35798758 52.54749024 76.37937927 50.94038391 C76.43444579 46.72036998 76.48392276 42.50030844 76.53222656 38.2802124 C76.58255451 33.96996854 76.6381815 29.6597934 76.69335938 25.34960938 C76.80075223 16.89979624 76.90174874 8.44992438 77 0 C84.59 0 92.18 0 100 0 C100 38.28 100 76.56 100 116 C94.06 116 88.12 116 82 116 C79.71428571 105.42857143 79.71428571 105.42857143 80 100 C79.0409375 100.99 79.0409375 100.99 78.0625 102 C77.0449089 103.00329909 76.02353769 104.00276819 75 105 C74.34515625 105.65097656 73.6903125 106.30195312 73.015625 106.97265625 C61.6076047 117.79409394 49.70767746 118.46863269 34.6796875 118.27734375 C28.5021364 118.0753119 23.38313135 117.14179121 18 114 C16.90558594 113.36384766 16.90558594 113.36384766 15.7890625 112.71484375 C7.3764081 107.10119518 2.90144314 98.39453519 0.43287659 88.79450989 C-0.14883827 85.03914875 -0.13085442 81.3272191 -0.11352539 77.5378418 C-0.11367142 76.6983046 -0.11381744 75.8587674 -0.1139679 74.99378967 C-0.11327326 72.22890608 -0.10550188 69.46409052 -0.09765625 66.69921875 C-0.09579048 64.77822405 -0.09436732 62.85722887 -0.09336853 60.93623352 C-0.08955591 55.88759033 -0.07973633 50.83897604 -0.06866455 45.79034424 C-0.05842345 40.63562409 -0.05386513 35.48089927 -0.04882812 30.32617188 C-0.03811293 20.21743319 -0.02052629 10.10872353 0 0 Z " fill="#1A54A5" transform="translate(2070,864)"/>
<path d="M0 0 C28.38 0 56.76 0 86 0 C86 6.6 86 13.2 86 20 C64.88 20 43.76 20 22 20 C22 36.83 22 53.66 22 71 C41.8 71 61.6 71 82 71 C82 77.27 82 83.54 82 90 C62.2 90 42.4 90 22 90 C22 111.12 22 132.24 22 154 C14.74 154 7.48 154 0 154 C0 103.18 0 52.36 0 0 Z " fill="#1A54A5" transform="translate(2361,826)"/>
<path d="M0 0 C8.25 0 16.5 0 25 0 C26.44375 2.908125 27.8875 5.81625 29.375 8.8125 C33.14255299 16.36735077 36.99688693 23.86914034 40.95092773 31.32788086 C43.5381442 36.21216338 46.09886012 41.10942575 48.63671875 46.01953125 C48.95079681 46.62694656 49.26487488 47.23436188 49.58847046 47.86018372 C51.14998554 50.88103696 52.70943121 53.90292838 54.26660156 56.92602539 C55.1227002 58.58299438 55.1227002 58.58299438 55.99609375 60.2734375 C56.50325928 61.25747559 57.0104248 62.24151367 57.53295898 63.25537109 C58.94224337 65.89194542 60.43855742 68.45114471 62 71 C65.49426109 65.59648172 68.60923522 60.096218 71.51171875 54.35546875 C71.92484818 53.54620438 72.3379776 52.73694 72.7636261 51.90315247 C74.07500396 49.3329938 75.38152361 46.76040687 76.6875 44.1875 C78.39796188 40.82591548 80.11044575 37.46536636 81.82421875 34.10546875 C82.24710175 33.27634979 82.66998474 32.44723083 83.10568237 31.59298706 C86.18832391 25.56072713 89.30765326 19.54846357 92.45703125 13.55078125 C93.07489754 12.37143257 93.07489754 12.37143257 93.70524597 11.16825867 C94.46308749 9.72999583 95.22863439 8.29575342 96.00361633 6.86665344 C96.85730739 5.26732438 97.64733415 3.63429367 98.42382812 1.99609375 C100 0 100 0 102.63549805 -0.56762695 C103.66715088 -0.54144287 104.69880371 -0.51525879 105.76171875 -0.48828125 C106.87998047 -0.47216797 107.99824219 -0.45605469 109.15039062 -0.43945312 C110.90125977 -0.37661133 110.90125977 -0.37661133 112.6875 -0.3125 C114.45577148 -0.27866211 114.45577148 -0.27866211 116.25976562 -0.24414062 C119.17444548 -0.18513901 122.08659161 -0.10286341 125 0 C123.4013272 5.8394635 120.45962812 10.68592629 117.4375 15.875 C111.91944739 25.48142795 106.66230838 35.19949757 101.5 45 C95.90028825 55.62450572 90.19327114 66.16215199 84.19726562 76.5703125 C83.71451172 77.41078125 83.23175781 78.25125 82.734375 79.1171875 C82.32413086 79.82472168 81.91388672 80.53225586 81.49121094 81.26123047 C80.75306152 82.61692139 80.75306152 82.61692139 80 84 C79.58478592 84.67141022 79.16957184 85.34282043 78.74177551 86.03457642 C74.55295629 93.34788066 74.2670536 99.79312024 74.29296875 108.1015625 C74.27028679 110.07798233 74.27028679 110.07798233 74.24714661 112.09432983 C74.20760997 115.56311757 74.19712678 119.03137982 74.19311523 122.50036621 C74.18372383 126.05378853 74.14627359 129.60690962 74.11132812 133.16015625 C74.04707268 140.1067699 74.01617031 147.05310946 74 154 C66.41 154 58.82 154 51 154 C51.03778564 152.30810547 51.07557129 150.61621094 51.11450195 148.87304688 C51.22577409 143.17342072 51.27383966 137.47497009 51.28240681 131.77440643 C51.28975214 128.3297602 51.31956545 124.88890789 51.40795898 121.4453125 C51.8794987 102.2197448 49.31487663 88.79350976 38.68112183 72.62890625 C35.86581751 68.22638705 33.45497595 63.60969019 31 59 C30.01224975 57.18650038 29.0228788 55.37388173 28.03125 53.5625 C24.29913965 46.72029769 20.58901213 39.86620314 16.8840332 33.00927734 C14.11240766 27.88346752 11.32567847 22.76677235 8.51171875 17.6640625 C7.95355469 16.64957031 7.39539062 15.63507812 6.8203125 14.58984375 C5.75221462 12.65040286 4.68073353 10.71282036 3.60546875 8.77734375 C3.13109375 7.91496094 2.65671875 7.05257812 2.16796875 6.1640625 C1.74797607 5.40561035 1.3279834 4.6471582 0.89526367 3.86572266 C0 2 0 2 0 0 Z " fill="#1A54A5" transform="translate(1791,826)"/>
<path d="M0 0 C9.29348067 8.56458022 12.19614495 18.98920088 12.8046875 31.33203125 C12.82803384 41.5460531 9.52677741 51.39960013 2.69921875 59.1484375 C-1.80992967 63.33828525 -6.49289837 66.43541998 -12.1875 68.75 C-13.095 69.141875 -14.0025 69.53375 -14.9375 69.9375 C-25.7521235 72.64115587 -36.5788074 72.63221455 -46.4375 67.0625 C-57.24128139 59.93405563 -63.23492578 50.42314962 -66.1875 37.75 C-67.46956386 25.66401116 -66.41633327 14.70603937 -59.5 4.4375 C-53.08938905 -3.42274659 -44.46119479 -6.99526104 -34.75 -8.9375 C-21.62084339 -10.0891804 -10.41565117 -8.56267952 0 0 Z " fill="#1A54A5" transform="translate(2129.1875,145.25)"/>
<path d="M0 0 C7.59 0 15.18 0 23 0 C27.50093845 10.12711151 27.50093845 10.12711151 29.1472168 14.73388672 C29.51828049 15.76722137 29.88934418 16.80055603 30.27165222 17.86520386 C30.66024918 18.95898346 31.04884613 20.05276306 31.44921875 21.1796875 C31.8661348 22.3458963 32.28305084 23.5121051 32.71260071 24.71365356 C33.59419041 27.18235961 34.47405469 29.65168243 35.35229492 32.12158203 C36.661816 35.80279927 37.97790426 39.48161541 39.29492188 43.16015625 C45.0829188 59.37079062 50.62699186 75.64771087 56 92 C56.3105835 90.83283447 56.62116699 89.66566895 56.94116211 88.46313477 C61.15439915 73.00988185 66.4364972 57.96887988 71.85534668 42.90734863 C72.80386821 40.26514393 73.74500754 37.62033608 74.68603611 34.97545528 C75.83003676 31.76228586 76.97954492 28.55109974 78.12890625 25.33984375 C78.54362686 24.17710434 78.95834747 23.01436493 79.38563538 21.81639099 C82.04110241 14.44338623 84.93478263 7.21261701 88 0 C95.59 0 103.18 0 111 0 C108.75016508 10.12425715 108.75016508 10.12425715 107.34619141 13.69458008 C106.87156967 14.91614304 106.87156967 14.91614304 106.38735962 16.16238403 C106.04554657 17.02274261 105.70373352 17.8831012 105.3515625 18.76953125 C104.98662689 19.70417206 104.62169128 20.63881287 104.24569702 21.60177612 C103.04469965 24.67436526 101.83483668 27.7433819 100.625 30.8125 C99.34789627 34.07257841 98.07310916 37.33355634 96.79852295 40.59461975 C95.90996396 42.86780094 95.02066994 45.14069495 94.13067627 47.41331482 C90.85248221 55.79123561 87.61519093 64.18424976 84.3984375 72.5859375 C83.94409332 73.77195053 83.48974915 74.95796356 83.02163696 76.17991638 C81.24265763 80.82520205 79.46437054 85.47074356 77.69073486 90.11807251 C76.46314988 93.3336464 75.23189532 96.5477942 74 99.76171875 C73.63828705 100.71271454 73.2765741 101.66371033 72.90390015 102.64352417 C72.5643631 103.52775055 72.22482605 104.41197693 71.875 105.32299805 C71.58367187 106.08565475 71.29234375 106.84831146 70.9921875 107.63407898 C69.79722096 110.48353683 68.3818361 113.2363278 67 116 C59.41 116 51.82 116 44 116 C40.71475262 108.19604843 37.55467951 100.36521911 34.55078125 92.44921875 C34.14000336 91.37152222 33.72922546 90.29382568 33.30599976 89.18347168 C31.97307603 85.68548072 30.64270964 82.18652387 29.3125 78.6875 C27.44081659 73.77056192 25.56809377 68.85402001 23.6953125 63.9375 C23.45927748 63.31756857 23.22324245 62.69763714 22.98005486 62.05891991 C19.54324174 53.03252918 16.08771695 44.01348262 12.6171875 35 C11.77691187 32.81552068 10.93666063 30.63103197 10.09643555 28.4465332 C8.89758002 25.32995448 7.69766333 22.21380705 6.49429321 19.09896851 C5.39302828 16.248078 4.29571944 13.39569433 3.19921875 10.54296875 C2.87214935 9.69980103 2.54507996 8.8566333 2.20809937 7.98791504 C0 2.22749764 0 2.22749764 0 0 Z " fill="#1A54A5" transform="translate(1080,864)"/>
<path d="M0 0 C7.26 0 14.52 0 22 0 C22 44.55 22 89.1 22 135 C44.44 135 66.88 135 90 135 C90 141.27 90 147.54 90 154 C60.3 154 30.6 154 0 154 C0 103.18 0 52.36 0 0 Z " fill="#1A54A5" transform="translate(854,826)"/>
<path d="M0 0 C4.95 0 9.9 0 15 0 C15 8.58 15 17.16 15 26 C26.22 26 37.44 26 49 26 C49 31.61 49 37.22 49 43 C37.78 43 26.56 43 15 43 C15.09098808 54.86639016 15.09098808 54.86639016 15.20898438 66.73242188 C15.26314863 71.57768785 15.31426422 76.42284211 15.34643555 81.26831055 C15.37259614 85.17832144 15.41308666 89.08795352 15.46318626 92.99772835 C15.47976931 94.48347292 15.49133659 95.96928288 15.49761391 97.45510674 C15.39752953 109.08960883 15.39752953 109.08960883 19 120 C24.55826037 125.42269304 28.77654876 125.20669305 36.2890625 125.16796875 C41.05645707 124.95218142 45.36818502 124.12286424 50 123 C50 128.94 50 134.88 50 141 C42.23671114 143.40141014 35.48138718 144.47253674 27.375 144.375 C26.40304688 144.38660156 25.43109375 144.39820313 24.4296875 144.41015625 C14.98077069 144.37205578 7.66981822 142.53728288 0.72265625 135.94921875 C-8.12765843 125.9349171 -7.27920879 112.45670529 -7.1953125 99.93359375 C-7.1915763 98.28736036 -7.1887322 96.64112473 -7.18673706 94.99488831 C-7.17914833 90.68933838 -7.15954146 86.38392618 -7.1373291 82.07843018 C-7.11676739 77.67405052 -7.10771339 73.26964833 -7.09765625 68.86523438 C-7.07629046 60.24341974 -7.04114786 51.62174294 -7 43 C-12.28 43 -17.56 43 -23 43 C-23 39.37 -23 35.74 -23 32 C-20.73192796 30.9932996 -18.46092246 29.99448234 -16.1875 29 C-15.54490234 28.71382812 -14.90230469 28.42765625 -14.24023438 28.1328125 C-11.32243531 26.86288959 -9.21734286 26 -6 26 C-5.73445313 24.7934375 -5.46890625 23.586875 -5.1953125 22.34375 C-4.83859941 20.72915391 -4.48182532 19.11457129 -4.125 17.5 C-3.86396484 16.31277344 -3.86396484 16.31277344 -3.59765625 15.1015625 C-2.47864527 10.04529067 -1.27766555 5.01857819 0 0 Z " fill="#1A54A5" transform="translate(2623,838)"/>
<path d="M0 0 C7.26 0 14.52 0 22 0 C22 53.79 22 107.58 22 163 C14.74 163 7.48 163 0 163 C0 109.21 0 55.42 0 0 Z " fill="#1A54A5" transform="translate(1340,817)"/>
<path d="M0 0 C0.0278024 1.62489571 0.0467446 3.24994283 0.0625 4.875 C0.07410156 5.77992188 0.08570312 6.68484375 0.09765625 7.6171875 C-0.03191419 12.10550743 -0.51011055 16.53852648 -1 21 C-1.58378418 20.97905273 -2.16756836 20.95810547 -2.76904297 20.93652344 C-18.00360046 19.98245037 -18.00360046 19.98245037 -32 25 C-32.64839844 25.4125 -33.29679687 25.825 -33.96484375 26.25 C-41.10977302 31.56715667 -43.9209902 39.46626766 -45.56468201 47.92480469 C-46.43219705 54.05314822 -46.36366587 60.2360184 -46.4140625 66.4140625 C-46.43281113 67.87951706 -46.45238718 69.34496124 -46.4727478 70.81039429 C-46.52368536 74.63411287 -46.56351417 78.45786631 -46.60089111 82.28173828 C-46.64117394 86.19702502 -46.69215443 90.11217162 -46.7421875 94.02734375 C-46.8384913 101.68480614 -46.922048 109.34232477 -47 117 C-54.26 117 -61.52 117 -69 117 C-69 78.72 -69 40.44 -69 1 C-63.06 1 -57.12 1 -51 1 C-49.515 10.405 -49.515 10.405 -48 20 C-46.2675 17.463125 -46.2675 17.463125 -44.5 14.875 C-34.34389672 1.01930043 -16.87692832 -5.4200057 0 0 Z " fill="#1A54A5" transform="translate(2908,863)"/>
<path d="M0 0 C0.0278024 1.62489571 0.0467446 3.24994283 0.0625 4.875 C0.07410156 5.77992188 0.08570312 6.68484375 0.09765625 7.6171875 C-0.03191419 12.10550743 -0.51011055 16.53852648 -1 21 C-1.58378418 20.97905273 -2.16756836 20.95810547 -2.76904297 20.93652344 C-18.00360046 19.98245037 -18.00360046 19.98245037 -32 25 C-32.64839844 25.4125 -33.29679687 25.825 -33.96484375 26.25 C-41.10977302 31.56715667 -43.9209902 39.46626766 -45.56468201 47.92480469 C-46.43219705 54.05314822 -46.36366587 60.2360184 -46.4140625 66.4140625 C-46.43281113 67.87951706 -46.45238718 69.34496124 -46.4727478 70.81039429 C-46.52368536 74.63411287 -46.56351417 78.45786631 -46.60089111 82.28173828 C-46.64117394 86.19702502 -46.69215443 90.11217162 -46.7421875 94.02734375 C-46.8384913 101.68480614 -46.922048 109.34232477 -47 117 C-54.26 117 -61.52 117 -69 117 C-69 78.72 -69 40.44 -69 1 C-63.06 1 -57.12 1 -51 1 C-49.515 10.405 -49.515 10.405 -48 20 C-46.2675 17.463125 -46.2675 17.463125 -44.5 14.875 C-34.34389672 1.01930043 -16.87692832 -5.4200057 0 0 Z " fill="#1A54A5" transform="translate(2278,863)"/>
</svg>
