<?xml version="1.0" standalone="no"?>
<!DOCTYPE svg PUBLIC "-//W3C//DTD SVG 20010904//EN"
 "http://www.w3.org/TR/2001/REC-SVG-20010904/DTD/svg10.dtd">
<svg version="1.0" xmlns="http://www.w3.org/2000/svg"
 width="1962.000000pt" height="938.000000pt" viewBox="0 0 1962.000000 938.000000"
 preserveAspectRatio="xMidYMid meet">

<g transform="translate(0.000000,938.000000) scale(0.100000,-0.100000)"
fill="#000000" stroke="none">
<path d="M16355 8490 c-1072 -88 -3435 -278 -5250 -424 -1815 -146 -3322 -269
-3348 -272 l-48 -6 3 -57 3 -56 35 3 c143 11 2551 204 6242 502 2390 192 4370
350 4399 350 95 0 189 -68 217 -157 12 -36 212 -5157 212 -5407 0 -81 -4 -108
-21 -143 -25 -53 -86 -106 -138 -121 -29 -9 -1439 -12 -5728 -12 l-5690 0 -61
-127 c-33 -71 -175 -363 -316 -650 -140 -287 -293 -611 -340 -720 -177 -413
-251 -579 -261 -582 -8 -3 -590 1054 -608 1104 -4 11 -81 -21 -97 -40 -6 -8
91 -198 311 -606 436 -808 400 -745 412 -724 5 9 108 243 229 519 128 294 339
750 511 1103 l292 602 5680 3 5680 3 67 33 c120 59 190 166 196 302 4 83 -194
5368 -203 5440 -15 110 -98 219 -203 268 -45 20 -75 26 -142 28 -47 2 -962
-69 -2035 -156z"/>
<path d="M17063 8197 l-1073 -91 0 -63 c0 -35 -1 -63 -3 -63 -12 0 -2102 -179
-2622 -225 -220 -19 -510 -44 -645 -55 -135 -12 -255 -23 -267 -26 l-23 -4 0
-640 0 -640 57 0 56 0 -6 -122 c-4 -66 -7 -573 -7 -1125 l0 -1003 -210 0 -210
0 0 -80 0 -80 160 0 160 0 0 -515 0 -515 2983 0 c2863 0 2984 1 3022 19 47 21
102 80 111 119 4 15 23 45 44 67 66 70 75 96 72 215 -6 298 -232 4748 -242
4775 -34 90 -122 146 -225 144 -33 -1 -543 -42 -1132 -92z m-3776 -1409 c-4
-66 -7 -152 -7 -190 l0 -68 -270 0 -270 0 0 190 0 190 277 0 276 0 -6 -122z
m1303 -241 l0 -233 -301 -824 c-166 -454 -304 -833 -306 -842 -5 -17 13 -18
285 -18 160 0 293 -4 296 -8 3 -5 2 -115 -1 -245 l-6 -237 -569 0 -568 0 0
234 0 235 269 748 c149 411 284 783 300 826 17 43 31 85 31 94 0 14 -28 15
-270 11 l-270 -5 0 248 0 249 555 0 555 0 0 -233z m1055 -162 c206 -58 325
-178 382 -386 16 -56 18 -111 18 -424 l0 -360 -387 -3 -388 -2 0 -268 c0 -288
8 -349 51 -388 29 -26 110 -25 140 2 43 38 49 72 49 269 l0 185 270 0 270 0 0
-132 c0 -158 -18 -286 -55 -397 -85 -255 -270 -365 -615 -364 -225 1 -360 45
-470 153 -67 65 -120 167 -150 285 -35 136 -42 298 -37 840 3 436 6 519 21
574 60 231 217 374 466 427 89 18 353 12 435 -11z m1680 -19 c110 -54 167
-130 207 -272 22 -79 23 -82 26 -1016 l3 -938 -265 0 -265 0 -3 873 c-3 830
-4 874 -22 910 -25 50 -51 67 -104 67 -58 0 -95 -36 -111 -108 -8 -37 -11
-309 -11 -897 l0 -845 -275 0 -275 0 0 1125 0 1125 275 0 275 0 0 -127 1 -128
18 47 c28 70 57 113 108 158 65 57 116 71 242 66 94 -4 109 -7 176 -40z
m-4044 12 c2 -7 3 -514 1 -1125 l-3 -1113 -270 0 -269 0 0 1125 0 1125 269 0
c207 0 270 -3 272 -12z"/>
<path d="M15355 6001 c-28 -12 -52 -41 -71 -86 -13 -31 -18 -85 -22 -237 l-5
-198 127 0 126 0 0 198 c0 208 -7 256 -43 297 -24 28 -79 40 -112 26z"/>
<path d="M6290 7779 c-501 -57 -1013 -294 -1464 -678 -48 -42 -106 -91 -128
-110 -36 -31 -165 -71 -1771 -552 -953 -284 -1756 -530 -1785 -545 -69 -35
-145 -119 -173 -192 -48 -124 -63 -54 350 -1617 251 -948 381 -1426 399 -1458
45 -83 148 -161 242 -182 19 -5 85 -9 145 -10 73 -1 129 -7 165 -19 82 -26
108 -24 1254 110 l220 25 42 -30 c24 -16 308 -244 631 -507 323 -262 593 -481
600 -486 8 -6 16 7 29 44 9 29 23 68 31 86 l14 33 52 -46 c65 -57 141 -84 185
-66 22 9 36 27 52 64 33 76 219 616 226 657 4 19 17 58 29 85 12 28 25 57 28
65 7 22 56 -88 302 -683 120 -290 222 -524 225 -520 4 5 35 84 70 176 35 92
67 166 72 165 5 -2 24 -38 42 -80 46 -105 68 -140 99 -158 49 -27 71 2 152
210 152 390 174 448 188 501 17 60 98 277 122 324 19 38 103 259 117 305 33
117 111 179 303 242 33 11 105 42 159 69 l99 50 23 -21 c26 -25 14 -30 209 80
66 37 132 74 147 81 35 19 251 170 315 222 28 23 69 55 91 71 63 45 341 334
407 424 104 140 174 246 180 272 4 14 20 46 36 71 39 62 134 275 165 374 57
179 96 454 96 680 0 178 -7 244 -51 495 -31 177 -94 360 -187 543 -25 49 -52
106 -59 127 -13 38 -168 279 -222 346 -200 248 -397 435 -600 567 -78 50 -94
57 -140 57 -43 0 -68 9 -164 61 -197 104 -519 203 -769 234 -69 9 -131 18
-139 21 -79 28 -491 42 -661 23z m404 -484 c314 -41 628 -165 889 -352 98 -70
297 -260 376 -359 624 -774 563 -1891 -140 -2595 -337 -336 -795 -542 -1262
-567 l-129 -7 -124 -409 c-68 -225 -125 -410 -127 -412 -2 -2 -91 208 -198
467 l-194 470 -80 33 c-443 182 -819 540 -1021 971 -387 828 -153 1803 571
2370 261 204 593 343 930 389 136 19 370 19 509 1z m-2106 -842 c-1 -5 -33
-69 -70 -143 -150 -303 -219 -603 -219 -950 0 -343 66 -628 216 -935 114 -235
249 -419 446 -610 l122 -117 -29 -137 -29 -136 -277 -3 -278 -2 6 -43 c10 -86
74 -767 74 -793 0 -23 -51 23 -354 320 l-354 347 -804 -71 c-636 -57 -811 -69
-839 -61 -46 14 -85 45 -105 83 -9 17 -151 522 -315 1122 -240 875 -298 1098
-293 1128 7 43 38 93 75 120 22 17 2976 885 3017 887 8 1 12 -2 10 -6z"/>
<path d="M7330 6131 c-68 -22 -126 -74 -525 -472 -237 -236 -438 -429 -447
-429 -9 0 -30 11 -46 25 -17 14 -33 25 -37 25 -4 0 -35 20 -69 44 -33 24 -80
53 -104 65 -24 12 -102 82 -184 166 -173 177 -211 200 -321 193 -117 -8 -206
-68 -264 -180 -37 -73 -39 -180 -4 -251 22 -46 421 -477 700 -758 126 -127
159 -142 299 -139 58 2 105 -3 142 -15 64 -19 160 -15 229 9 24 9 87 45 140
80 77 51 152 120 381 348 441 441 486 491 547 605 46 87 52 105 52 161 1 74
-21 125 -72 169 -28 23 -34 36 -36 73 -4 95 -84 206 -186 257 -53 27 -150 39
-195 24z"/>
<path d="M3224 5759 c-50 -10 -138 -35 -195 -55 -103 -36 -357 -158 -400 -193
l-22 -18 72 -314 c40 -172 74 -315 76 -318 2 -2 35 19 72 47 37 27 95 66 128
86 l59 35 28 -43 c21 -35 42 -52 99 -80 39 -20 80 -36 90 -36 11 0 19 -5 19
-11 0 -15 -55 -112 -97 -170 -33 -46 -33 -48 -33 -156 l0 -109 198 43 c108 23
200 43 203 43 3 0 16 -23 29 -51 13 -28 34 -60 46 -72 l22 -22 -92 0 c-85 0
-95 -3 -154 -34 -126 -68 -192 -177 -192 -316 0 -99 27 -169 91 -240 81 -88
201 -132 313 -115 34 5 49 3 68 -12 134 -103 365 -22 399 141 26 128 -6 222
-107 308 -77 65 -94 83 -128 132 -16 24 -46 55 -67 71 l-39 28 39 6 c70 11
269 194 314 287 112 238 143 370 125 532 -9 89 -22 125 -80 220 -39 66 -130
147 -164 147 -8 0 -20 13 -29 30 -24 46 -115 132 -172 163 -126 67 -332 86
-519 46z"/>
<path d="M10906 6475 c4 -11 19 -56 33 -100 l26 -80 3 -770 c2 -542 0 -794 -8
-850 -16 -107 -52 -218 -95 -289 -19 -32 -35 -60 -35 -62 0 -2 101 -69 148
-98 16 -9 61 87 88 189 18 66 19 120 19 895 0 918 3 874 -69 1025 -30 64 -127
187 -110 140z"/>
<path d="M10270 6303 c-22 -11 -43 -33 -55 -58 -19 -39 -20 -60 -20 -770 0
-782 1 -791 50 -841 13 -13 36 -24 50 -24 l25 0 0 708 c0 444 4 720 10 743 12
42 54 89 81 89 24 0 26 43 4 97 -25 63 -85 86 -145 56z"/>
<path d="M11750 5455 c0 -517 4 -791 11 -824 12 -58 45 -91 90 -91 l29 0 0
845 0 845 -65 0 -65 0 0 -775z"/>
<path d="M11961 4300 c-54 -114 -132 -169 -261 -185 -74 -9 -202 10 -267 40
l-53 24 25 -48 c54 -107 165 -169 320 -178 164 -10 260 28 327 128 l36 54 -49
3 -48 3 -3 105 -3 105 -24 -51z"/>
<path d="M9890 4221 c55 -97 168 -184 295 -227 91 -30 244 -43 332 -27 l51 10
212 -139 c117 -76 214 -138 215 -136 10 11 175 308 175 315 0 10 -143 102
-151 97 -4 -2 -37 -58 -75 -124 -37 -66 -71 -120 -75 -120 -4 0 -100 61 -214
135 l-206 136 -60 -12 c-137 -27 -337 13 -458 91 l-63 41 22 -40z"/>
</g>
</svg>
