<svg width="81" height="20" viewBox="0 0 81 20" fill="none" xmlns="http://www.w3.org/2000/svg">
<path d="M73.052 14.3563C67.3397 15.2926 62.0187 16.1248 56.6977 17.0611C56.3064 17.1651 55.9934 17.7893 55.1327 18.7256C57.6367 19.1417 59.5929 19.6619 61.5492 19.7659C66.7137 19.974 71.8 19.974 76.9645 19.974C77.5905 19.974 78.2165 20.078 78.8425 19.87C80.877 19.3498 81.5813 17.5813 80.4858 15.1886C79.938 14.0442 79.312 13.0039 78.6078 12.0676C75.9473 8.53056 73.2085 5.09753 70.4697 1.6645C70.0002 1.04032 69.296 0.728218 68.357 0C68.2005 5.30559 72.1913 6.76203 73.052 10.9233C72.3478 10.7152 71.7217 10.6112 71.174 10.4031C50.0464 2.70481 28.9971 3.53707 8.02597 11.0273C5.83496 11.7555 3.7222 12.8999 1.60944 13.9402C0.513939 14.4603 -0.425072 15.6047 0.200935 17.3732C0.748688 19.1417 1.84418 19.1417 3.09619 18.4135C17.103 10.091 31.9706 9.15475 46.9946 9.46684C54.8197 9.57087 62.4882 10.7152 70.0785 13.1079C71.0175 13.42 71.9565 13.8362 73.052 14.3563Z" fill="#3D3838"/>
</svg>
