<svg width="81" height="20" viewBox="0 0 81 20" fill="none" xmlns="http://www.w3.org/2000/svg">
<path d="M73.052 5.64368C67.3397 4.7074 62.0187 3.87518 56.6977 2.9389C56.3064 2.83487 55.9934 2.21067 55.1327 1.27439C57.6367 0.858267 59.5929 0.338112 61.5492 0.234079C66.7137 0.0260181 71.8 0.0260048 76.9645 0.0260048C77.5905 0.0260048 78.2165 -0.0780201 78.8425 0.130043C80.877 0.650198 81.5813 2.41873 80.4858 4.81144C79.938 5.95579 79.312 6.9961 78.6078 7.93238C75.9473 11.4694 73.2085 14.9025 70.4697 18.3355C70.0002 18.9597 69.296 19.2718 68.357 20C68.2005 14.6944 72.1913 13.238 73.052 9.07673C72.3478 9.28479 71.7217 9.38882 71.174 9.59688C50.0464 17.2952 28.9971 16.4629 8.02597 8.97269C5.83496 8.24447 3.7222 7.10014 1.60944 6.05983C0.513939 5.53968 -0.425072 4.39531 0.200935 2.62678C0.748688 0.858253 1.84418 0.858253 3.09619 1.58647C17.103 9.90897 31.9706 10.8453 46.9946 10.5332C54.8197 10.4291 62.4882 9.28478 70.0785 6.89207C71.0175 6.57997 71.9565 6.16384 73.052 5.64368Z" fill="#3D3838"/>
</svg>
